999
dxfrw 0.6.1
  0
SECTION
  2
HEADER
  9
$ACADVER
  1
AC1021
  9
$DWGCODEPAGE
  3
ANSI_1252
  9
$INSBASE
 10
0
 20
0
 30
0
  9
$EXTMIN
 10
-0.7
 20
-0.7001228374456543
 30
0
  9
$EXTMAX
 10
286.4510348102231
 20
76.90026849935664
 30
0
  9
$LIMMIN
 10
0
 20
0
  9
$LIMMAX
 10
420
 20
297
  9
$ORTHOMODE
 70
    0
  9
$REGENMODE
 70
    1
  9
$FILLMODE
 70
    1
  9
$QTEXTMODE
 70
    0
  9
$MIRRTEXT
 70
    0
  9
$LTSCALE
 40
1
  9
$ATTMODE
 70
    0
  9
$TEXTSIZE
 40
2.5
  9
$TRACEWID
 40
15.68
  9
$TEXTSTYLE
  7
STANDARD
  9
$CLAYER
  8
0
  9
$CELTYPE
  6
BYLAYER
  9
$CECOLOR
 62
  256
  9
$CELTSCALE
 40
1
  9
$DISPSILH
 70
    0
  9
$DIMSCALE
 40
1
  9
$DIMASZ
 40
2.5
  9
$DIMEXO
 40
0.625
  9
$DIMDLI
 40
3.75
  9
$DIMRND
 40
0
  9
$DIMDLE
 40
0
  9
$DIMEXE
 40
1.25
  9
$DIMTP
 40
0
  9
$DIMTM
 40
0
  9
$DIMTXT
 40
2.5
  9
$DIMCEN
 40
2.5
  9
$DIMTSZ
 40
0
  9
$DIMTOL
 70
    0
  9
$DIMLIM
 70
    0
  9
$DIMTIH
 70
    0
  9
$DIMTOH
 70
    0
  9
$DIMSE1
 70
    0
  9
$DIMSE2
 70
    0
  9
$DIMTAD
 70
    1
  9
$DIMZIN
 70
    8
  9
$DIMBLK
  1

  9
$DIMASO
 70
    1
  9
$DIMSHO
 70
    1
  9
$DIMPOST
  1

  9
$DIMAPOST
  1

  9
$DIMALT
 70
    0
  9
$DIMALTD
 70
    3
  9
$DIMALTF
 40
0.03937
  9
$DIMLFAC
 40
1
  9
$DIMTOFL
 70
    1
  9
$DIMTVP
 40
0
  9
$DIMTIX
 70
    0
  9
$DIMSOXD
 70
    0
  9
$DIMSAH
 70
    0
  9
$DIMBLK1
  1

  9
$DIMBLK2
  1

  9
$DIMSTYLE
  2
Standard
  9
$DIMCLRD
 70
    0
  9
$DIMCLRE
 70
    0
  9
$DIMCLRT
 70
    0
  9
$DIMTFAC
 40
1
  9
$DIMGAP
 40
0.625
  9
$DIMJUST
 70
    0
  9
$DIMSD1
 70
    0
  9
$DIMSD2
 70
    0
  9
$DIMTOLJ
 70
    0
  9
$DIMTZIN
 70
    8
  9
$DIMALTZ
 70
    0
  9
$DIMALTTZ
 70
    0
  9
$DIMUPT
 70
    0
  9
$DIMDEC
 70
    2
  9
$DIMTDEC
 70
    2
  9
$DIMALTU
 70
    2
  9
$DIMALTTD
 70
    3
  9
$DIMTXSTY
  7
standard
  9
$DIMAUNIT
 70
    0
  9
$DIMADEC
 70
    0
  9
$DIMALTRND
 40
0
  9
$DIMAZIN
 70
    0
  9
$DIMDSEP
 70
   44
  9
$DIMATFIT
 70
    3
  9
$DIMFRAC
 70
    0
  9
$DIMLDRBLK
  1
STANDARD
  9
$DIMLUNIT
 70
    2
  9
$DIMLWD
 70
   -2
  9
$DIMLWE
 70
   -2
  9
$DIMTMOVE
 70
    0
  9
$DIMFXL
 40
1
  9
$DIMFXLON
 70
    0
  9
$DIMJOGANG
 40
0.7854
  9
$DIMTFILL
 70
    0
  9
$DIMTFILLCLR
 70
    0
  9
$DIMARCSYM
 70
    0
  9
$DIMLTYPE
  6

  9
$DIMLTEX1
  6

  9
$DIMLTEX2
  6

  9
$LUNITS
 70
    2
  9
$LUPREC
 70
    4
  9
$SKETCHINC
 40
1
  9
$FILLETRAD
 40
0
  9
$AUNITS
 70
    0
  9
$AUPREC
 70
    2
  9
$MENU
  1
.
  9
$ELEVATION
 40
0
  9
$PELEVATION
 40
0
  9
$THICKNESS
 40
0
  9
$LIMCHECK
 70
    0
  9
$CHAMFERA
 40
0
  9
$CHAMFERB
 40
0
  9
$CHAMFERC
 40
0
  9
$CHAMFERD
 40
0
  9
$SKPOLY
 70
    0
  9
$USRTIMER
 70
    1
  9
$ANGBASE
 50
0
  9
$ANGDIR
 70
    0
  9
$PDMODE
 70
   34
  9
$PDSIZE
 40
0
  9
$PLINEWID
 40
0
  9
$SPLFRAME
 70
    0
  9
$SPLINETYPE
 70
    2
  9
$SPLINESEGS
 70
    8
  9
$HANDSEED
  5
20000
  9
$SURFTAB1
 70
    6
  9
$SURFTAB2
 70
    6
  9
$SURFTYPE
 70
    6
  9
$SURFU
 70
    6
  9
$SURFV
 70
    6
  9
$UCSBASE
  2

  9
$UCSNAME
  2

  9
$UCSORG
 10
0
 20
0
 30
0
  9
$UCSXDIR
 10
1
 20
0
 30
0
  9
$UCSYDIR
 10
0
 20
1
 30
0
  9
$UCSORTHOREF
  2

  9
$UCSORTHOVIEW
 70
    0
  9
$UCSORGTOP
 10
0
 20
0
 30
0
  9
$UCSORGBOTTOM
 10
0
 20
0
 30
0
  9
$UCSORGLEFT
 10
0
 20
0
 30
0
  9
$UCSORGRIGHT
 10
0
 20
0
 30
0
  9
$UCSORGFRONT
 10
0
 20
0
 30
0
  9
$UCSORGBACK
 10
0
 20
0
 30
0
  9
$PUCSBASE
  2

  9
$PUCSNAME
  2

  9
$PUCSORG
 10
0
 20
0
 30
0
  9
$PUCSXDIR
 10
1
 20
0
 30
0
  9
$PUCSYDIR
 10
0
 20
1
 30
0
  9
$PUCSORTHOREF
  2

  9
$PUCSORTHOVIEW
 70
    0
  9
$PUCSORGTOP
 10
0
 20
0
 30
0
  9
$PUCSORGBOTTOM
 10
0
 20
0
 30
0
  9
$PUCSORGLEFT
 10
0
 20
0
 30
0
  9
$PUCSORGRIGHT
 10
0
 20
0
 30
0
  9
$PUCSORGFRONT
 10
0
 20
0
 30
0
  9
$PUCSORGBACK
 10
0
 20
0
 30
0
  9
$USERI1
 70
    0
  9
$USERI2
 70
    0
  9
$USERI3
 70
    0
  9
$USERI4
 70
    0
  9
$USERI5
 70
    0
  9
$USERR1
 40
0
  9
$USERR2
 40
0
  9
$USERR3
 40
0
  9
$USERR4
 40
0
  9
$USERR5
 40
0
  9
$WORLDVIEW
 70
    1
  9
$SHADEDGE
 70
    3
  9
$SHADEDIF
 70
   70
  9
$TILEMODE
 70
    1
  9
$MAXACTVP
 70
   64
  9
$PINSBASE
 10
5.624482594888474
 20
66.8999271690445
 30
0
  9
$PLIMCHECK
 70
    0
  9
$PEXTMIN
 10
0
 20
0
 30
0
  9
$PEXTMAX
 10
0
 20
0
 30
0
  9
$GRIDMODE
 70
    1
  9
$SNAPSTYLE
 70
    0
  9
$GRIDUNIT
 10
0
 20
0
  9
$PLIMMIN
 10
0
 20
0
  9
$PLIMMAX
 10
297
 20
210
  9
$UNITMODE
 70
    0
  9
$VISRETAIN
 70
    1
  9
$PLINEGEN
 70
    0
  9
$PSLTSCALE
 70
    1
  9
$TREEDEPTH
 70
 3020
  9
$CMLSTYLE
  2
Standard
  9
$CMLJUST
 70
    0
  9
$CMLSCALE
 40
20
  9
$PROXYGRAPHICS
 70
    1
  9
$MEASUREMENT
 70
    1
  9
$CELWEIGHT
370
   -1
  9
$ENDCAPS
280
    0
  9
$JOINSTYLE
280
    0
  9
$LWDISPLAY
290
    0
  9
$INSUNITS
 70
    4
  9
$HYPERLINKBASE
  1

  9
$STYLESHEET
  1

  9
$XEDIT
290
    1
  9
$CEPSNTYPE
380
    0
  9
$PSTYLEMODE
290
    1
  9
$EXTNAMES
290
    1
  9
$PSVPSCALE
 40
1
  9
$OLESTARTUP
290
    0
  9
$SORTENTS
280
  127
  9
$INDEXCTL
280
    0
  9
$HIDETEXT
280
    1
  9
$XCLIPFRAME
290
    0
  9
$HALOGAP
280
    0
  9
$OBSCOLOR
 70
  257
  9
$OBSLTYPE
280
    0
  9
$INTERSECTIONDISPLAY
280
    0
  9
$INTERSECTIONCOLOR
 70
  257
  9
$DIMASSOC
280
    0
  9
$PROJECTNAME
  1

  9
$CAMERADISPLAY
290
    0
  9
$LENSLENGTH
 40
50
  9
$CAMERAHEIGHT
 40
0
  9
$STEPSPERSEC
 40
2
  9
$STEPSIZE
 40
50
  9
$3DDWFPREC
 40
2
  9
$PSOLWIDTH
 40
5
  9
$PSOLHEIGHT
 40
80
  9
$LOFTANG1
 40
1.570796326794897
  9
$LOFTANG2
 40
1.570796326794897
  9
$LOFTMAG1
 40
0
  9
$LOFTMAG2
 40
0
  9
$LOFTPARAM
 70
    7
  9
$LOFTNORMALS
280
    1
  9
$LATITUDE
 40
1
  9
$LONGITUDE
 40
1
  9
$NORTHDIRECTION
 40
0
  9
$TIMEZONE
 70
-8000
  9
$LIGHTGLYPHDISPLAY
280
    1
  9
$TILEMODELIGHTSYNCH
280
    1
  9
$SOLIDHIST
280
    1
  9
$SHOWHIST
280
    1
  9
$DWFFRAME
280
    2
  9
$DGNFRAME
280
    0
  9
$REALWORLDSCALE
290
    1
  9
$INTERFERECOLOR
 62
    1
  9
$CSHADOW
280
    0
  9
$SHADOWPLANELOCATION
 40
0
  0
ENDSEC
  0
SECTION
  2
CLASSES
  0
ENDSEC
  0
SECTION
  2
TABLES
  0
TABLE
  2
VPORT
  5
8
330
0
100
AcDbSymbolTable
 70
    1
  0
VPORT
  5
31
330
2
100
AcDbSymbolTableRecord
100
AcDbViewportTableRecord
  2
*ACTIVE
 70
    0
 10
0
 20
0
 11
1
 21
1
 12
144.3213642487744
 22
95.3751651333955
 13
0
 23
0
 14
10
 24
10
 15
10
 25
10
 16
0
 26
0
 36
1
 17
0
 27
0
 37
0
 40
304.6784356363016
 41
0.9547123623011016
 42
50
 43
0
 44
0
 50
0
 51
0
 71
    0
 72
  100
 73
    1
 74
    3
 75
    0
 76
    1
 77
    0
 78
    0
281
    0
 65
    1
110
0
120
0
130
0
111
1
121
0
131
0
112
0
122
1
132
0
 79
    0
146
0
348
10020
 60
    7
 61
    5
292
1
282
    1
141
0
142
0
 63
  250
421
3358443
  0
ENDTAB
  0
TABLE
  2
LTYPE
  5
5
330
0
100
AcDbSymbolTable
 70
    4
  0
LTYPE
  5
14
330
5
100
AcDbSymbolTableRecord
100
AcDbLinetypeTableRecord
  2
ByBlock
 70
    0
  3

 72
   65
 73
    0
 40
0
  0
LTYPE
  5
15
330
5
100
AcDbSymbolTableRecord
100
AcDbLinetypeTableRecord
  2
ByLayer
 70
    0
  3

 72
   65
 73
    0
 40
0
  0
LTYPE
  5
16
330
5
100
AcDbSymbolTableRecord
100
AcDbLinetypeTableRecord
  2
Continuous
 70
    0
  3
Solid line
 72
   65
 73
    0
 40
0
  0
LTYPE
  5
32
330
5
100
AcDbSymbolTableRecord
100
AcDbLinetypeTableRecord
  2
DOT
 70
    0
  3
Dot . . . . . . . . . . . . . . . . . . . . . .
 72
   65
 73
    2
 40
6.35
 49
0
 74
    0
 49
-6.35
 74
    0
  0
LTYPE
  5
33
330
5
100
AcDbSymbolTableRecord
100
AcDbLinetypeTableRecord
  2
DOTTINY
 70
    0
  3
Dot (.15x) .....................................
 72
   65
 73
    2
 40
0.9525
 49
0
 74
    0
 49
-0.9525
 74
    0
  0
LTYPE
  5
34
330
5
100
AcDbSymbolTableRecord
100
AcDbLinetypeTableRecord
  2
DOT2
 70
    0
  3
Dot (.5x) .....................................
 72
   65
 73
    2
 40
3.175
 49
0
 74
    0
 49
-3.175
 74
    0
  0
LTYPE
  5
35
330
5
100
AcDbSymbolTableRecord
100
AcDbLinetypeTableRecord
  2
DOTX2
 70
    0
  3
Dot (2x) .  .  .  .  .  .  .  .  .  .  .  .  .
 72
   65
 73
    2
 40
12.7
 49
0
 74
    0
 49
-12.7
 74
    0
  0
LTYPE
  5
36
330
5
100
AcDbSymbolTableRecord
100
AcDbLinetypeTableRecord
  2
DASHED
 70
    0
  3
Dashed _ _ _ _ _ _ _ _ _ _ _ _ _ _ _ _ _
 72
   65
 73
    2
 40
19.05
 49
12.7
 74
    0
 49
-6.35
 74
    0
  0
LTYPE
  5
37
330
5
100
AcDbSymbolTableRecord
100
AcDbLinetypeTableRecord
  2
DASHEDTINY
 70
    0
  3
Dashed (.15x) _ _ _ _ _ _ _ _ _ _ _ _ _ _ _ _ _
 72
   65
 73
    2
 40
2.8575
 49
1.905
 74
    0
 49
-0.9525
 74
    0
  0
LTYPE
  5
38
330
5
100
AcDbSymbolTableRecord
100
AcDbLinetypeTableRecord
  2
DASHED2
 70
    0
  3
Dashed (.5x) _ _ _ _ _ _ _ _ _ _ _ _ _ _ _ _ _
 72
   65
 73
    2
 40
9.524999999999999
 49
6.35
 74
    0
 49
-3.175
 74
    0
  0
LTYPE
  5
39
330
5
100
AcDbSymbolTableRecord
100
AcDbLinetypeTableRecord
  2
DASHEDX2
 70
    0
  3
Dashed (2x) ____  ____  ____  ____  ____  ___
 72
   65
 73
    2
 40
38.09999999999999
 49
25.4
 74
    0
 49
-12.7
 74
    0
  0
LTYPE
  5
3A
330
5
100
AcDbSymbolTableRecord
100
AcDbLinetypeTableRecord
  2
DASHDOT
 70
    0
  3
Dash dot __ . __ . __ . __ . __ . __ . __ . __
 72
   65
 73
    4
 40
25.4
 49
12.7
 74
    0
 49
-6.35
 74
    0
 49
0
 74
    0
 49
-6.35
 74
    0
  0
LTYPE
  5
3B
330
5
100
AcDbSymbolTableRecord
100
AcDbLinetypeTableRecord
  2
DASHDOTTINY
 70
    0
  3
Dash dot (.15x) _._._._._._._._._._._._._._._.
 72
   65
 73
    4
 40
3.81
 49
1.905
 74
    0
 49
-0.9525
 74
    0
 49
0
 74
    0
 49
-0.9525
 74
    0
  0
LTYPE
  5
3C
330
5
100
AcDbSymbolTableRecord
100
AcDbLinetypeTableRecord
  2
DASHDOT2
 70
    0
  3
Dash dot (.5x) _._._._._._._._._._._._._._._.
 72
   65
 73
    4
 40
12.7
 49
6.35
 74
    0
 49
-3.175
 74
    0
 49
0
 74
    0
 49
-3.175
 74
    0
  0
LTYPE
  5
3D
330
5
100
AcDbSymbolTableRecord
100
AcDbLinetypeTableRecord
  2
DASHDOTX2
 70
    0
  3
Dash dot (2x) ____  .  ____  .  ____  .  ___
 72
   65
 73
    4
 40
50.8
 49
25.4
 74
    0
 49
-12.7
 74
    0
 49
0
 74
    0
 49
-12.7
 74
    0
  0
LTYPE
  5
3E
330
5
100
AcDbSymbolTableRecord
100
AcDbLinetypeTableRecord
  2
DIVIDE
 70
    0
  3
Divide ____ . . ____ . . ____ . . ____ . . ____
 72
   65
 73
    6
 40
31.75
 49
12.7
 74
    0
 49
-6.35
 74
    0
 49
0
 74
    0
 49
-6.35
 74
    0
 49
0
 74
    0
 49
-6.35
 74
    0
  0
LTYPE
  5
3F
330
5
100
AcDbSymbolTableRecord
100
AcDbLinetypeTableRecord
  2
DIVIDETINY
 70
    0
  3
Divide (.15x) __..__..__..__..__..__..__..__.._
 72
   65
 73
    6
 40
4.7625
 49
1.905
 74
    0
 49
-0.9525
 74
    0
 49
0
 74
    0
 49
-0.9525
 74
    0
 49
0
 74
    0
 49
-0.9525
 74
    0
  0
LTYPE
  5
40
330
5
100
AcDbSymbolTableRecord
100
AcDbLinetypeTableRecord
  2
DIVIDE2
 70
    0
  3
Divide (.5x) __..__..__..__..__..__..__..__.._
 72
   65
 73
    6
 40
15.875
 49
6.35
 74
    0
 49
-3.175
 74
    0
 49
0
 74
    0
 49
-3.175
 74
    0
 49
0
 74
    0
 49
-3.175
 74
    0
  0
LTYPE
  5
41
330
5
100
AcDbSymbolTableRecord
100
AcDbLinetypeTableRecord
  2
DIVIDEX2
 70
    0
  3
Divide (2x) ________  .  .  ________  .  .  _
 72
   65
 73
    6
 40
63.5
 49
25.4
 74
    0
 49
-12.7
 74
    0
 49
0
 74
    0
 49
-12.7
 74
    0
 49
0
 74
    0
 49
-12.7
 74
    0
  0
LTYPE
  5
42
330
5
100
AcDbSymbolTableRecord
100
AcDbLinetypeTableRecord
  2
BORDER
 70
    0
  3
Border __ __ . __ __ . __ __ . __ __ . __ __ .
 72
   65
 73
    6
 40
44.45
 49
12.7
 74
    0
 49
-6.35
 74
    0
 49
12.7
 74
    0
 49
-6.35
 74
    0
 49
0
 74
    0
 49
-6.35
 74
    0
  0
LTYPE
  5
43
330
5
100
AcDbSymbolTableRecord
100
AcDbLinetypeTableRecord
  2
BORDERTINY
 70
    0
  3
Border (.15x) __.__.__.__.__.__.__.__.__.__.__.
 72
   65
 73
    6
 40
6.6675
 49
1.905
 74
    0
 49
-0.9525
 74
    0
 49
1.905
 74
    0
 49
-0.9525
 74
    0
 49
0
 74
    0
 49
-0.9525
 74
    0
  0
LTYPE
  5
44
330
5
100
AcDbSymbolTableRecord
100
AcDbLinetypeTableRecord
  2
BORDER2
 70
    0
  3
Border (.5x) __.__.__.__.__.__.__.__.__.__.__.
 72
   65
 73
    6
 40
22.225
 49
6.35
 74
    0
 49
-3.175
 74
    0
 49
6.35
 74
    0
 49
-3.175
 74
    0
 49
0
 74
    0
 49
-3.175
 74
    0
  0
LTYPE
  5
45
330
5
100
AcDbSymbolTableRecord
100
AcDbLinetypeTableRecord
  2
BORDERX2
 70
    0
  3
Border (2x) ____  ____  .  ____  ____  .  ___
 72
   65
 73
    6
 40
88.89999999999999
 49
25.4
 74
    0
 49
-12.7
 74
    0
 49
25.4
 74
    0
 49
-12.7
 74
    0
 49
0
 74
    0
 49
-12.7
 74
    0
  0
LTYPE
  5
46
330
5
100
AcDbSymbolTableRecord
100
AcDbLinetypeTableRecord
  2
CENTER
 70
    0
  3
Center ____ _ ____ _ ____ _ ____ _ ____ _ ____
 72
   65
 73
    4
 40
50.8
 49
31.75
 74
    0
 49
-6.35
 74
    0
 49
6.35
 74
    0
 49
-6.35
 74
    0
  0
LTYPE
  5
47
330
5
100
AcDbSymbolTableRecord
100
AcDbLinetypeTableRecord
  2
CENTERTINY
 70
    0
  3
Center (.15x) ___ _ ___ _ ___ _ ___ _ ___ _ ___
 72
   65
 73
    4
 40
7.619999999999999
 49
4.7625
 74
    0
 49
-0.9525
 74
    0
 49
0.9525
 74
    0
 49
-0.9525
 74
    0
  0
LTYPE
  5
48
330
5
100
AcDbSymbolTableRecord
100
AcDbLinetypeTableRecord
  2
CENTER2
 70
    0
  3
Center (.5x) ___ _ ___ _ ___ _ ___ _ ___ _ ___
 72
   65
 73
    4
 40
28.575
 49
19.05
 74
    0
 49
-3.175
 74
    0
 49
3.175
 74
    0
 49
-3.175
 74
    0
  0
LTYPE
  5
49
330
5
100
AcDbSymbolTableRecord
100
AcDbLinetypeTableRecord
  2
CENTERX2
 70
    0
  3
Center (2x) ________  __  ________  __  _____
 72
   65
 73
    4
 40
101.6
 49
63.5
 74
    0
 49
-12.7
 74
    0
 49
12.7
 74
    0
 49
-12.7
 74
    0
  0
ENDTAB
  0
TABLE
  2
LAYER
  5
2
330
0
100
AcDbSymbolTable
 70
    1
  0
LAYER
  5
10
330
2
100
AcDbSymbolTableRecord
100
AcDbLayerTableRecord
  2
0
 70
    1
 62
    7
  6
CONTINUOUS
370
   -3
390
F
  0
LAYER
  5
4A
330
2
100
AcDbSymbolTableRecord
100
AcDbLayerTableRecord
  2
bottom-label
 70
    0
 62
    7
  6
CONTINUOUS
370
    0
390
F
  0
LAYER
  5
4B
330
2
100
AcDbSymbolTableRecord
100
AcDbLayerTableRecord
  2
helper-bottom
 70
    1
 62
    7
  6
CONTINUOUS
370
    0
390
F
  0
LAYER
  5
4C
330
2
100
AcDbSymbolTableRecord
100
AcDbLayerTableRecord
  2
helper-top1
 70
    1
 62
    7
  6
CONTINUOUS
370
    0
390
F
  0
LAYER
  5
4D
330
2
100
AcDbSymbolTableRecord
100
AcDbLayerTableRecord
  2
hooks
 70
    1
 62
    7
  6
CONTINUOUS
370
    0
390
F
  0
LAYER
  5
4E
330
2
100
AcDbSymbolTableRecord
100
AcDbLayerTableRecord
  2
insulating-layer
 70
    0
 62
    7
  6
CONTINUOUS
370
    0
390
F
  0
LAYER
  5
4F
330
2
100
AcDbSymbolTableRecord
100
AcDbLayerTableRecord
  2
outline
 70
    0
 62
    7
  6
CONTINUOUS
370
    0
390
F
  0
LAYER
  5
50
330
2
100
AcDbSymbolTableRecord
100
AcDbLayerTableRecord
  2
plate-support
 70
    1
 62
    7
  6
CONTINUOUS
370
    0
390
F
  0
ENDTAB
  0
TABLE
  2
STYLE
  5
3
330
0
100
AcDbSymbolTable
 70
    3
  0
STYLE
  5
51
330
2
100
AcDbSymbolTableRecord
100
AcDbTextStyleTableRecord
  2
Standard
 70
    0
 40
0
 41
1
 50
0
 71
    0
 42
1
  3
txt
  4

  0
ENDTAB
  0
TABLE
  2
VIEW
  5
6
330
0
100
AcDbSymbolTable
 70
    0
  0
ENDTAB
  0
TABLE
  2
UCS
  5
7
330
0
100
AcDbSymbolTable
 70
    0
  0
ENDTAB
  0
TABLE
  2
APPID
  5
9
330
0
100
AcDbSymbolTable
 70
    1
  0
APPID
  5
12
330
9
100
AcDbSymbolTableRecord
100
AcDbRegAppTableRecord
  2
ACAD
 70
    0
  0
APPID
  5
52
330
9
100
AcDbSymbolTableRecord
100
AcDbRegAppTableRecord
  2
LibreCad
 70
    0
  0
ENDTAB
  0
TABLE
  2
DIMSTYLE
  5
A
330
0
100
AcDbSymbolTable
 70
    1
100
AcDbDimStyleTable
 71
    1
  0
DIMSTYLE
105
53
330
A
100
AcDbSymbolTableRecord
100
AcDbDimStyleTableRecord
  2
Standard
 70
    0
 40
1
 41
2.5
 42
0.625
 43
0.38
 44
1.25
 45
0
 46
0
 47
0
 48
0
140
2.5
141
0.09
142
0
143
25.4
144
1
145
0
146
1
147
0.625
148
0
 71
    0
 72
    0
 73
    0
 74
    1
 75
    0
 76
    0
 77
    0
 78
    0
 79
    0
170
    0
171
    2
172
    0
173
    0
174
    0
175
    0
176
    0
177
    0
178
    0
179
    0
271
    4
272
    4
273
    2
274
    2
275
    0
276
    0
277
    2
278
   46
279
    0
280
    0
281
    0
282
    0
283
    1
284
    0
285
    0
286
    0
288
    0
289
    3
340
Standard
341

371
   -2
372
   -2
  0
ENDTAB
  0
TABLE
  2
BLOCK_RECORD
  5
1
330
0
100
AcDbSymbolTable
 70
    2
  0
BLOCK_RECORD
  5
1F
330
1
100
AcDbSymbolTableRecord
100
AcDbBlockTableRecord
  2
*Model_Space
 70
    0
280
    1
281
    0
  0
BLOCK_RECORD
  5
1E
330
1
100
AcDbSymbolTableRecord
100
AcDbBlockTableRecord
  2
*Paper_Space
 70
    0
280
    1
281
    0
  0
BLOCK_RECORD
  5
54
330
1
100
AcDbSymbolTableRecord
100
AcDbBlockTableRecord
  2
top-plate-pcb
 70
    0
280
    1
281
    0
  0
ENDTAB
  0
ENDSEC
  0
SECTION
  2
BLOCKS
  0
BLOCK
  5
20
330
1F
100
AcDbEntity
  8
0
100
AcDbBlockBegin
  2
*Model_Space
 70
    0
 10
0
 20
0
 30
0
  3
*Model_Space
  1

  0
ENDBLK
  5
21
330
1F
100
AcDbEntity
  8
0
100
AcDbBlockEnd
  0
BLOCK
  5
1C
330
1B
100
AcDbEntity
  8
0
100
AcDbBlockBegin
  2
*Paper_Space
 70
    0
 10
0
 20
0
 30
0
  3
*Paper_Space
  1

  0
ENDBLK
  5
1D
330
1F
100
AcDbEntity
  8
0
100
AcDbBlockEnd
  0
BLOCK
  5
55
330
54
100
AcDbEntity
  8
0
100
AcDbBlockBegin
  2
top-plate-pcb
 70
    0
 10
0
 20
0
  3
top-plate-pcb
  1

  0
LWPOLYLINE
  5
57
100
AcDbEntity
  8
0
  6
ByLayer
 62
    0
370
   -1
100
AcDbPolyline
 90
    5
 70
    1
 43
0
 10
-128.851684733
 20
-50.925222844
 10
-114.852195333
 20
-50.925222844
 10
-114.852195333
 20
-64.925702844
 10
-128.851684733
 20
-64.925702844
 10
-128.851684733
 20
-50.925222844
  0
LWPOLYLINE
  5
58
100
AcDbEntity
  8
0
  6
ByLayer
 62
    0
370
   -1
100
AcDbPolyline
 90
    5
 70
    1
 43
0
 10
-128.851684733
 20
-69.975222844
 10
-114.852195333
 20
-69.975222844
 10
-114.852195333
 20
-83.975931444
 10
-128.851684733
 20
-83.975931444
 10
-128.851684733
 20
-69.975222844
  0
LWPOLYLINE
  5
59
100
AcDbEntity
  8
0
  6
ByLayer
 62
    0
370
   -1
100
AcDbPolyline
 90
    5
 70
    1
 43
0
 10
-128.851684733
 20
-89.02507044399999
 10
-114.852195333
 20
-89.02507044399999
 10
-114.852195333
 20
-103.025931444
 10
-128.851684733
 20
-103.025931444
 10
-128.851684733
 20
-89.02507044399999
  0
LWPOLYLINE
  5
5A
100
AcDbEntity
  8
0
  6
ByLayer
 62
    0
370
   -1
100
AcDbPolyline
 90
    5
 70
    1
 43
0
 10
-107.420561733
 20
-69.975222844
 10
-93.42109773269999
 20
-69.975222844
 10
-93.42109773269999
 20
-83.975931444
 10
-107.420561733
 20
-83.975931444
 10
-107.420561733
 20
-69.975222844
  0
LWPOLYLINE
  5
5B
100
AcDbEntity
  8
0
  6
ByLayer
 62
    0
370
   -1
100
AcDbPolyline
 90
    5
 70
    1
 43
0
 10
-105.039311733
 20
-89.02507044399999
 10
-91.03832373270001
 20
-89.02507044399999
 10
-91.03832373270001
 20
-103.025931444
 10
-105.039311733
 20
-103.025931444
 10
-105.039311733
 20
-89.02507044399999
  0
LWPOLYLINE
  5
5C
100
AcDbEntity
  8
0
  6
ByLayer
 62
    0
370
   -1
100
AcDbPolyline
 90
    5
 70
    1
 43
0
 10
-97.89530773270002
 20
-50.925222844
 10
-83.89609773270001
 20
-50.925222844
 10
-83.89609773270001
 20
-64.925702844
 10
-97.89530773270002
 20
-64.925702844
 10
-97.89530773270002
 20
-50.925222844
  0
LWPOLYLINE
  5
5D
100
AcDbEntity
  8
0
  6
ByLayer
 62
    0
370
   -1
100
AcDbPolyline
 90
    5
 70
    1
 43
0
 10
-88.36903773270001
 20
-69.975222844
 10
-74.36957373270002
 20
-69.975222844
 10
-74.36957373270002
 20
-83.975931444
 10
-88.36903773270001
 20
-83.975931444
 10
-88.36903773270001
 20
-69.975222844
  0
LWPOLYLINE
  5
5E
100
AcDbEntity
  8
0
  6
ByLayer
 62
    0
370
   -1
100
AcDbPolyline
 90
    5
 70
    1
 43
0
 10
-83.6078077327
 20
-31.875222844
 10
-69.60707373269997
 20
-31.875222844
 10
-69.60707373269997
 20
-45.875702844
 10
-83.6078077327
 20
-45.875702844
 10
-83.6078077327
 20
-31.875222844
  0
LWPOLYLINE
  5
5F
100
AcDbEntity
  8
0
  6
ByLayer
 62
    0
370
   -1
100
AcDbPolyline
 90
    5
 70
    1
 43
0
 10
-78.84530773270001
 20
-50.925222844
 10
-64.8460977327
 20
-50.925222844
 10
-64.8460977327
 20
-64.925702844
 10
-78.84530773270001
 20
-64.925702844
 10
-78.84530773270001
 20
-50.925222844
  0
LWPOLYLINE
  5
60
100
AcDbEntity
  8
0
  6
ByLayer
 62
    0
370
   -1
100
AcDbPolyline
 90
    5
 70
    1
 43
0
 10
-78.84530773270001
 20
-89.02507044399999
 10
-64.8460977327
 20
-89.02507044399999
 10
-64.8460977327
 20
-103.025931444
 10
-78.84530773270001
 20
-103.025931444
 10
-78.84530773270001
 20
-89.02507044399999
  0
LWPOLYLINE
  5
61
100
AcDbEntity
  8
0
  6
ByLayer
 62
    0
370
   -1
100
AcDbPolyline
 90
    5
 70
    1
 43
0
 10
-69.3190377327
 20
-69.975222844
 10
-55.31957373270001
 20
-69.975222844
 10
-55.31957373270001
 20
-83.975931444
 10
-69.3190377327
 20
-83.975931444
 10
-69.3190377327
 20
-69.975222844
  0
LWPOLYLINE
  5
62
100
AcDbEntity
  8
0
  6
ByLayer
 62
    0
370
   -1
100
AcDbPolyline
 90
    5
 70
    1
 43
0
 10
-64.55780773269998
 20
-31.875222844
 10
-50.55707373270002
 20
-31.875222844
 10
-50.55707373270002
 20
-45.875702844
 10
-64.55780773269998
 20
-45.875702844
 10
-64.55780773269998
 20
-31.875222844
  0
LWPOLYLINE
  5
63
100
AcDbEntity
  8
0
  6
ByLayer
 62
    0
370
   -1
100
AcDbPolyline
 90
    5
 70
    1
 43
0
 10
-59.7953077327
 20
-50.925222844
 10
-45.79609773269999
 20
-50.925222844
 10
-45.79609773269999
 20
-64.925702844
 10
-59.7953077327
 20
-64.925702844
 10
-59.7953077327
 20
-50.925222844
  0
LWPOLYLINE
  5
64
100
AcDbEntity
  8
0
  6
ByLayer
 62
    0
370
   -1
100
AcDbPolyline
 90
    5
 70
    1
 43
0
 10
-50.27030773270002
 20
-69.975222844
 10
-36.27109773270001
 20
-69.975222844
 10
-36.27109773270001
 20
-83.975931444
 10
-50.27030773270002
 20
-83.975931444
 10
-50.27030773270002
 20
-69.975222844
  0
LWPOLYLINE
  5
65
100
AcDbEntity
  8
0
  6
ByLayer
 62
    0
370
   -1
100
AcDbPolyline
 90
    7
 70
    1
 43
0
 10
-50.27310173270001
 20
-89.029210644
 10
-50.27310173270001
 20
-103.025931444
 10
-32.26348573270002
 20
-103.025931444
 10
-32.26348573270002
 20
-100.115523244
 10
-36.26830373270002
 20
-100.115523244
 10
-36.26830373270002
 20
-89.029210644
 10
-50.27310173270001
 20
-89.029210644
  0
LWPOLYLINE
  5
66
100
AcDbEntity
  8
0
  6
ByLayer
 62
    0
370
   -1
100
AcDbPolyline
 90
    9
 70
    1
 43
0
 10
-45.51060173270002
 20
-31.879286844
 10
-45.51060173270002
 20
-45.875702844
 10
-31.50580373269997
 20
-45.875702844
 10
-31.50580373269997
 20
-34.781236844
 10
-26.46060173270001
 20
-34.781236844
 10
-26.46060173270001
 20
-45.875702844
 10
-12.45580373270002
 20
-45.875702844
 10
-12.45580373270002
 20
-31.879286844
 10
-45.51060173270002
 20
-31.879286844
  0
LWPOLYLINE
  5
67
100
AcDbEntity
  8
0
  6
ByLayer
 62
    0
370
   -1
100
AcDbPolyline
 90
    5
 70
    1
 43
0
 10
-40.74530773269998
 20
-50.925222844
 10
-26.74609773269998
 20
-50.925222844
 10
-26.74609773269998
 20
-64.925702844
 10
-40.74530773269998
 20
-64.925702844
 10
-40.74530773269998
 20
-50.925222844
  0
LWPOLYLINE
  5
68
100
AcDbEntity
  8
0
  6
ByLayer
 62
    0
370
   -1
100
AcDbPolyline
 90
    5
 70
    1
 43
0
 10
-31.22030773270001
 20
-69.975222844
 10
-17.2210977327
 20
-69.975222844
 10
-17.2210977327
 20
-83.975931444
 10
-31.22030773270001
 20
-83.975931444
 10
-31.22030773270001
 20
-69.975222844
  0
LWPOLYLINE
  5
69
100
AcDbEntity
  8
0
  6
ByLayer
 62
    0
370
   -1
100
AcDbPolyline
 90
    5
 70
    1
 43
0
 10
-21.69530773270003
 20
-50.925222844
 10
-7.696097732709973
 20
-50.925222844
 10
-7.696097732709973
 20
-64.925702844
 10
-21.69530773270003
 20
-64.925702844
 10
-21.69530773270003
 20
-50.925222844
  0
LWPOLYLINE
  5
6A
100
AcDbEntity
  8
0
  6
ByLayer
 62
    0
370
   -1
100
AcDbPolyline
 90
    5
 70
    1
 43
0
 10
-21.69530773270003
 20
-89.02507044399999
 10
-7.696097732709973
 20
-89.02507044399999
 10
-7.696097732709973
 20
-103.025931444
 10
-21.69530773270003
 20
-103.025931444
 10
-21.69530773270003
 20
-89.02507044399999
  0
LWPOLYLINE
  5
6B
100
AcDbEntity
  8
0
  6
ByLayer
 62
    0
370
   -1
100
AcDbPolyline
 90
    5
 70
    1
 43
0
 10
-12.16903773270002
 20
-69.975222844
 10
1.830426267290022
 20
-69.975222844
 10
1.830426267290022
 20
-83.975931444
 10
-12.16903773270002
 20
-83.975931444
 10
-12.16903773270002
 20
-69.975222844
  0
LWPOLYLINE
  5
6C
100
AcDbEntity
  8
0
  6
ByLayer
 62
    0
370
   -1
100
AcDbPolyline
 90
    5
 70
    1
 43
0
 10
-7.407807732710012
 20
-31.875222844
 10
6.592926267290011
 20
-31.875222844
 10
6.592926267290011
 20
-45.875702844
 10
-7.407807732710012
 20
-45.875702844
 10
-7.407807732710012
 20
-31.875222844
  0
LWPOLYLINE
  5
6D
100
AcDbEntity
  8
0
  6
ByLayer
 62
    0
370
   -1
100
AcDbPolyline
 90
    5
 70
    1
 43
0
 10
-2.645307732710023
 20
-50.925222844
 10
11.35390226729999
 20
-50.925222844
 10
11.35390226729999
 20
-64.925702844
 10
-2.645307732710023
 20
-64.925702844
 10
-2.645307732710023
 20
-50.925222844
  0
LWPOLYLINE
  5
6E
100
AcDbEntity
  8
0
  6
ByLayer
 62
    0
370
   -1
100
AcDbPolyline
 90
    5
 70
    1
 43
0
 10
2.117192267290022
 20
-89.02507044399999
 10
16.11792626729999
 20
-89.02507044399999
 10
16.11792626729999
 20
-103.025931444
 10
2.117192267290022
 20
-103.025931444
 10
2.117192267290022
 20
-89.02507044399999
  0
LWPOLYLINE
  5
6F
100
AcDbEntity
  8
0
  6
ByLayer
 62
    0
370
   -1
100
AcDbPolyline
 90
    5
 70
    1
 43
0
 10
6.880962267289988
 20
-69.975222844
 10
20.88042626729998
 20
-69.975222844
 10
20.88042626729998
 20
-83.975931444
 10
6.880962267289988
 20
-83.975931444
 10
6.880962267289988
 20
-69.975222844
  0
LWPOLYLINE
  5
70
100
AcDbEntity
  8
0
  6
ByLayer
 62
    0
370
   -1
100
AcDbPolyline
 90
    5
 70
    1
 43
0
 10
11.6421922673
 20
-31.875222844
 10
25.64292626730003
 20
-31.875222844
 10
25.64292626730003
 20
-45.875702844
 10
11.6421922673
 20
-45.875702844
 10
11.6421922673
 20
-31.875222844
  0
LWPOLYLINE
  5
71
100
AcDbEntity
  8
0
  6
ByLayer
 62
    0
370
   -1
100
AcDbPolyline
 90
    5
 70
    1
 43
0
 10
16.40469226729999
 20
-50.925222844
 10
30.4039022673
 20
-50.925222844
 10
30.4039022673
 20
-64.925702844
 10
16.40469226729999
 20
-64.925702844
 10
16.40469226729999
 20
-50.925222844
  0
LWPOLYLINE
  5
72
100
AcDbEntity
  8
0
  6
ByLayer
 62
    0
370
   -1
100
AcDbPolyline
 90
    5
 70
    1
 43
0
 10
25.9309622673
 20
-89.02507044399999
 10
39.93042626729999
 20
-89.02507044399999
 10
39.93042626729999
 20
-103.025931444
 10
25.9309622673
 20
-103.025931444
 10
25.9309622673
 20
-89.02507044399999
  0
LWPOLYLINE
  5
73
100
AcDbEntity
  8
0
  6
ByLayer
 62
    0
370
   -1
100
AcDbPolyline
 90
    5
 70
    1
 43
0
 10
25.9309622673
 20
-69.975222844
 10
39.93042626729999
 20
-69.975222844
 10
39.93042626729999
 20
-83.975931444
 10
25.9309622673
 20
-83.975931444
 10
25.9309622673
 20
-69.975222844
  0
LWPOLYLINE
  5
74
100
AcDbEntity
  8
0
  6
ByLayer
 62
    0
370
   -1
100
AcDbPolyline
 90
    5
 70
    1
 43
0
 10
35.45596226730001
 20
-50.925222844
 10
49.4554262673
 20
-50.925222844
 10
49.4554262673
 20
-64.925702844
 10
35.45596226730001
 20
-64.925702844
 10
35.45596226730001
 20
-50.925222844
  0
LWPOLYLINE
  5
75
100
AcDbEntity
  8
0
  6
ByLayer
 62
    0
370
   -1
100
AcDbPolyline
 90
    5
 70
    1
 43
0
 10
44.98096226730001
 20
-69.975222844
 10
58.9804262673
 20
-69.975222844
 10
58.9804262673
 20
-83.975931444
 10
44.98096226730001
 20
-83.975931444
 10
44.98096226730001
 20
-69.975222844
  0
LWPOLYLINE
  5
76
100
AcDbEntity
  8
0
  6
ByLayer
 62
    0
370
   -1
100
AcDbPolyline
 90
    7
 70
    1
 43
0
 10
54.50189826729999
 20
-89.029210644
 10
54.50189826729999
 20
-100.115523244
 10
50.50698626729999
 20
-100.115523244
 10
50.50698626729999
 20
-103.025931444
 10
68.50669626730001
 20
-103.025931444
 10
68.50669626730001
 20
-89.029210644
 10
54.50189826729999
 20
-89.029210644
  0
LWPOLYLINE
  5
77
100
AcDbEntity
  8
0
  6
ByLayer
 62
    0
370
   -1
100
AcDbPolyline
 90
    5
 70
    1
 43
0
 10
54.50596226729999
 20
-50.925222844
 10
68.50542626729998
 20
-50.925222844
 10
68.50542626729998
 20
-64.925702844
 10
54.50596226729999
 20
-64.925702844
 10
54.50596226729999
 20
-50.925222844
  0
LWPOLYLINE
  5
78
100
AcDbEntity
  8
0
  6
ByLayer
 62
    0
370
   -1
100
AcDbPolyline
 90
    5
 70
    1
 43
0
 10
64.0309622673
 20
-69.975222844
 10
78.03042626730002
 20
-69.975222844
 10
78.03042626730002
 20
-83.975931444
 10
64.0309622673
 20
-83.975931444
 10
64.0309622673
 20
-69.975222844
  0
LWPOLYLINE
  5
79
100
AcDbEntity
  8
0
  6
ByLayer
 62
    0
370
   -1
100
AcDbPolyline
 90
    5
 70
    1
 43
0
 10
68.79219226729998
 20
-31.875222844
 10
82.7929262673
 20
-31.875222844
 10
82.7929262673
 20
-45.875702844
 10
68.79219226729998
 20
-45.875702844
 10
68.79219226729998
 20
-31.875222844
  0
LWPOLYLINE
  5
7A
100
AcDbEntity
  8
0
  6
ByLayer
 62
    0
370
   -1
100
AcDbPolyline
 90
    5
 70
    1
 43
0
 10
73.5559622673
 20
-50.925222844
 10
87.55542626729999
 20
-50.925222844
 10
87.55542626729999
 20
-64.925702844
 10
73.5559622673
 20
-64.925702844
 10
73.5559622673
 20
-50.925222844
  0
LWPOLYLINE
  5
7B
100
AcDbEntity
  8
0
  6
ByLayer
 62
    0
370
   -1
100
AcDbPolyline
 90
    5
 70
    1
 43
0
 10
83.0796922673
 20
-89.02507044399999
 10
97.07890226730001
 20
-89.02507044399999
 10
97.07890226730001
 20
-103.025931444
 10
83.0796922673
 20
-103.025931444
 10
83.0796922673
 20
-89.02507044399999
  0
LWPOLYLINE
  5
7C
100
AcDbEntity
  8
0
  6
ByLayer
 62
    0
370
   -1
100
AcDbPolyline
 90
    5
 70
    1
 43
0
 10
83.08096226729998
 20
-69.975222844
 10
97.0804262673
 20
-69.975222844
 10
97.0804262673
 20
-83.975931444
 10
83.08096226729998
 20
-83.975931444
 10
83.08096226729998
 20
-69.975222844
  0
LWPOLYLINE
  5
7D
100
AcDbEntity
  8
0
  6
ByLayer
 62
    0
370
   -1
100
AcDbPolyline
 90
    5
 70
    1
 43
0
 10
87.84219226729999
 20
-31.875222844
 10
101.842926267
 20
-31.875222844
 10
101.842926267
 20
-45.875702844
 10
87.84219226729999
 20
-45.875702844
 10
87.84219226729999
 20
-31.875222844
  0
LWPOLYLINE
  5
7E
100
AcDbEntity
  8
0
  6
ByLayer
 62
    0
370
   -1
100
AcDbPolyline
 90
    5
 70
    1
 43
0
 10
92.60596226730001
 20
-50.925222844
 10
106.605426267
 20
-50.925222844
 10
106.605426267
 20
-64.925702844
 10
92.60596226730001
 20
-64.925702844
 10
92.60596226730001
 20
-50.925222844
  0
LWPOLYLINE
  5
7F
100
AcDbEntity
  8
0
  6
ByLayer
 62
    0
370
   -1
100
AcDbPolyline
 90
    5
 70
    1
 43
0
 10
106.892192267
 20
-31.875222844
 10
120.893180267
 20
-31.875222844
 10
120.893180267
 20
-45.875702844
 10
106.892192267
 20
-45.875702844
 10
106.892192267
 20
-31.875222844
  0
LWPOLYLINE
  5
80
100
AcDbEntity
  8
0
  6
ByLayer
 62
    0
370
   -1
100
AcDbPolyline
 90
    5
 70
    1
 43
0
 10
109.273442267
 20
-89.02507044399999
 10
123.273160267
 20
-89.02507044399999
 10
123.273160267
 20
-103.025931444
 10
109.273442267
 20
-103.025931444
 10
109.273442267
 20
-89.02507044399999
  0
LWPOLYLINE
  5
81
100
AcDbEntity
  8
0
  6
ByLayer
 62
    0
370
   -1
100
AcDbPolyline
 90
    5
 70
    1
 43
0
 10
111.655962267
 20
-50.925222844
 10
125.655680267
 20
-50.925222844
 10
125.655680267
 20
-64.925702844
 10
111.655962267
 20
-64.925702844
 10
111.655962267
 20
-50.925222844
  0
LWPOLYLINE
  5
82
100
AcDbEntity
  8
0
  6
ByLayer
 62
    0
370
   -1
100
AcDbPolyline
 90
    5
 70
    1
 43
0
 10
133.085180267
 20
-89.02507044399999
 10
147.085660267
 20
-89.02507044399999
 10
147.085660267
 20
-103.025931444
 10
133.085180267
 20
-103.025931444
 10
133.085180267
 20
-89.02507044399999
  0
LWPOLYLINE
  5
83
100
AcDbEntity
  8
0
  6
ByLayer
 62
    0
370
   -1
100
AcDbPolyline
 90
    5
 70
    1
 43
0
 10
133.085180267
 20
-41.400222844
 10
147.085660267
 20
-41.400222844
 10
147.085660267
 20
-55.400702844
 10
133.085180267
 20
-55.400702844
 10
133.085180267
 20
-41.400222844
  0
LWPOLYLINE
  5
84
100
AcDbEntity
  8
0
  6
ByLayer
 62
    0
370
   -1
100
AcDbPolyline
 90
    9
 70
    1
 43
0
 10
30.69752626729999
 20
-31.879286844
 10
30.69752626729999
 20
-45.875702844
 10
44.7025782673
 20
-45.875702844
 10
44.7025782673
 20
-34.781236844
 10
49.7475262673
 20
-34.781236844
 10
49.7475262673
 20
-45.875702844
 10
63.75257826730001
 20
-45.875702844
 10
63.75257826730001
 20
-31.879286844
 10
30.69752626729999
 20
-31.879286844
  0
CIRCLE
  5
85
100
AcDbEntity
  8
0
  6
ByLayer
 62
  256
370
   -1
100
AcDbCircle
 10
-48.02219426385807
 20
-47.84195723118399
 40
1.048298635451675
  0
CIRCLE
  5
86
100
AcDbEntity
  8
0
  6
ByLayer
 62
  256
370
   -1
100
AcDbCircle
 10
9.126842918630985
 20
-47.840900844
 40
1.048525758885188
  0
CIRCLE
  5
87
100
AcDbEntity
  8
0
  6
ByLayer
 62
  256
370
   -1
100
AcDbCircle
 10
47.22779828300082
 20
-96.0320130554626
 40
1.048306054625576
  0
CIRCLE
  5
88
100
AcDbEntity
  8
0
  6
ByLayer
 62
  256
370
   -1
100
AcDbCircle
 10
66.27780573614194
 20
-47.841957231184
 40
1.048298635451681
  0
CIRCLE
  5
89
100
AcDbEntity
  8
0
  6
ByLayer
 62
  256
370
   -1
100
AcDbCircle
 10
101.9944283294291
 20
-76.98105084400001
 40
1.048630831479778
  0
CIRCLE
  5
8A
100
AcDbEntity
  8
0
  6
ByLayer
 62
  256
370
   -1
100
AcDbCircle
 10
130.5703786920936
 20
-38.88099760354501
 40
1.048819259825556
  0
CIRCLE
  5
8B
100
AcDbEntity
  8
0
  6
ByLayer
 62
  256
370
   -1
100
AcDbCircle
 10
128.1912397901902
 20
-96.03208757142863
 40
1.048380522486605
  0
LINE
  5
8C
100
AcDbEntity
  8
0
  6
ByLayer
 62
    0
370
   -1
100
AcDbLine
 10
152.493320267
 20
-29.850842844
 11
152.493320267
 21
-105.050273344
  0
LINE
  5
8D
100
AcDbEntity
  8
0
  6
ByLayer
 62
    0
370
   -1
100
AcDbLine
 10
-133.257258853
 20
-28.850336844
 11
151.492560267
 21
-28.85033684399998
  0
ARC
  5
8E
100
AcDbEntity
  8
0
  6
ByLayer
 62
  256
370
   -1
100
AcDbCircle
 10
151.492560267
 20
-29.850336844
 40
1
100
AcDbArc
 50
359.9710303549673
 51
90.00000000000163
  0
ARC
  5
8F
100
AcDbEntity
  8
0
  6
ByLayer
 62
  256
370
   -1
100
AcDbCircle
 10
151.492560267
 20
-105.050727782
 40
1
100
AcDbArc
 50
270.000102224914
 51
0.02601760428101315
  0
LINE
  5
90
100
AcDbEntity
  8
0
  6
ByLayer
 62
    0
370
   -1
100
AcDbLine
 10
151.4925584828387
 20
-106.050727782
 11
-133.257258853
 21
-106.050727782
  0
ARC
  5
91
100
AcDbEntity
  8
0
  6
ByLayer
 62
  256
370
   -1
100
AcDbCircle
 10
-133.257713037
 20
-29.850842844
 40
1
100
AcDbArc
 50
89.97399033635465
 51
180.0000000000008
  0
ARC
  5
92
100
AcDbEntity
  8
0
  6
ByLayer
 62
  256
370
   -1
100
AcDbCircle
 10
-133.257713037
 20
-105.050273344
 40
1
100
AcDbArc
 50
180
 51
270.0260110041463
  0
LINE
  5
93
100
AcDbEntity
  8
0
  6
ByLayer
 62
    0
370
   -1
100
AcDbLine
 10
-134.257713037
 20
-105.050273344
 11
-134.257713037
 21
-29.85084284400001
  0
LINE
  5
94
100
AcDbEntity
  8
0
  6
ByLayer
 62
    0
370
   -1
100
AcDbLine
 10
133.636360267
 20
-34.800794844
 11
133.636360267
 21
-34.800794844
  0
LINE
  5
95
100
AcDbEntity
  8
0
  6
ByLayer
 62
    0
370
   -1
100
AcDbLine
 10
133.636360267
 20
-58.699908844
 11
133.636360267
 21
-58.699908844
  0
LINE
  5
96
100
AcDbEntity
  8
0
  6
ByLayer
 62
    0
370
   -1
100
AcDbLine
 10
134.036360267
 20
-61.850130844
 11
134.036360267
 21
-58.699908844
  0
LINE
  5
97
100
AcDbEntity
  8
0
  6
ByLayer
 62
    0
370
   -1
100
AcDbLine
 10
134.036360267
 20
-58.699908844
 11
147.434960267
 21
-58.69990884400001
  0
LINE
  5
98
100
AcDbEntity
  8
0
  6
ByLayer
 62
    0
370
   -1
100
AcDbLine
 10
147.434960267
 20
-58.69990884400001
 11
147.434960267
 21
-61.850130844
  0
LINE
  5
99
100
AcDbEntity
  8
0
  6
ByLayer
 62
    0
370
   -1
100
AcDbLine
 10
147.434960267
 20
-61.850130844
 11
134.036360267
 21
-61.850130844
  0
LINE
  5
9A
100
AcDbEntity
  8
0
  6
ByLayer
 62
    0
370
   -1
100
AcDbLine
 10
147.434960267
 20
-34.950794844
 11
147.434960267
 21
-38.099492844
  0
LINE
  5
9B
100
AcDbEntity
  8
0
  6
ByLayer
 62
    0
370
   -1
100
AcDbLine
 10
147.434960267
 20
-38.099492844
 11
134.036360267
 21
-38.099492844
  0
LINE
  5
9C
100
AcDbEntity
  8
0
  6
ByLayer
 62
    0
370
   -1
100
AcDbLine
 10
134.036360267
 20
-34.950794844
 11
147.434960267
 21
-34.950794844
  0
LINE
  5
9D
100
AcDbEntity
  8
0
  6
ByLayer
 62
    0
370
   -1
100
AcDbLine
 10
134.036360267
 20
-38.099492844
 11
134.036360267
 21
-34.950794844
  0
CIRCLE
  5
9E
100
AcDbEntity
  8
0
  6
ByLayer
 62
  256
370
   -1
100
AcDbCircle
 10
142.4786729335471
 20
-67.07575206951718
 40
1.048447381913676
  0
CIRCLE
  5
9F
100
AcDbEntity
  8
0
  6
ByLayer
 62
  256
370
   -1
100
AcDbCircle
 10
-3
 20
-96
 40
1.048306054625586
  0
CIRCLE
  5
A0
100
AcDbEntity
  8
0
  6
ByLayer
 62
  256
370
   -1
100
AcDbCircle
 10
-110
 20
-88
 40
1.048306013010765
  0
CIRCLE
  5
A1
100
AcDbEntity
  8
0
  6
ByLayer
 62
  256
370
   -1
100
AcDbCircle
 10
-102
 20
-50
 40
1.048306013010765
  0
CIRCLE
  5
A2
100
AcDbEntity
  8
0
  6
ByLayer
 62
  256
370
   -1
100
AcDbCircle
 10
-71.83603221824217
 20
-68.02185435845782
 40
1.048149695755616
  0
CIRCLE
  5
A3
100
AcDbEntity
  8
0
  6
ByLayer
 62
  256
370
   -1
100
AcDbCircle
 10
-86.13207373270001
 20
-38.875462844
 40
1.5
  0
CIRCLE
  5
A4
100
AcDbEntity
  8
0
  6
ByLayer
 62
  256
370
   -1
100
AcDbCircle
 10
-48.03207373269998
 20
-38.875462844
 40
1.5
  0
CIRCLE
  5
A5
100
AcDbEntity
  8
0
  6
ByLayer
 62
  256
370
   -1
100
AcDbCircle
 10
-9.930803732699985
 20
-38.875462844
 40
1.5
  0
CIRCLE
  5
A6
100
AcDbEntity
  8
0
  6
ByLayer
 62
  256
370
   -1
100
AcDbCircle
 10
28.1679262673
 20
-38.875462844
 40
1.5
  0
CIRCLE
  5
A7
100
AcDbEntity
  8
0
  6
ByLayer
 62
  256
370
   -1
100
AcDbCircle
 10
66.27757826729999
 20
-38.875462844
 40
1.5
  0
CIRCLE
  5
A8
100
AcDbEntity
  8
0
  6
ByLayer
 62
  256
370
   -1
100
AcDbCircle
 10
104.367926267
 20
-38.875462844
 40
1.5
  0
CIRCLE
  5
A9
100
AcDbEntity
  8
0
  6
ByLayer
 62
  256
370
   -1
100
AcDbCircle
 10
-109.945945333
 20
-96.02550094399999
 40
1.5
  0
LINE
  5
AA
100
AcDbEntity
  8
0
  6
ByLayer
 62
    0
370
   -1
100
AcDbLine
 10
106.889398267
 20
-69.979286844
 11
106.889398267
 21
-83.975931444
  0
LINE
  5
AB
100
AcDbEntity
  8
0
  6
ByLayer
 62
    0
370
   -1
100
AcDbLine
 10
106.889398267
 20
-83.975931444
 11
120.893180267
 21
-83.975931444
  0
LINE
  5
AC
100
AcDbEntity
  8
0
  6
ByLayer
 62
    0
370
   -1
100
AcDbLine
 10
106.889398267
 20
-69.979286844
 11
106.889398267
 21
-69.979286844
  0
LINE
  5
AD
100
AcDbEntity
  8
0
  6
ByLayer
 62
    0
370
   -1
100
AcDbLine
 10
133.082640267
 20
-83.975931444
 11
147.088200267
 21
-83.975931444
  0
LINE
  5
AE
100
AcDbEntity
  8
0
  6
ByLayer
 62
    0
370
   -1
100
AcDbLine
 10
147.088200267
 20
-83.975931444
 11
147.088200267
 21
-69.979286844
  0
LINE
  5
AF
100
AcDbEntity
  8
0
  6
ByLayer
 62
    0
370
   -1
100
AcDbLine
 10
147.088200267
 20
-69.979286844
 11
133.082640267
 21
-69.979286844
  0
LINE
  5
B0
100
AcDbEntity
  8
0
  6
ByLayer
 62
    0
370
   -1
100
AcDbLine
 10
133.082640267
 20
-83.975931444
 11
133.082640267
 21
-69.979286844
  0
LINE
  5
B1
100
AcDbEntity
  8
0
  6
ByLayer
 62
    0
370
   -1
100
AcDbLine
 10
120.893180267
 20
-69.979286844
 11
106.889398267
 21
-69.979286844
  0
LINE
  5
B2
100
AcDbEntity
  8
0
  6
ByLayer
 62
    0
370
   -1
100
AcDbLine
 10
120.893180267
 20
-69.979286844
 11
120.893180267
 21
-83.975931444
  0
LINE
  5
B3
100
AcDbEntity
  8
0
  6
ByLayer
 62
  256
370
   -1
100
AcDbLine
 10
-112.469573733
 20
-40.125702844
 11
-110.469573733
 21
-40.125702844
  0
LINE
  5
B4
100
AcDbEntity
  8
0
  6
ByLayer
 62
  256
370
   -1
100
AcDbLine
 10
-102.658061733
 20
-40.125702844
 11
-104.658061733
 21
-40.125702844
  0
LINE
  5
B5
100
AcDbEntity
  8
0
  6
ByLayer
 62
  256
370
   -1
100
AcDbLine
 10
-112.469573733
 20
-37.625702844
 11
-110.469573733
 21
-37.625702844
  0
LINE
  5
B6
100
AcDbEntity
  8
0
  6
ByLayer
 62
  256
370
   -1
100
AcDbLine
 10
-102.658061733
 20
-37.625702844
 11
-104.658061733
 21
-37.625702844
  0
LINE
  5
B7
100
AcDbEntity
  8
0
  6
ByLayer
 62
  256
370
   -1
100
AcDbLine
 10
-110.469573733
 20
-37.625702844
 11
-110.469573733
 21
-40.125702844
  0
LINE
  5
B8
100
AcDbEntity
  8
0
  6
ByLayer
 62
  256
370
   -1
100
AcDbLine
 10
-104.658061733
 20
-37.625702844
 11
-104.658061733
 21
-40.125702844
  0
LINE
  5
B9
100
AcDbEntity
  8
0
  6
ByLayer
 62
    0
370
   -1
100
AcDbLine
 10
-126.469012333
 20
-31.875222844
 11
-112.469573733
 21
-31.875222844
  0
LINE
  5
BA
100
AcDbEntity
  8
0
  6
ByLayer
 62
    0
370
   -1
100
AcDbLine
 10
-112.469573733
 20
-45.875702844
 11
-126.469012333
 21
-45.875702844
  0
LINE
  5
BB
100
AcDbEntity
  8
0
  6
ByLayer
 62
    0
370
   -1
100
AcDbLine
 10
-126.469012333
 20
-45.875702844
 11
-126.469012333
 21
-31.875222844
  0
LINE
  5
BC
100
AcDbEntity
  8
0
  6
ByLayer
 62
    0
370
   -1
100
AcDbLine
 10
-126.469012333
 20
-31.875222844
 11
-126.469012333
 21
-31.875222844
  0
LINE
  5
BD
100
AcDbEntity
  8
0
  6
ByLayer
 62
    0
370
   -1
100
AcDbLine
 10
-102.658061733
 20
-31.875222844
 11
-88.65707373269998
 21
-31.875222844
  0
LINE
  5
BE
100
AcDbEntity
  8
0
  6
ByLayer
 62
    0
370
   -1
100
AcDbLine
 10
-88.65707373269998
 20
-31.875222844
 11
-88.65707373269998
 21
-45.875702844
  0
LINE
  5
BF
100
AcDbEntity
  8
0
  6
ByLayer
 62
    0
370
   -1
100
AcDbLine
 10
-88.65707373269998
 20
-45.875702844
 11
-102.658061733
 21
-45.875702844
  0
LINE
  5
C0
100
AcDbEntity
  8
0
  6
ByLayer
 62
    0
370
   -1
100
AcDbLine
 10
-102.658061733
 20
-31.875222844
 11
-102.658061733
 21
-31.875222844
  0
LINE
  5
C1
100
AcDbEntity
  8
0
  6
ByLayer
 62
    0
370
   -1
100
AcDbLine
 10
-112.469573733
 20
-31.875222844
 11
-112.469573733
 21
-37.625702844
  0
LINE
  5
C2
100
AcDbEntity
  8
0
  6
ByLayer
 62
    0
370
   -1
100
AcDbLine
 10
-112.469573733
 20
-40.125702844
 11
-112.469573733
 21
-45.875702844
  0
LINE
  5
C3
100
AcDbEntity
  8
0
  6
ByLayer
 62
    0
370
   -1
100
AcDbLine
 10
-102.658061733
 20
-45.875702844
 11
-102.658061733
 21
-40.125702844
  0
LINE
  5
C4
100
AcDbEntity
  8
0
  6
ByLayer
 62
    0
370
   -1
100
AcDbLine
 10
-102.658061733
 20
-37.625702844
 11
-102.658061733
 21
-31.875222844
  0
CIRCLE
  5
C5
100
AcDbEntity
  8
0
  6
ByLayer
 62
  256
370
   -1
100
AcDbCircle
 10
-86.13207373270001
 20
-96.02550094399999
 40
1.5
  0
ENDBLK
  5
56
330
54
100
AcDbEntity
  8
0
100
AcDbBlockEnd
  0
ENDSEC
  0
SECTION
  2
ENTITIES
  0
LWPOLYLINE
  5
C6
100
AcDbEntity
  8
helper-bottom
  6
ByLayer
 62
    0
370
   -1
100
AcDbPolyline
 90
    5
 70
    1
 43
0
 10
101.4947166917414
 20
5.435081915634314
 10
98.49624669174136
 20
5.435081915634314
 10
98.49624669174136
 20
2.524673715634307
 10
101.4947166917414
 20
2.524673715634307
 10
101.4947166917414
 20
5.435081915634314
  0
LWPOLYLINE
  5
C7
100
AcDbEntity
  8
helper-bottom
  6
ByLayer
 62
    0
370
   -1
100
AcDbPolyline
 90
    5
 70
    1
 43
0
 10
106.3191926917414
 20
73.67131831563437
 10
103.3204686917413
 20
73.67131831563437
 10
103.3204686917413
 20
70.76936831563431
 10
106.3191926917414
 20
70.76936831563431
 10
106.3191926917414
 20
73.67131831563437
  0
LWPOLYLINE
  5
C8
100
AcDbEntity
  8
helper-bottom
  6
ByLayer
 62
    0
370
   -1
100
AcDbPolyline
 90
    5
 70
    1
 43
0
 10
187.2639126917413
 20
5.435081915634314
 10
184.2651886917413
 20
5.435081915634314
 10
184.2651886917413
 20
2.524673715634307
 10
187.2639126917413
 20
2.524673715634307
 10
187.2639126917413
 20
5.435081915634314
  0
LWPOLYLINE
  5
C9
100
AcDbEntity
  8
helper-bottom
  6
ByLayer
 62
    0
370
   -1
100
AcDbPolyline
 90
    5
 70
    1
 43
0
 10
182.5191926917414
 20
73.67131831563437
 10
179.5204686917414
 20
73.67131831563437
 10
179.5204686917414
 20
70.76936831563431
 10
182.5191926917414
 20
70.76936831563431
 10
182.5191926917414
 20
73.67131831563437
  0
LWPOLYLINE
  5
CA
100
AcDbEntity
  8
helper-bottom
  6
ByLayer
 62
    0
370
   -1
100
AcDbPolyline
 90
   85
 70
    1
 43
0
 10
286.1035839517412
 20
76.22224031563438
 10
286.1421690917414
 20
76.15442231563428
 10
286.1752419217412
 20
76.08279431563436
 10
286.2014247517413
 20
76.00989631563435
 10
286.2234732217412
 20
75.93293431563437
 10
286.2386319417412
 20
75.85698831563433
 10
286.2482778417413
 20
75.77850231563433
 10
286.2510339917412
 20
75.69976231563429
 10
286.2510339917412
 20
0.5003318156343388
 10
286.2482778417413
 20
0.4217848556343
 10
286.2386319417412
 20
0.3446145756342807
 10
286.2234732217412
 20
0.2674442956343759
 10
286.2014247517413
 20
0.1916506956343786
 10
286.1752419217412
 20
0.1172388556343398
 10
286.1421690917414
 20
0.04695959563433405
 10
286.1035839517412
 20
-0.02194044436568321
 10
286.0594859917412
 20
-0.08808712436565713
 10
286.0112564717413
 20
-0.1487220043657231
 10
285.9575100717414
 20
-0.2065984443656963
 10
285.8996336317414
 20
-0.260344844365719
 10
285.8390012917414
 20
-0.3085743643656693
 10
285.7728571517414
 20
-0.3526713043657002
 10
285.7053312517412
 20
-0.3912574603656513
 10
285.6336753117414
 20
-0.4243305463657103
 10
285.5606350717412
 20
-0.4505133743656562
 10
285.4834647917412
 20
-0.4711836403656813
 10
285.4076737317414
 20
-0.4877203103657313
 10
285.3291242317414
 20
-0.4973664683656271
 10
285.2505798117413
 20
-0.5001226223656801
 10
0.5007606917411067
 20
-0.5001226223656801
 10
0.4220206917412099
 20
-0.4973664683656271
 10
0.3458206917412099
 20
-0.4877203103657313
 10
0.2670806917413131
 20
-0.4711836403656813
 10
0.1934206917413235
 20
-0.4505133743656562
 10
0.1172206917413234
 20
-0.4243305463657103
 10
0.04864069174121255
 20
-0.3912574603656513
 10
-0.01993930825889834
 20
-0.3526713043657002
 10
-0.0885193082585829
 20
-0.3085743643656693
 10
-0.1469393082588795
 20
-0.260344844365719
 10
-0.2053593082586929
 20
-0.2065984443656963
 10
-0.2586993082586844
 20
-0.1487220043657231
 10
-0.3069593082586834
 20
-0.08808712436565713
 10
-0.3526793082587858
 20
-0.02194044436568321
 10
-0.3907793082584874
 20
0.04695959563433405
 10
-0.4237993082587934
 20
0.1172388556343398
 10
-0.449199308258784
 20
0.1916506956343786
 10
-0.4695193082588958
 20
0.2674442956343759
 10
-0.4872993082585992
 20
0.3446145756342807
 10
-0.4974593082588967
 20
0.4217848556343
 10
-0.4999993082587935
 20
0.5003318156343388
 10
-0.4999993082587935
 20
75.69976231563429
 10
-0.4974593082588967
 20
75.77850231563433
 10
-0.4872993082585992
 20
75.85698831563433
 10
-0.4695193082588958
 20
75.93293431563437
 10
-0.449199308258784
 20
76.00989631563435
 10
-0.4237993082587934
 20
76.08279431563436
 10
-0.3907793082584874
 20
76.15442231563428
 10
-0.3526793082587858
 20
76.22224031563438
 10
-0.3069593082586834
 20
76.28828031563431
 10
-0.2586993082586844
 20
76.34873231563436
 10
-0.2053593082586929
 20
76.40664431563435
 10
-0.1469393082588795
 20
76.4607463156343
 10
-0.0885193082585829
 20
76.50875231563428
 10
-0.01993930825889834
 20
76.5526943156343
 10
0.04864069174121255
 20
76.59155631563429
 10
0.1172206917413234
 20
76.6248303156343
 10
0.1934206917413235
 20
76.65073831563437
 10
0.2670806917413131
 20
76.67258231563436
 10
0.3458206917412099
 20
76.68782231563431
 10
0.4220206917412099
 20
76.69772831563431
 10
0.5007606917411067
 20
76.70026831563437
 10
285.2505798117413
 20
76.70026831563437
 10
285.3291242317414
 20
76.69772831563431
 10
285.4076737317414
 20
76.68782231563431
 10
285.4834647917412
 20
76.67258231563436
 10
285.5606350717412
 20
76.65073831563437
 10
285.6336753117414
 20
76.6248303156343
 10
285.7053312517412
 20
76.59155631563429
 10
285.7728571517414
 20
76.5526943156343
 10
285.8390012917414
 20
76.50875231563428
 10
285.8996336317414
 20
76.4607463156343
 10
285.9575100717414
 20
76.40664431563435
 10
286.0112564717413
 20
76.34873231563436
 10
286.0594859917412
 20
76.28828031563431
 10
286.1035839517412
 20
76.22224031563438
  0
LINE
  5
CB
100
AcDbEntity
  8
plate-support
  6
ByLayer
 62
  256
370
   -1
100
AcDbLine
 10
1.500000691741207
 20
74.70026831563437
 11
284.2510339917412
 21
74.70026831563437
  0
LINE
  5
CC
100
AcDbEntity
  8
plate-support
  6
ByLayer
 62
  256
370
   -1
100
AcDbLine
 10
284.2510339917412
 20
74.70026831563437
 11
284.2510339917412
 21
1.499877377634319
  0
LINE
  5
CD
100
AcDbEntity
  8
plate-support
  6
ByLayer
 62
  256
370
   -1
100
AcDbLine
 10
284.2510339917412
 20
1.499877377634319
 11
1.500000691741207
 21
1.499877377634319
  0
LINE
  5
CE
100
AcDbEntity
  8
plate-support
  6
ByLayer
 62
  256
370
   -1
100
AcDbLine
 10
1.500000691741207
 20
1.499877377634319
 11
1.500000691741207
 21
74.70026831563437
  0
LINE
  5
CF
100
AcDbEntity
  8
plate-support
  6
ByLayer
 62
  256
370
   -1
100
AcDbLine
 10
103.4204686917412
 20
74.70026831563437
 11
103.4204686917412
 21
74.70026831563437
  0
LINE
  5
D0
100
AcDbEntity
  8
plate-support
  6
ByLayer
 62
  256
370
   -1
100
AcDbLine
 10
103.4204686917412
 20
74.70026831563437
 11
106.2191926917412
 21
74.70026831563437
  0
LINE
  5
D1
100
AcDbEntity
  8
plate-support
  6
ByLayer
 62
  256
370
   -1
100
AcDbLine
 10
179.6204686917413
 20
74.70026831563437
 11
182.4191926917413
 21
74.70026831563437
  0
LINE
  5
D2
100
AcDbEntity
  8
plate-support
  6
ByLayer
 62
  256
370
   -1
100
AcDbLine
 10
187.1639126917412
 20
1.499877377634319
 11
184.3651886917412
 21
1.499877377634319
  0
LINE
  5
D3
100
AcDbEntity
  8
plate-support
  6
ByLayer
 62
  256
370
   -1
100
AcDbLine
 10
101.3949706917424
 20
1.499877377634319
 11
98.59624669174127
 21
1.499877377634319
  0
ARC
  5
D4
100
AcDbEntity
  8
plate-support
  6
ByLayer
 62
  256
370
   -1
100
AcDbCircle
 10
285.7510348102231
 20
76.20016363916943
 40
0.7
100
AcDbArc
 50
359.9999062840099
 51
89.99997897452911
  0
LINE
  5
D5
100
AcDbEntity
  8
plate-support
  6
ByLayer
 62
  256
370
   -1
100
AcDbLine
 10
286.4510348102221
 20
76.20016249421262
 11
286.4509101730262
 21
-0.0001239824024712455
  0
ARC
  5
D6
100
AcDbEntity
  8
plate-support
  6
ByLayer
 62
  256
370
   -1
100
AcDbCircle
 10
285.7509101730271
 20
-0.0001228374456543335
 40
0.7
100
AcDbArc
 50
269.9999753699218
 51
359.9999062840095
  0
LINE
  5
D7
100
AcDbEntity
  8
plate-support
  6
ByLayer
 62
  256
370
   -1
100
AcDbLine
 10
285.7509098721139
 20
-0.7001228374455892
 11
-3.009130864484177e-07
 21
-0.6999999999999362
  0
ARC
  5
D8
100
AcDbEntity
  8
plate-support
  6
ByLayer
 62
  256
370
   -1
100
AcDbCircle
 10
0
 20
0
 40
0.7
100
AcDbArc
 50
179.9999207847722
 51
269.9999753699241
  0
LINE
  5
D9
100
AcDbEntity
  8
plate-support
  6
ByLayer
 62
  256
370
   -1
100
AcDbLine
 10
-0.6999999999992781
 20
9.67796579764979e-07
 11
-0.6998946480574944
 21
76.20026946715321
  0
LINE
  5
DA
100
AcDbEntity
  8
plate-support
  6
ByLayer
 62
  256
370
   -1
100
AcDbLine
 10
0.0001056088163124969
 20
76.90026849935659
 11
285.7510350670977
 21
76.90016363916939
  0
ARC
  5
DB
100
AcDbEntity
  8
plate-support
  6
ByLayer
 62
  256
370
   -1
100
AcDbCircle
 10
0.0001053519418121596
 20
76.20026849935664
 40
0.7
100
AcDbArc
 50
89.99997897453611
 51
179.9999207847733
  0
ARC
  5
DC
100
AcDbEntity
  8
outline
  6
ByLayer
 62
  256
370
   -1
100
AcDbCircle
 10
285.7510348102231
 20
76.20016363916943
 40
0.7
100
AcDbArc
 50
359.9999062840099
 51
89.99997897452911
  0
LINE
  5
DD
100
AcDbEntity
  8
outline
  6
ByLayer
 62
  256
370
   -1
100
AcDbLine
 10
286.4510348102221
 20
76.20016249421262
 11
286.4509101730262
 21
-0.0001239824024712455
  0
ARC
  5
DE
100
AcDbEntity
  8
outline
  6
ByLayer
 62
  256
370
   -1
100
AcDbCircle
 10
285.7509101730271
 20
-0.0001228374456543335
 40
0.7
100
AcDbArc
 50
269.9999753699218
 51
359.9999062840095
  0
LINE
  5
DF
100
AcDbEntity
  8
outline
  6
ByLayer
 62
  256
370
   -1
100
AcDbLine
 10
285.7509098721139
 20
-0.7001228374455892
 11
-3.009130864484177e-07
 21
-0.6999999999999362
  0
ARC
  5
E0
100
AcDbEntity
  8
outline
  6
ByLayer
 62
  256
370
   -1
100
AcDbCircle
 10
0
 20
0
 40
0.7
100
AcDbArc
 50
179.9999207847722
 51
269.9999753699241
  0
LINE
  5
E1
100
AcDbEntity
  8
outline
  6
ByLayer
 62
  256
370
   -1
100
AcDbLine
 10
-0.6999999999992781
 20
9.67796579764979e-07
 11
-0.6998946480574944
 21
76.20026946715321
  0
LINE
  5
E2
100
AcDbEntity
  8
outline
  6
ByLayer
 62
  256
370
   -1
100
AcDbLine
 10
0.0001056088163124969
 20
76.90026849935659
 11
285.7510350670977
 21
76.90016363916939
  0
ARC
  5
E3
100
AcDbEntity
  8
outline
  6
ByLayer
 62
  256
370
   -1
100
AcDbCircle
 10
0.0001053519418121596
 20
76.20026849935664
 40
0.7
100
AcDbArc
 50
89.99997897453611
 51
179.9999207847733
  0
LINE
  5
E4
100
AcDbEntity
  8
plate-support
  6
ByLayer
 62
  256
370
   -1
100
AcDbLine
 10
21.78844581174121
 20
74.70026831563437
 11
21.78844581174121
 21
72.20026831563437
  0
LINE
  5
E5
100
AcDbEntity
  8
plate-support
  6
ByLayer
 62
  256
370
   -1
100
AcDbLine
 10
30.59995781174121
 20
74.70026831563437
 11
30.59995781174121
 21
72.20026831563437
  0
LINE
  5
E6
100
AcDbEntity
  8
plate-support
  6
ByLayer
 62
  256
370
   -1
100
AcDbLine
 10
30.59995781174121
 20
72.20026831563437
 11
21.78844581174121
 21
72.20026831563437
  0
LINE
  5
E7
100
AcDbEntity
  8
hooks
  6
ByLayer
 62
  256
370
   -1
100
AcDbLine
 10
101.3949706917424
 20
5.435081915634314
 11
98.59624669174126
 21
5.435081915634314
  0
LINE
  5
E8
100
AcDbEntity
  8
hooks
  6
ByLayer
 62
  256
370
   -1
100
AcDbLine
 10
187.1639126917412
 20
5.435081915634428
 11
184.3651886917412
 21
5.435081915634428
  0
LINE
  5
E9
100
AcDbEntity
  8
plate-support
  6
ByLayer
 62
  256
370
   -1
100
AcDbLine
 10
103.4204686917412
 20
74.70026831563437
 11
103.4204686917412
 21
73.67131831563437
  0
LINE
  5
EA
100
AcDbEntity
  8
plate-support
  6
ByLayer
 62
  256
370
   -1
100
AcDbLine
 10
103.4204686917412
 20
73.67131831563437
 11
103.4204686917412
 21
74.70026831563437
  0
LINE
  5
EB
100
AcDbEntity
  8
plate-support
  6
ByLayer
 62
  256
370
   -1
100
AcDbLine
 10
106.2191926917412
 20
74.70026831563437
 11
106.2191926917412
 21
73.67131831563437
  0
LINE
  5
EC
100
AcDbEntity
  8
plate-support
  6
ByLayer
 62
  256
370
   -1
100
AcDbLine
 10
103.4204686917412
 20
73.67131831563437
 11
103.4204686917412
 21
74.70026831563437
  0
LINE
  5
ED
100
AcDbEntity
  8
plate-support
  6
ByLayer
 62
  256
370
   -1
100
AcDbLine
 10
106.2191926917412
 20
73.67131831563437
 11
103.4204686917412
 21
73.67131831563437
  0
LINE
  5
EE
100
AcDbEntity
  8
plate-support
  6
ByLayer
 62
  256
370
   -1
100
AcDbLine
 10
98.59624669174127
 20
1.499877377634319
 11
98.59624669174127
 21
2.524673715634251
  0
LINE
  5
EF
100
AcDbEntity
  8
plate-support
  6
ByLayer
 62
  256
370
   -1
100
AcDbLine
 10
98.59624669174127
 20
2.524673715634251
 11
101.3949706917424
 21
2.524673715634251
  0
LINE
  5
F0
100
AcDbEntity
  8
plate-support
  6
ByLayer
 62
  256
370
   -1
100
AcDbLine
 10
101.3949706917424
 20
2.524673715634251
 11
101.3949706917424
 21
1.499877377634319
  0
LINE
  5
F1
100
AcDbEntity
  8
plate-support
  6
ByLayer
 62
  256
370
   -1
100
AcDbLine
 10
187.1639126917412
 20
2.524673715634363
 11
187.1639126917412
 21
1.499877377634319
  0
LINE
  5
F2
100
AcDbEntity
  8
plate-support
  6
ByLayer
 62
  256
370
   -1
100
AcDbLine
 10
184.3651886917412
 20
2.524673715634363
 11
187.1639126917412
 21
2.524673715634363
  0
LINE
  5
F3
100
AcDbEntity
  8
plate-support
  6
ByLayer
 62
  256
370
   -1
100
AcDbLine
 10
184.3651886917412
 20
1.499877377634319
 11
184.3651886917412
 21
2.524673715634363
  0
LINE
  5
F4
100
AcDbEntity
  8
hooks
  6
ByLayer
 62
  256
370
   -1
100
AcDbLine
 10
187.1639126917412
 20
2.524673715634251
 11
187.1639126917412
 21
5.435081915634428
  0
LINE
  5
F5
100
AcDbEntity
  8
hooks
  6
ByLayer
 62
  256
370
   -1
100
AcDbLine
 10
184.3651886917412
 20
5.435081915634428
 11
184.3651886917412
 21
2.524673715634363
  0
LINE
  5
F6
100
AcDbEntity
  8
hooks
  6
ByLayer
 62
  256
370
   -1
100
AcDbLine
 10
184.3651886917412
 20
2.524673715634363
 11
187.1639126917412
 21
2.524673715634251
  0
LINE
  5
F7
100
AcDbEntity
  8
hooks
  6
ByLayer
 62
  256
370
   -1
100
AcDbLine
 10
179.6204686917413
 20
70.76936831563437
 11
182.4191926917413
 21
70.76936831563424
  0
LINE
  5
F8
100
AcDbEntity
  8
hooks
  6
ByLayer
 62
  256
370
   -1
100
AcDbLine
 10
106.2191926917412
 20
70.76936831563425
 11
106.2191926917412
 21
73.67131831563442
  0
LINE
  5
F9
100
AcDbEntity
  8
hooks
  6
ByLayer
 62
  256
370
   -1
100
AcDbLine
 10
103.4204686917412
 20
70.76936831563437
 11
106.2191926917412
 21
70.76936831563425
  0
LINE
  5
FA
100
AcDbEntity
  8
hooks
  6
ByLayer
 62
  256
370
   -1
100
AcDbLine
 10
98.59624669174126
 20
5.435081915634314
 11
98.59624669174127
 21
2.52467371563425
  0
LINE
  5
FB
100
AcDbEntity
  8
hooks
  6
ByLayer
 62
  256
370
   -1
100
AcDbLine
 10
101.3949706917424
 20
2.524673715634137
 11
101.3949706917424
 21
5.435081915634314
  0
LINE
  5
FC
100
AcDbEntity
  8
hooks
  6
ByLayer
 62
  256
370
   -1
100
AcDbLine
 10
98.59624669174127
 20
2.52467371563425
 11
101.3949706917424
 21
2.524673715634137
  0
LINE
  5
FD
100
AcDbEntity
  8
hooks
  6
ByLayer
 62
  256
370
   -1
100
AcDbLine
 10
179.6204686917413
 20
73.67131831563437
 11
179.6204686917413
 21
70.76936831563437
  0
LINE
  5
FE
100
AcDbEntity
  8
hooks
  6
ByLayer
 62
  256
370
   -1
100
AcDbLine
 10
182.4191926917413
 20
70.76936831563424
 11
182.4191926917413
 21
73.67131831563437
  0
LINE
  5
FF
100
AcDbEntity
  8
hooks
  6
ByLayer
 62
  256
370
   -1
100
AcDbLine
 10
182.4191926917413
 20
73.67131831563437
 11
179.6204686917413
 21
73.67131831563437
  0
LINE
  5
100
100
AcDbEntity
  8
hooks
  6
ByLayer
 62
  256
370
   -1
100
AcDbLine
 10
106.2191926917413
 20
73.67131831563437
 11
103.4204686917412
 21
73.67131831563437
  0
LINE
  5
101
100
AcDbEntity
  8
hooks
  6
ByLayer
 62
  256
370
   -1
100
AcDbLine
 10
103.4204686917412
 20
73.67131831563437
 11
103.4204686917412
 21
70.76936831563437
  0
LINE
  5
102
100
AcDbEntity
  8
plate-support
  6
ByLayer
 62
  256
370
   -1
100
AcDbLine
 10
179.6204686917413
 20
73.67131831563437
 11
179.6204686917413
 21
74.70026831563437
  0
LINE
  5
103
100
AcDbEntity
  8
plate-support
  6
ByLayer
 62
  256
370
   -1
100
AcDbLine
 10
182.4191926917413
 20
74.70026831563437
 11
182.4191926917413
 21
73.67131831563437
  0
LINE
  5
104
100
AcDbEntity
  8
plate-support
  6
ByLayer
 62
  256
370
   -1
100
AcDbLine
 10
182.4191926917413
 20
73.67131831563437
 11
179.6204686917413
 21
73.67131831563437
  0
LINE
  5
105
100
AcDbEntity
  8
insulating-layer
  6
ByLayer
 62
  256
370
   -1
100
AcDbLine
 10
282.8755173417412
 20
73.85007284663435
 11
282.8755173417412
 21
2.350072846634347
  0
LINE
  5
106
100
AcDbEntity
  8
insulating-layer
  6
ByLayer
 62
  256
370
   -1
100
AcDbLine
 10
2.875517341741215
 20
2.350072846634347
 11
2.875517341741215
 21
73.85007284663435
  0
ARC
  5
107
100
AcDbEntity
  8
insulating-layer
  6
ByLayer
 62
  256
370
   -1
100
AcDbCircle
 10
99.99560869174127
 20
3.979877815634282
 40
2.5
100
AcDbArc
 50
0
 51
180
  0
ARC
  5
108
100
AcDbEntity
  8
insulating-layer
  6
ByLayer
 62
  256
370
   -1
100
AcDbCircle
 10
185.7645506917412
 20
3.979877815634396
 40
2.5
100
AcDbArc
 50
0
 51
180
  0
ARC
  5
109
100
AcDbEntity
  8
insulating-layer
  6
ByLayer
 62
  256
370
   -1
100
AcDbCircle
 10
104.8198306917412
 20
72.22034331563437
 40
2.5
100
AcDbArc
 50
180
 51
0
  0
ARC
  5
10A
100
AcDbEntity
  8
insulating-layer
  6
ByLayer
 62
  256
370
   -1
100
AcDbCircle
 10
181.0198306917413
 20
72.22034331563437
 40
2.5
100
AcDbArc
 50
180
 51
0
  0
LINE
  5
10B
100
AcDbEntity
  8
insulating-layer
  6
ByLayer
 62
  256
370
   -1
100
AcDbLine
 10
97.49560869174127
 20
2.350072846634347
 11
2.875517341741215
 21
2.350072846634347
  0
LINE
  5
10C
100
AcDbEntity
  8
insulating-layer
  6
ByLayer
 62
  256
370
   -1
100
AcDbLine
 10
183.2645506917412
 20
2.350072846634347
 11
102.4956086917413
 21
2.350072846634347
  0
LINE
  5
10D
100
AcDbEntity
  8
insulating-layer
  6
ByLayer
 62
  256
370
   -1
100
AcDbLine
 10
102.3198306917412
 20
72.22034331563437
 11
102.3198306917412
 21
73.85007284663435
  0
LINE
  5
10E
100
AcDbEntity
  8
insulating-layer
  6
ByLayer
 62
  256
370
   -1
100
AcDbLine
 10
107.3198306917412
 20
72.22034331563437
 11
107.3198306917412
 21
73.85007284663435
  0
LINE
  5
10F
100
AcDbEntity
  8
insulating-layer
  6
ByLayer
 62
  256
370
   -1
100
AcDbLine
 10
178.5198306917413
 20
72.22034331563437
 11
178.5198306917413
 21
73.85007284663435
  0
LINE
  5
110
100
AcDbEntity
  8
insulating-layer
  6
ByLayer
 62
  256
370
   -1
100
AcDbLine
 10
107.3198306917412
 20
73.85007284663435
 11
178.5198306917413
 21
73.85007284663435
  0
LINE
  5
111
100
AcDbEntity
  8
insulating-layer
  6
ByLayer
 62
  256
370
   -1
100
AcDbLine
 10
183.5198306917413
 20
72.22034331563437
 11
183.5198306917413
 21
73.85007284663435
  0
LINE
  5
112
100
AcDbEntity
  8
insulating-layer
  6
ByLayer
 62
  256
370
   -1
100
AcDbLine
 10
183.5198306917413
 20
73.85007284663435
 11
282.8755173417412
 21
73.85007284663435
  0
LINE
  5
113
100
AcDbEntity
  8
insulating-layer
  6
ByLayer
 62
  256
370
   -1
100
AcDbLine
 10
188.2645506917412
 20
3.979877815634396
 11
188.2645506917412
 21
2.350072846634347
  0
LINE
  5
114
100
AcDbEntity
  8
insulating-layer
  6
ByLayer
 62
  256
370
   -1
100
AcDbLine
 10
282.8755173417412
 20
2.350072846634347
 11
188.2645506917412
 21
2.350072846634347
  0
LINE
  5
115
100
AcDbEntity
  8
insulating-layer
  6
ByLayer
 62
  256
370
   -1
100
AcDbLine
 10
183.2645506917412
 20
3.979877815634396
 11
183.2645506917412
 21
2.350072846634347
  0
LINE
  5
116
100
AcDbEntity
  8
insulating-layer
  6
ByLayer
 62
  256
370
   -1
100
AcDbLine
 10
97.49560869174127
 20
3.979877815634282
 11
97.49560869174127
 21
2.350072846634347
  0
LINE
  5
117
100
AcDbEntity
  8
insulating-layer
  6
ByLayer
 62
  256
370
   -1
100
AcDbLine
 10
102.4956086917413
 20
3.979877815634282
 11
102.4956086917413
 21
2.350072846634347
  0
ARC
  5
118
100
AcDbEntity
  8
insulating-layer
  6
ByLayer
 62
  256
370
   -1
100
AcDbCircle
 10
29.20059581174121
 20
73.65124331563449
 40
2.5
100
AcDbArc
 50
-90
 51
0
  0
ARC
  5
119
100
AcDbEntity
  8
insulating-layer
  6
ByLayer
 62
  256
370
   -1
100
AcDbCircle
 10
23.18780781174121
 20
73.65124331563449
 40
2.5
100
AcDbArc
 50
180
 51
270
  0
LINE
  5
11A
100
AcDbEntity
  8
insulating-layer
  6
ByLayer
 62
  256
370
   -1
100
AcDbLine
 10
23.18780781174121
 20
71.15124331563449
 11
29.20059581174121
 21
71.15124331563449
  0
LINE
  5
11B
100
AcDbEntity
  8
insulating-layer
  6
ByLayer
 62
  256
370
   -1
100
AcDbLine
 10
2.875517341741215
 20
73.85007284663435
 11
20.68780781174121
 21
73.85007284663435
  0
LINE
  5
11C
100
AcDbEntity
  8
insulating-layer
  6
ByLayer
 62
  256
370
   -1
100
AcDbLine
 10
31.70059581174121
 20
73.85007284663435
 11
102.3198306917412
 21
73.85007284663435
  0
LINE
  5
11D
100
AcDbEntity
  8
insulating-layer
  6
ByLayer
 62
  256
370
   -1
100
AcDbLine
 10
20.68780781174121
 20
73.65124331563449
 11
20.68780781174121
 21
73.85007284663435
  0
LINE
  5
11E
100
AcDbEntity
  8
insulating-layer
  6
ByLayer
 62
  256
370
   -1
100
AcDbLine
 10
31.70059581174121
 20
73.65124331563449
 11
31.70059581174121
 21
73.85007284663435
  0
LINE
  5
11F
100
AcDbEntity
  8
insulating-layer
  6
ByLayer
 62
  256
370
   -1
100
AcDbLine
 10
80.73535781204424
 20
57.70818031564178
 11
90.73535781204424
 21
57.70818031564178
  0
LINE
  5
120
100
AcDbEntity
  8
insulating-layer
  6
ByLayer
 62
  256
370
   -1
100
AcDbLine
 10
85.73535781204424
 20
52.70818031564178
 11
85.73535781204424
 21
62.70818031564178
  0
CIRCLE
  5
121
100
AcDbEntity
  8
insulating-layer
  6
ByLayer
 62
  256
370
   -1
100
AcDbCircle
 10
85.73535781204424
 20
57.70818031564178
 40
2
  0
LINE
  5
122
100
AcDbEntity
  8
insulating-layer
  6
ByLayer
 62
  256
370
   -1
100
AcDbLine
 10
137.8853578120413
 20
57.7081803156344
 11
147.8853578120413
 21
57.7081803156344
  0
LINE
  5
123
100
AcDbEntity
  8
insulating-layer
  6
ByLayer
 62
  256
370
   -1
100
AcDbLine
 10
142.8853578120413
 20
52.7081803156344
 11
142.8853578120413
 21
62.7081803156344
  0
CIRCLE
  5
124
100
AcDbEntity
  8
insulating-layer
  6
ByLayer
 62
  256
370
   -1
100
AcDbCircle
 10
142.8853578120413
 20
57.7081803156344
 40
2
  0
LINE
  5
125
100
AcDbEntity
  8
insulating-layer
  6
ByLayer
 62
  256
370
   -1
100
AcDbLine
 10
195.0353578120414
 20
57.70818031563437
 11
205.0353578120414
 21
57.70818031563437
  0
LINE
  5
126
100
AcDbEntity
  8
insulating-layer
  6
ByLayer
 62
  256
370
   -1
100
AcDbLine
 10
200.0353578120414
 20
52.70818031563437
 11
200.0353578120414
 21
62.70818031563437
  0
CIRCLE
  5
127
100
AcDbEntity
  8
insulating-layer
  6
ByLayer
 62
  256
370
   -1
100
AcDbCircle
 10
200.0353578120414
 20
57.70818031563437
 40
2
  0
LINE
  5
128
100
AcDbEntity
  8
insulating-layer
  6
ByLayer
 62
  256
370
   -1
100
AcDbLine
 10
175.9853578120411
 20
9.518208115634309
 11
185.9853578120411
 21
9.518208115634309
  0
LINE
  5
129
100
AcDbEntity
  8
insulating-layer
  6
ByLayer
 62
  256
370
   -1
100
AcDbLine
 10
180.9853578120411
 20
4.518208115634309
 11
180.9853578120411
 21
14.51820811563431
  0
CIRCLE
  5
12A
100
AcDbEntity
  8
insulating-layer
  6
ByLayer
 62
  256
370
   -1
100
AcDbCircle
 10
180.9853578120411
 20
9.518208115634309
 40
2
  0
LINE
  5
12B
100
AcDbEntity
  8
insulating-layer
  6
ByLayer
 62
  256
370
   -1
100
AcDbLine
 10
230.7525838118039
 20
28.56828431578515
 11
240.7525838118039
 21
28.56828431578515
  0
LINE
  5
12C
100
AcDbEntity
  8
insulating-layer
  6
ByLayer
 62
  256
370
   -1
100
AcDbLine
 10
235.7525838118039
 20
23.56828431578515
 11
235.7525838118039
 21
33.56828431578515
  0
CIRCLE
  5
12D
100
AcDbEntity
  8
insulating-layer
  6
ByLayer
 62
  256
370
   -1
100
AcDbCircle
 10
235.7525838118039
 20
28.56828431578515
 40
2
  0
LINE
  5
12E
100
AcDbEntity
  8
insulating-layer
  6
ByLayer
 62
  256
370
   -1
100
AcDbLine
 10
259.3288538118049
 20
66.66828431578736
 11
269.3288538118049
 21
66.66828431578736
  0
LINE
  5
12F
100
AcDbEntity
  8
insulating-layer
  6
ByLayer
 62
  256
370
   -1
100
AcDbLine
 10
264.3288538118049
 20
61.66828431578736
 11
264.3288538118049
 21
71.66828431578736
  0
CIRCLE
  5
130
100
AcDbEntity
  8
insulating-layer
  6
ByLayer
 62
  256
370
   -1
100
AcDbCircle
 10
264.3288538118049
 20
66.66828431578736
 40
2
  0
LINE
  5
131
100
AcDbEntity
  8
insulating-layer
  6
ByLayer
 62
  256
370
   -1
100
AcDbLine
 10
256.9488738117413
 20
9.518208115634327
 11
266.9488738117413
 21
9.518208115634327
  0
LINE
  5
132
100
AcDbEntity
  8
insulating-layer
  6
ByLayer
 62
  256
370
   -1
100
AcDbLine
 10
261.9488738117413
 20
4.518208115634327
 11
261.9488738117413
 21
14.51820811563433
  0
CIRCLE
  5
133
100
AcDbEntity
  8
insulating-layer
  6
ByLayer
 62
  256
370
   -1
100
AcDbCircle
 10
261.9488738117413
 20
9.518208115634327
 40
2
  0
LINE
  5
134
100
AcDbEntity
  8
insulating-layer
  6
ByLayer
 62
  256
370
   -1
100
AcDbLine
 10
247.4139678118912
 20
47.62514231563436
 11
257.4139678118912
 21
47.62514231563436
  0
LINE
  5
135
100
AcDbEntity
  8
insulating-layer
  6
ByLayer
 62
  256
370
   -1
100
AcDbLine
 10
252.4139678118912
 20
42.62514231563436
 11
252.4139678118912
 21
52.62514231563436
  0
CIRCLE
  5
136
100
AcDbEntity
  8
insulating-layer
  6
ByLayer
 62
  256
370
   -1
100
AcDbCircle
 10
252.4139678118912
 20
47.62514231563436
 40
2
  0
LINE
  5
137
100
AcDbEntity
  8
insulating-layer
  6
ByLayer
 62
  256
370
   -1
100
AcDbLine
 10
242.6514678118912
 20
66.67514231563445
 11
252.6514678118912
 21
66.67514231563445
  0
LINE
  5
138
100
AcDbEntity
  8
insulating-layer
  6
ByLayer
 62
  256
370
   -1
100
AcDbLine
 10
247.6514678118912
 20
61.67514231563444
 11
247.6514678118912
 21
71.67514231563445
  0
CIRCLE
  5
139
100
AcDbEntity
  8
insulating-layer
  6
ByLayer
 62
  256
370
   -1
100
AcDbCircle
 10
247.6514678118912
 20
66.67514231563445
 40
2
  0
LINE
  5
13A
100
AcDbEntity
  8
insulating-layer
  6
ByLayer
 62
  256
370
   -1
100
AcDbLine
 10
218.8387138121913
 20
28.57491371563441
 11
228.8387138121913
 21
28.57491371563441
  0
LINE
  5
13B
100
AcDbEntity
  8
insulating-layer
  6
ByLayer
 62
  256
370
   -1
100
AcDbLine
 10
223.8387138121913
 20
23.5749137156344
 11
223.8387138121913
 21
33.57491371563441
  0
CIRCLE
  5
13C
100
AcDbEntity
  8
insulating-layer
  6
ByLayer
 62
  256
370
   -1
100
AcDbCircle
 10
223.8387138121913
 20
28.57491371563441
 40
2
  0
LINE
  5
13D
100
AcDbEntity
  8
insulating-layer
  6
ByLayer
 62
  256
370
   -1
100
AcDbLine
 10
268.843947811891
 20
57.15014231563435
 11
278.843947811891
 21
57.15014231563435
  0
LINE
  5
13E
100
AcDbEntity
  8
insulating-layer
  6
ByLayer
 62
  256
370
   -1
100
AcDbLine
 10
273.843947811891
 20
52.15014231563434
 11
273.843947811891
 21
62.15014231563435
  0
CIRCLE
  5
13F
100
AcDbEntity
  8
insulating-layer
  6
ByLayer
 62
  256
370
   -1
100
AcDbCircle
 10
273.843947811891
 20
57.15014231563435
 40
2
  0
LINE
  5
140
100
AcDbEntity
  8
insulating-layer
  6
ByLayer
 62
  256
370
   -1
100
AcDbLine
 10
268.8464878118913
 20
28.57491371563441
 11
278.8464878118913
 21
28.57491371563441
  0
LINE
  5
141
100
AcDbEntity
  8
insulating-layer
  6
ByLayer
 62
  256
370
   -1
100
AcDbLine
 10
273.8464878118913
 20
23.5749137156344
 11
273.8464878118913
 21
33.57491371563441
  0
CIRCLE
  5
142
100
AcDbEntity
  8
insulating-layer
  6
ByLayer
 62
  256
370
   -1
100
AcDbCircle
 10
273.8464878118913
 20
28.57491371563441
 40
2
  0
LINE
  5
143
100
AcDbEntity
  8
insulating-layer
  6
ByLayer
 62
  256
370
   -1
100
AcDbLine
 10
268.843947811891
 20
9.529130115634469
 11
278.843947811891
 21
9.529130115634469
  0
LINE
  5
144
100
AcDbEntity
  8
insulating-layer
  6
ByLayer
 62
  256
370
   -1
100
AcDbLine
 10
273.843947811891
 20
4.529130115634455
 11
273.843947811891
 21
14.52913011563447
  0
CIRCLE
  5
145
100
AcDbEntity
  8
insulating-layer
  6
ByLayer
 62
  256
370
   -1
100
AcDbCircle
 10
273.843947811891
 20
9.529130115634469
 40
2
  0
LINE
  5
146
100
AcDbEntity
  8
insulating-layer
  6
ByLayer
 62
  256
370
   -1
100
AcDbLine
 10
245.031447811891
 20
9.529130115634469
 11
255.031447811891
 21
9.529130115634469
  0
LINE
  5
147
100
AcDbEntity
  8
insulating-layer
  6
ByLayer
 62
  256
370
   -1
100
AcDbLine
 10
250.031447811891
 20
4.529130115634455
 11
250.031447811891
 21
14.52913011563447
  0
CIRCLE
  5
148
100
AcDbEntity
  8
insulating-layer
  6
ByLayer
 62
  256
370
   -1
100
AcDbCircle
 10
250.031447811891
 20
9.529130115634469
 40
2
  0
LINE
  5
149
100
AcDbEntity
  8
insulating-layer
  6
ByLayer
 62
  256
370
   -1
100
AcDbLine
 10
218.8371898121913
 20
9.529130115634469
 11
228.8371898121913
 21
9.529130115634469
  0
LINE
  5
14A
100
AcDbEntity
  8
insulating-layer
  6
ByLayer
 62
  256
370
   -1
100
AcDbLine
 10
223.8371898121913
 20
4.529130115634455
 11
223.8371898121913
 21
14.52913011563447
  0
CIRCLE
  5
14B
100
AcDbEntity
  8
insulating-layer
  6
ByLayer
 62
  256
370
   -1
100
AcDbCircle
 10
223.8371898121913
 20
9.529130115634469
 40
2
  0
LINE
  5
14C
100
AcDbEntity
  8
insulating-layer
  6
ByLayer
 62
  256
370
   -1
100
AcDbLine
 10
190.2649838121912
 20
9.524989915634428
 11
200.2649838121912
 21
9.524989915634428
  0
LINE
  5
14D
100
AcDbEntity
  8
insulating-layer
  6
ByLayer
 62
  256
370
   -1
100
AcDbLine
 10
195.2649838121912
 20
4.524989915634414
 11
195.2649838121912
 21
14.52498991563442
  0
CIRCLE
  5
14E
100
AcDbEntity
  8
insulating-layer
  6
ByLayer
 62
  256
370
   -1
100
AcDbCircle
 10
195.2649838121912
 20
9.524989915634428
 40
2
  0
LINE
  5
14F
100
AcDbEntity
  8
insulating-layer
  6
ByLayer
 62
  256
370
   -1
100
AcDbLine
 10
161.6887138121912
 20
9.529130115634469
 11
171.6887138121912
 21
9.529130115634469
  0
LINE
  5
150
100
AcDbEntity
  8
insulating-layer
  6
ByLayer
 62
  256
370
   -1
100
AcDbLine
 10
166.6887138121912
 20
4.529130115634455
 11
166.6887138121912
 21
14.52913011563447
  0
CIRCLE
  5
151
100
AcDbEntity
  8
insulating-layer
  6
ByLayer
 62
  256
370
   -1
100
AcDbCircle
 10
166.6887138121912
 20
9.529130115634469
 40
2
  0
LINE
  5
152
100
AcDbEntity
  8
insulating-layer
  6
ByLayer
 62
  256
370
   -1
100
AcDbLine
 10
137.8762138121912
 20
9.529130115634469
 11
147.8762138121912
 21
9.529130115634469
  0
LINE
  5
153
100
AcDbEntity
  8
insulating-layer
  6
ByLayer
 62
  256
370
   -1
100
AcDbLine
 10
142.8762138121912
 20
4.529130115634455
 11
142.8762138121912
 21
14.52913011563447
  0
CIRCLE
  5
154
100
AcDbEntity
  8
insulating-layer
  6
ByLayer
 62
  256
370
   -1
100
AcDbCircle
 10
142.8762138121912
 20
9.529130115634469
 40
2
  0
LINE
  5
155
100
AcDbEntity
  8
insulating-layer
  6
ByLayer
 62
  256
370
   -1
100
AcDbLine
 10
114.0621898121812
 20
9.529130115634469
 11
124.0621898121812
 21
9.529130115634469
  0
LINE
  5
156
100
AcDbEntity
  8
insulating-layer
  6
ByLayer
 62
  256
370
   -1
100
AcDbLine
 10
119.0621898121812
 20
4.529130115634455
 11
119.0621898121812
 21
14.52913011563447
  0
CIRCLE
  5
157
100
AcDbEntity
  8
insulating-layer
  6
ByLayer
 62
  256
370
   -1
100
AcDbCircle
 10
119.0621898121812
 20
9.529130115634469
 40
2
  0
LINE
  5
158
100
AcDbEntity
  8
insulating-layer
  6
ByLayer
 62
  256
370
   -1
100
AcDbLine
 10
85.48998381219111
 20
9.524989915634428
 11
95.48998381219111
 21
9.524989915634428
  0
LINE
  5
159
100
AcDbEntity
  8
insulating-layer
  6
ByLayer
 62
  256
370
   -1
100
AcDbLine
 10
90.48998381219111
 20
4.524989915634414
 11
90.48998381219111
 21
14.52498991563442
  0
CIRCLE
  5
15A
100
AcDbEntity
  8
insulating-layer
  6
ByLayer
 62
  256
370
   -1
100
AcDbCircle
 10
90.48998381219111
 20
9.524989915634428
 40
2
  0
LINE
  5
15B
100
AcDbEntity
  8
insulating-layer
  6
ByLayer
 62
  256
370
   -1
100
AcDbLine
 10
56.91218981219129
 20
9.529130115634469
 11
66.91218981219129
 21
9.529130115634469
  0
LINE
  5
15C
100
AcDbEntity
  8
insulating-layer
  6
ByLayer
 62
  256
370
   -1
100
AcDbLine
 10
61.91218981219129
 20
4.529130115634455
 11
61.91218981219129
 21
14.52913011563447
  0
CIRCLE
  5
15D
100
AcDbEntity
  8
insulating-layer
  6
ByLayer
 62
  256
370
   -1
100
AcDbCircle
 10
61.91218981219129
 20
9.529130115634469
 40
2
  0
LINE
  5
15E
100
AcDbEntity
  8
insulating-layer
  6
ByLayer
 62
  256
370
   -1
100
AcDbLine
 10
30.71996381219117
 20
9.529130115634469
 11
40.71996381219117
 21
9.529130115634469
  0
LINE
  5
15F
100
AcDbEntity
  8
insulating-layer
  6
ByLayer
 62
  256
370
   -1
100
AcDbLine
 10
35.71996381219117
 20
4.529130115634455
 11
35.71996381219117
 21
14.52913011563447
  0
CIRCLE
  5
160
100
AcDbEntity
  8
insulating-layer
  6
ByLayer
 62
  256
370
   -1
100
AcDbCircle
 10
35.71996381219117
 20
9.529130115634469
 40
2
  0
LINE
  5
161
100
AcDbEntity
  8
insulating-layer
  6
ByLayer
 62
  256
370
   -1
100
AcDbLine
 10
6.90609221189116
 20
9.529130115634469
 11
16.90609221189116
 21
9.529130115634469
  0
LINE
  5
162
100
AcDbEntity
  8
insulating-layer
  6
ByLayer
 62
  256
370
   -1
100
AcDbLine
 10
11.90609221189116
 20
4.529130115634455
 11
11.90609221189116
 21
14.52913011563447
  0
CIRCLE
  5
163
100
AcDbEntity
  8
insulating-layer
  6
ByLayer
 62
  256
370
   -1
100
AcDbCircle
 10
11.90609221189116
 20
9.529130115634469
 40
2
  0
LINE
  5
164
100
AcDbEntity
  8
insulating-layer
  6
ByLayer
 62
  256
370
   -1
100
AcDbLine
 10
6.90609221189116
 20
28.57897771563438
 11
16.90609221189116
 21
28.57897771563438
  0
LINE
  5
165
100
AcDbEntity
  8
insulating-layer
  6
ByLayer
 62
  256
370
   -1
100
AcDbLine
 10
11.90609221189116
 20
23.57897771563436
 11
11.90609221189116
 21
33.57897771563437
  0
CIRCLE
  5
166
100
AcDbEntity
  8
insulating-layer
  6
ByLayer
 62
  256
370
   -1
100
AcDbCircle
 10
11.90609221189116
 20
28.57897771563438
 40
2
  0
LINE
  5
167
100
AcDbEntity
  8
insulating-layer
  6
ByLayer
 62
  256
370
   -1
100
AcDbLine
 10
6.90609221189116
 20
47.62897771563446
 11
16.90609221189116
 21
47.62897771563446
  0
LINE
  5
168
100
AcDbEntity
  8
insulating-layer
  6
ByLayer
 62
  256
370
   -1
100
AcDbLine
 10
11.90609221189116
 20
42.62897771563445
 11
11.90609221189116
 21
52.62897771563446
  0
CIRCLE
  5
169
100
AcDbEntity
  8
insulating-layer
  6
ByLayer
 62
  256
370
   -1
100
AcDbCircle
 10
11.90609221189116
 20
47.62897771563446
 40
2
  0
LINE
  5
16A
100
AcDbEntity
  8
insulating-layer
  6
ByLayer
 62
  256
370
   -1
100
AcDbLine
 10
9.28876461189115
 20
66.67897771563455
 11
19.28876461189115
 21
66.67897771563455
  0
LINE
  5
16B
100
AcDbEntity
  8
insulating-layer
  6
ByLayer
 62
  256
370
   -1
100
AcDbLine
 10
14.28876461189115
 20
61.67897771563452
 11
14.28876461189115
 21
71.67897771563453
  0
CIRCLE
  5
16C
100
AcDbEntity
  8
insulating-layer
  6
ByLayer
 62
  256
370
   -1
100
AcDbCircle
 10
14.28876461189115
 20
66.67897771563455
 40
2
  0
LINE
  5
16D
100
AcDbEntity
  8
insulating-layer
  6
ByLayer
 62
  256
370
   -1
100
AcDbLine
 10
242.6471752118912
 20
28.57874911563451
 11
252.6471752118912
 21
28.57874911563451
  0
LINE
  5
16E
100
AcDbEntity
  8
insulating-layer
  6
ByLayer
 62
  256
370
   -1
100
AcDbLine
 10
247.6471752118912
 20
23.57874911563449
 11
247.6471752118912
 21
33.57874911563449
  0
CIRCLE
  5
16F
100
AcDbEntity
  8
insulating-layer
  6
ByLayer
 62
  256
370
   -1
100
AcDbCircle
 10
247.6471752118912
 20
28.57874911563451
 40
2
  0
LINE
  5
170
100
AcDbEntity
  8
insulating-layer
  6
ByLayer
 62
  256
370
   -1
100
AcDbLine
 10
228.3637138118912
 20
47.62514231563436
 11
238.3637138118912
 21
47.62514231563436
  0
LINE
  5
171
100
AcDbEntity
  8
insulating-layer
  6
ByLayer
 62
  256
370
   -1
100
AcDbLine
 10
233.3637138118912
 20
42.62514231563436
 11
233.3637138118912
 21
52.62514231563436
  0
CIRCLE
  5
172
100
AcDbEntity
  8
insulating-layer
  6
ByLayer
 62
  256
370
   -1
100
AcDbCircle
 10
233.3637138118912
 20
47.62514231563436
 40
2
  0
LINE
  5
173
100
AcDbEntity
  8
insulating-layer
  6
ByLayer
 62
  256
370
   -1
100
AcDbLine
 10
223.6012138118913
 20
66.67514231563445
 11
233.6012138118913
 21
66.67514231563445
  0
LINE
  5
174
100
AcDbEntity
  8
insulating-layer
  6
ByLayer
 62
  256
370
   -1
100
AcDbLine
 10
228.6012138118913
 20
61.67514231563444
 11
228.6012138118913
 21
71.67514231563445
  0
CIRCLE
  5
175
100
AcDbEntity
  8
insulating-layer
  6
ByLayer
 62
  256
370
   -1
100
AcDbCircle
 10
228.6012138118913
 20
66.67514231563445
 40
2
  0
LINE
  5
176
100
AcDbEntity
  8
insulating-layer
  6
ByLayer
 62
  256
370
   -1
100
AcDbLine
 10
199.7887138124912
 20
28.57491371563441
 11
209.7887138124912
 21
28.57491371563441
  0
LINE
  5
177
100
AcDbEntity
  8
insulating-layer
  6
ByLayer
 62
  256
370
   -1
100
AcDbLine
 10
204.7887138124912
 20
23.5749137156344
 11
204.7887138124912
 21
33.57491371563441
  0
CIRCLE
  5
178
100
AcDbEntity
  8
insulating-layer
  6
ByLayer
 62
  256
370
   -1
100
AcDbCircle
 10
204.7887138124912
 20
28.57491371563441
 40
2
  0
LINE
  5
179
100
AcDbEntity
  8
insulating-layer
  6
ByLayer
 62
  256
370
   -1
100
AcDbLine
 10
209.3137138121912
 20
47.62514231563436
 11
219.3137138121912
 21
47.62514231563436
  0
LINE
  5
17A
100
AcDbEntity
  8
insulating-layer
  6
ByLayer
 62
  256
370
   -1
100
AcDbLine
 10
214.3137138121912
 20
42.62514231563436
 11
214.3137138121912
 21
52.62514231563436
  0
CIRCLE
  5
17B
100
AcDbEntity
  8
insulating-layer
  6
ByLayer
 62
  256
370
   -1
100
AcDbCircle
 10
214.3137138121912
 20
47.62514231563436
 40
2
  0
LINE
  5
17C
100
AcDbEntity
  8
insulating-layer
  6
ByLayer
 62
  256
370
   -1
100
AcDbLine
 10
204.5512138121912
 20
66.67514231563445
 11
214.5512138121912
 21
66.67514231563445
  0
LINE
  5
17D
100
AcDbEntity
  8
insulating-layer
  6
ByLayer
 62
  256
370
   -1
100
AcDbLine
 10
209.5512138121912
 20
61.67514231563444
 11
209.5512138121912
 21
71.67514231563445
  0
CIRCLE
  5
17E
100
AcDbEntity
  8
insulating-layer
  6
ByLayer
 62
  256
370
   -1
100
AcDbCircle
 10
209.5512138121912
 20
66.67514231563445
 40
2
  0
LINE
  5
17F
100
AcDbEntity
  8
insulating-layer
  6
ByLayer
 62
  256
370
   -1
100
AcDbLine
 10
180.7387138127911
 20
28.57491371563441
 11
190.7387138127911
 21
28.57491371563441
  0
LINE
  5
180
100
AcDbEntity
  8
insulating-layer
  6
ByLayer
 62
  256
370
   -1
100
AcDbLine
 10
185.7387138127911
 20
23.5749137156344
 11
185.7387138127911
 21
33.57491371563441
  0
CIRCLE
  5
181
100
AcDbEntity
  8
insulating-layer
  6
ByLayer
 62
  256
370
   -1
100
AcDbCircle
 10
185.7387138127911
 20
28.57491371563441
 40
2
  0
LINE
  5
182
100
AcDbEntity
  8
insulating-layer
  6
ByLayer
 62
  256
370
   -1
100
AcDbLine
 10
190.2637138124911
 20
47.62514231563436
 11
200.2637138124911
 21
47.62514231563436
  0
LINE
  5
183
100
AcDbEntity
  8
insulating-layer
  6
ByLayer
 62
  256
370
   -1
100
AcDbLine
 10
195.2637138124911
 20
42.62514231563436
 11
195.2637138124911
 21
52.62514231563436
  0
CIRCLE
  5
184
100
AcDbEntity
  8
insulating-layer
  6
ByLayer
 62
  256
370
   -1
100
AcDbCircle
 10
195.2637138124911
 20
47.62514231563436
 40
2
  0
LINE
  5
185
100
AcDbEntity
  8
insulating-layer
  6
ByLayer
 62
  256
370
   -1
100
AcDbLine
 10
185.5012138124911
 20
66.67514231563445
 11
195.5012138124911
 21
66.67514231563445
  0
LINE
  5
186
100
AcDbEntity
  8
insulating-layer
  6
ByLayer
 62
  256
370
   -1
100
AcDbLine
 10
190.5012138124911
 20
61.67514231563444
 11
190.5012138124911
 21
71.67514231563445
  0
CIRCLE
  5
187
100
AcDbEntity
  8
insulating-layer
  6
ByLayer
 62
  256
370
   -1
100
AcDbCircle
 10
190.5012138124911
 20
66.67514231563445
 40
2
  0
LINE
  5
188
100
AcDbEntity
  8
insulating-layer
  6
ByLayer
 62
  256
370
   -1
100
AcDbLine
 10
161.688713813091
 20
28.57491371563441
 11
171.688713813091
 21
28.57491371563441
  0
LINE
  5
189
100
AcDbEntity
  8
insulating-layer
  6
ByLayer
 62
  256
370
   -1
100
AcDbLine
 10
166.688713813091
 20
23.5749137156344
 11
166.688713813091
 21
33.57491371563441
  0
CIRCLE
  5
18A
100
AcDbEntity
  8
insulating-layer
  6
ByLayer
 62
  256
370
   -1
100
AcDbCircle
 10
166.688713813091
 20
28.57491371563441
 40
2
  0
LINE
  5
18B
100
AcDbEntity
  8
insulating-layer
  6
ByLayer
 62
  256
370
   -1
100
AcDbLine
 10
171.213713812791
 20
47.62514231563436
 11
181.213713812791
 21
47.62514231563436
  0
LINE
  5
18C
100
AcDbEntity
  8
insulating-layer
  6
ByLayer
 62
  256
370
   -1
100
AcDbLine
 10
176.213713812791
 20
42.62514231563436
 11
176.213713812791
 21
52.62514231563436
  0
CIRCLE
  5
18D
100
AcDbEntity
  8
insulating-layer
  6
ByLayer
 62
  256
370
   -1
100
AcDbCircle
 10
176.213713812791
 20
47.62514231563436
 40
2
  0
LINE
  5
18E
100
AcDbEntity
  8
insulating-layer
  6
ByLayer
 62
  256
370
   -1
100
AcDbLine
 10
166.451213812791
 20
66.67514231563445
 11
176.451213812791
 21
66.67514231563445
  0
LINE
  5
18F
100
AcDbEntity
  8
insulating-layer
  6
ByLayer
 62
  256
370
   -1
100
AcDbLine
 10
171.451213812791
 20
61.67514231563444
 11
171.451213812791
 21
71.67514231563445
  0
CIRCLE
  5
190
100
AcDbEntity
  8
insulating-layer
  6
ByLayer
 62
  256
370
   -1
100
AcDbCircle
 10
171.451213812791
 20
66.67514231563445
 40
2
  0
LINE
  5
191
100
AcDbEntity
  8
insulating-layer
  6
ByLayer
 62
  256
370
   -1
100
AcDbLine
 10
142.638713813391
 20
28.57491371563441
 11
152.638713813391
 21
28.57491371563441
  0
LINE
  5
192
100
AcDbEntity
  8
insulating-layer
  6
ByLayer
 62
  256
370
   -1
100
AcDbLine
 10
147.638713813391
 20
23.5749137156344
 11
147.638713813391
 21
33.57491371563441
  0
CIRCLE
  5
193
100
AcDbEntity
  8
insulating-layer
  6
ByLayer
 62
  256
370
   -1
100
AcDbCircle
 10
147.638713813391
 20
28.57491371563441
 40
2
  0
LINE
  5
194
100
AcDbEntity
  8
insulating-layer
  6
ByLayer
 62
  256
370
   -1
100
AcDbLine
 10
152.1637138130909
 20
47.62514231563436
 11
162.1637138130909
 21
47.62514231563436
  0
LINE
  5
195
100
AcDbEntity
  8
insulating-layer
  6
ByLayer
 62
  256
370
   -1
100
AcDbLine
 10
157.1637138130909
 20
42.62514231563436
 11
157.1637138130909
 21
52.62514231563436
  0
CIRCLE
  5
196
100
AcDbEntity
  8
insulating-layer
  6
ByLayer
 62
  256
370
   -1
100
AcDbCircle
 10
157.1637138130909
 20
47.62514231563436
 40
2
  0
LINE
  5
197
100
AcDbEntity
  8
insulating-layer
  6
ByLayer
 62
  256
370
   -1
100
AcDbLine
 10
147.4012138130909
 20
66.67514231563445
 11
157.4012138130909
 21
66.67514231563445
  0
LINE
  5
198
100
AcDbEntity
  8
insulating-layer
  6
ByLayer
 62
  256
370
   -1
100
AcDbLine
 10
152.4012138130909
 20
61.67514231563444
 11
152.4012138130909
 21
71.67514231563445
  0
CIRCLE
  5
199
100
AcDbEntity
  8
insulating-layer
  6
ByLayer
 62
  256
370
   -1
100
AcDbCircle
 10
152.4012138130909
 20
66.67514231563445
 40
2
  0
LINE
  5
19A
100
AcDbEntity
  8
insulating-layer
  6
ByLayer
 62
  256
370
   -1
100
AcDbLine
 10
123.5887138136909
 20
28.57491371563441
 11
133.5887138136909
 21
28.57491371563441
  0
LINE
  5
19B
100
AcDbEntity
  8
insulating-layer
  6
ByLayer
 62
  256
370
   -1
100
AcDbLine
 10
128.5887138136909
 20
23.5749137156344
 11
128.5887138136909
 21
33.57491371563441
  0
CIRCLE
  5
19C
100
AcDbEntity
  8
insulating-layer
  6
ByLayer
 62
  256
370
   -1
100
AcDbCircle
 10
128.5887138136909
 20
28.57491371563441
 40
2
  0
LINE
  5
19D
100
AcDbEntity
  8
insulating-layer
  6
ByLayer
 62
  256
370
   -1
100
AcDbLine
 10
133.1137138133909
 20
47.62514231563436
 11
143.1137138133909
 21
47.62514231563436
  0
LINE
  5
19E
100
AcDbEntity
  8
insulating-layer
  6
ByLayer
 62
  256
370
   -1
100
AcDbLine
 10
138.1137138133909
 20
42.62514231563436
 11
138.1137138133909
 21
52.62514231563436
  0
CIRCLE
  5
19F
100
AcDbEntity
  8
insulating-layer
  6
ByLayer
 62
  256
370
   -1
100
AcDbCircle
 10
138.1137138133909
 20
47.62514231563436
 40
2
  0
LINE
  5
1A0
100
AcDbEntity
  8
insulating-layer
  6
ByLayer
 62
  256
370
   -1
100
AcDbLine
 10
128.3512138133909
 20
66.67514231563445
 11
138.3512138133909
 21
66.67514231563445
  0
LINE
  5
1A1
100
AcDbEntity
  8
insulating-layer
  6
ByLayer
 62
  256
370
   -1
100
AcDbLine
 10
133.3512138133909
 20
61.67514231563444
 11
133.3512138133909
 21
71.67514231563445
  0
CIRCLE
  5
1A2
100
AcDbEntity
  8
insulating-layer
  6
ByLayer
 62
  256
370
   -1
100
AcDbCircle
 10
133.3512138133909
 20
66.67514231563445
 40
2
  0
LINE
  5
1A3
100
AcDbEntity
  8
insulating-layer
  6
ByLayer
 62
  256
370
   -1
100
AcDbLine
 10
104.5387138139908
 20
28.57491371563441
 11
114.5387138139908
 21
28.57491371563441
  0
LINE
  5
1A4
100
AcDbEntity
  8
insulating-layer
  6
ByLayer
 62
  256
370
   -1
100
AcDbLine
 10
109.5387138139908
 20
23.5749137156344
 11
109.5387138139908
 21
33.57491371563441
  0
CIRCLE
  5
1A5
100
AcDbEntity
  8
insulating-layer
  6
ByLayer
 62
  256
370
   -1
100
AcDbCircle
 10
109.5387138139908
 20
28.57491371563441
 40
2
  0
LINE
  5
1A6
100
AcDbEntity
  8
insulating-layer
  6
ByLayer
 62
  256
370
   -1
100
AcDbLine
 10
114.0637138136908
 20
47.62514231563436
 11
124.0637138136908
 21
47.62514231563436
  0
LINE
  5
1A7
100
AcDbEntity
  8
insulating-layer
  6
ByLayer
 62
  256
370
   -1
100
AcDbLine
 10
119.0637138136908
 20
42.62514231563436
 11
119.0637138136908
 21
52.62514231563436
  0
CIRCLE
  5
1A8
100
AcDbEntity
  8
insulating-layer
  6
ByLayer
 62
  256
370
   -1
100
AcDbCircle
 10
119.0637138136908
 20
47.62514231563436
 40
2
  0
LINE
  5
1A9
100
AcDbEntity
  8
insulating-layer
  6
ByLayer
 62
  256
370
   -1
100
AcDbLine
 10
109.3012138136908
 20
66.67514231563445
 11
119.3012138136908
 21
66.67514231563445
  0
LINE
  5
1AA
100
AcDbEntity
  8
insulating-layer
  6
ByLayer
 62
  256
370
   -1
100
AcDbLine
 10
114.3012138136908
 20
61.67514231563444
 11
114.3012138136908
 21
71.67514231563445
  0
CIRCLE
  5
1AB
100
AcDbEntity
  8
insulating-layer
  6
ByLayer
 62
  256
370
   -1
100
AcDbCircle
 10
114.3012138136908
 20
66.67514231563445
 40
2
  0
LINE
  5
1AC
100
AcDbEntity
  8
insulating-layer
  6
ByLayer
 62
  256
370
   -1
100
AcDbLine
 10
85.48871381429072
 20
28.57491371563441
 11
95.48871381429072
 21
28.57491371563441
  0
LINE
  5
1AD
100
AcDbEntity
  8
insulating-layer
  6
ByLayer
 62
  256
370
   -1
100
AcDbLine
 10
90.48871381429072
 20
23.5749137156344
 11
90.48871381429072
 21
33.57491371563441
  0
CIRCLE
  5
1AE
100
AcDbEntity
  8
insulating-layer
  6
ByLayer
 62
  256
370
   -1
100
AcDbCircle
 10
90.48871381429072
 20
28.57491371563441
 40
2
  0
LINE
  5
1AF
100
AcDbEntity
  8
insulating-layer
  6
ByLayer
 62
  256
370
   -1
100
AcDbLine
 10
95.01371381399071
 20
47.62514231563436
 11
105.0137138139907
 21
47.62514231563436
  0
LINE
  5
1B0
100
AcDbEntity
  8
insulating-layer
  6
ByLayer
 62
  256
370
   -1
100
AcDbLine
 10
100.0137138139907
 20
42.62514231563436
 11
100.0137138139907
 21
52.62514231563436
  0
CIRCLE
  5
1B1
100
AcDbEntity
  8
insulating-layer
  6
ByLayer
 62
  256
370
   -1
100
AcDbCircle
 10
100.0137138139907
 20
47.62514231563436
 40
2
  0
LINE
  5
1B2
100
AcDbEntity
  8
insulating-layer
  6
ByLayer
 62
  256
370
   -1
100
AcDbLine
 10
90.25121381399072
 20
66.67514231563445
 11
100.2512138139907
 21
66.67514231563445
  0
LINE
  5
1B3
100
AcDbEntity
  8
insulating-layer
  6
ByLayer
 62
  256
370
   -1
100
AcDbLine
 10
95.25121381399072
 20
61.67514231563444
 11
95.25121381399072
 21
71.67514231563445
  0
CIRCLE
  5
1B4
100
AcDbEntity
  8
insulating-layer
  6
ByLayer
 62
  256
370
   -1
100
AcDbCircle
 10
95.25121381399072
 20
66.67514231563445
 40
2
  0
LINE
  5
1B5
100
AcDbEntity
  8
insulating-layer
  6
ByLayer
 62
  256
370
   -1
100
AcDbLine
 10
66.43871381459064
 20
28.57491371563441
 11
76.43871381459064
 21
28.57491371563441
  0
LINE
  5
1B6
100
AcDbEntity
  8
insulating-layer
  6
ByLayer
 62
  256
370
   -1
100
AcDbLine
 10
71.43871381459064
 20
23.5749137156344
 11
71.43871381459064
 21
33.57491371563441
  0
CIRCLE
  5
1B7
100
AcDbEntity
  8
insulating-layer
  6
ByLayer
 62
  256
370
   -1
100
AcDbCircle
 10
71.43871381459064
 20
28.57491371563441
 40
2
  0
LINE
  5
1B8
100
AcDbEntity
  8
insulating-layer
  6
ByLayer
 62
  256
370
   -1
100
AcDbLine
 10
75.96371381429063
 20
47.62514231563436
 11
85.96371381429063
 21
47.62514231563436
  0
LINE
  5
1B9
100
AcDbEntity
  8
insulating-layer
  6
ByLayer
 62
  256
370
   -1
100
AcDbLine
 10
80.96371381429063
 20
42.62514231563436
 11
80.96371381429063
 21
52.62514231563436
  0
CIRCLE
  5
1BA
100
AcDbEntity
  8
insulating-layer
  6
ByLayer
 62
  256
370
   -1
100
AcDbCircle
 10
80.96371381429063
 20
47.62514231563436
 40
2
  0
LINE
  5
1BB
100
AcDbEntity
  8
insulating-layer
  6
ByLayer
 62
  256
370
   -1
100
AcDbLine
 10
71.20121381429064
 20
66.67514231563445
 11
81.20121381429064
 21
66.67514231563445
  0
LINE
  5
1BC
100
AcDbEntity
  8
insulating-layer
  6
ByLayer
 62
  256
370
   -1
100
AcDbLine
 10
76.20121381429064
 20
61.67514231563444
 11
76.20121381429064
 21
71.67514231563445
  0
CIRCLE
  5
1BD
100
AcDbEntity
  8
insulating-layer
  6
ByLayer
 62
  256
370
   -1
100
AcDbCircle
 10
76.20121381429064
 20
66.67514231563445
 40
2
  0
LINE
  5
1BE
100
AcDbEntity
  8
insulating-layer
  6
ByLayer
 62
  256
370
   -1
100
AcDbLine
 10
47.38871381489056
 20
28.57491371563441
 11
57.38871381489056
 21
28.57491371563441
  0
LINE
  5
1BF
100
AcDbEntity
  8
insulating-layer
  6
ByLayer
 62
  256
370
   -1
100
AcDbLine
 10
52.38871381489056
 20
23.5749137156344
 11
52.38871381489056
 21
33.57491371563441
  0
CIRCLE
  5
1C0
100
AcDbEntity
  8
insulating-layer
  6
ByLayer
 62
  256
370
   -1
100
AcDbCircle
 10
52.38871381489056
 20
28.57491371563441
 40
2
  0
LINE
  5
1C1
100
AcDbEntity
  8
insulating-layer
  6
ByLayer
 62
  256
370
   -1
100
AcDbLine
 10
56.91371381459055
 20
47.62514231563436
 11
66.91371381459055
 21
47.62514231563436
  0
LINE
  5
1C2
100
AcDbEntity
  8
insulating-layer
  6
ByLayer
 62
  256
370
   -1
100
AcDbLine
 10
61.91371381459055
 20
42.62514231563436
 11
61.91371381459055
 21
52.62514231563436
  0
CIRCLE
  5
1C3
100
AcDbEntity
  8
insulating-layer
  6
ByLayer
 62
  256
370
   -1
100
AcDbCircle
 10
61.91371381459055
 20
47.62514231563436
 40
2
  0
LINE
  5
1C4
100
AcDbEntity
  8
insulating-layer
  6
ByLayer
 62
  256
370
   -1
100
AcDbLine
 10
52.15121381459056
 20
66.67514231563445
 11
62.15121381459056
 21
66.67514231563445
  0
LINE
  5
1C5
100
AcDbEntity
  8
insulating-layer
  6
ByLayer
 62
  256
370
   -1
100
AcDbLine
 10
57.15121381459056
 20
61.67514231563444
 11
57.15121381459056
 21
71.67514231563445
  0
CIRCLE
  5
1C6
100
AcDbEntity
  8
insulating-layer
  6
ByLayer
 62
  256
370
   -1
100
AcDbCircle
 10
57.15121381459056
 20
66.67514231563445
 40
2
  0
LINE
  5
1C7
100
AcDbEntity
  8
insulating-layer
  6
ByLayer
 62
  256
370
   -1
100
AcDbLine
 10
28.33871381519049
 20
28.57491371563441
 11
38.33871381519049
 21
28.57491371563441
  0
LINE
  5
1C8
100
AcDbEntity
  8
insulating-layer
  6
ByLayer
 62
  256
370
   -1
100
AcDbLine
 10
33.33871381519049
 20
23.5749137156344
 11
33.33871381519049
 21
33.57491371563441
  0
CIRCLE
  5
1C9
100
AcDbEntity
  8
insulating-layer
  6
ByLayer
 62
  256
370
   -1
100
AcDbCircle
 10
33.33871381519049
 20
28.57491371563441
 40
2
  0
LINE
  5
1CA
100
AcDbEntity
  8
insulating-layer
  6
ByLayer
 62
  256
370
   -1
100
AcDbLine
 10
37.86371381489047
 20
47.62514231563436
 11
47.86371381489047
 21
47.62514231563436
  0
LINE
  5
1CB
100
AcDbEntity
  8
insulating-layer
  6
ByLayer
 62
  256
370
   -1
100
AcDbLine
 10
42.86371381489047
 20
42.62514231563436
 11
42.86371381489047
 21
52.62514231563436
  0
CIRCLE
  5
1CC
100
AcDbEntity
  8
insulating-layer
  6
ByLayer
 62
  256
370
   -1
100
AcDbCircle
 10
42.86371381489047
 20
47.62514231563436
 40
2
  0
LINE
  5
1CD
100
AcDbEntity
  8
insulating-layer
  6
ByLayer
 62
  256
370
   -1
100
AcDbLine
 10
33.10121381489049
 20
66.67514231563445
 11
43.10121381489049
 21
66.67514231563445
  0
LINE
  5
1CE
100
AcDbEntity
  8
insulating-layer
  6
ByLayer
 62
  256
370
   -1
100
AcDbLine
 10
38.10121381489049
 20
61.67514231563444
 11
38.10121381489049
 21
71.67514231563445
  0
CIRCLE
  5
1CF
100
AcDbEntity
  8
insulating-layer
  6
ByLayer
 62
  256
370
   -1
100
AcDbCircle
 10
38.10121381489049
 20
66.67514231563445
 40
2
  0
CIRCLE
  5
1D0
100
AcDbEntity
  8
bottom-label
  6
ByLayer
 62
  256
370
   -1
100
AcDbCircle
 10
277.7510339917412
 20
17.49987737763432
 40
6.5
  0
LINE
  5
1D1
100
AcDbEntity
  8
bottom-label
  6
ByLayer
 62
  256
370
   -1
100
AcDbLine
 10
269.7510339917412
 20
17.49987737763432
 11
285.7510339917412
 21
17.49987737763432
  0
LINE
  5
1D2
100
AcDbEntity
  8
bottom-label
  6
ByLayer
 62
  256
370
   -1
100
AcDbLine
 10
277.7510339917412
 20
9.49987737763432
 11
277.7510339917412
 21
25.49987737763432
  0
CIRCLE
  5
1D3
100
AcDbEntity
  8
bottom-label
  6
ByLayer
 62
  256
370
   -1
100
AcDbCircle
 10
85.75121381398982
 20
68.20027652679225
 40
6.5
  0
CIRCLE
  5
1D4
100
AcDbEntity
  8
bottom-label
  6
ByLayer
 62
  256
370
   -1
100
AcDbCircle
 10
200.0195018100927
 20
68.20027652679225
 40
6.5
  0
LINE
  5
1D5
100
AcDbEntity
  8
bottom-label
  6
ByLayer
 62
  256
370
   -1
100
AcDbLine
 10
77.75121381398982
 20
68.20027652679225
 11
93.75121381398982
 21
68.20027652679225
  0
LINE
  5
1D6
100
AcDbEntity
  8
bottom-label
  6
ByLayer
 62
  256
370
   -1
100
AcDbLine
 10
192.0195018100927
 20
68.20027652679225
 11
208.0195018100927
 21
68.20027652679225
  0
LINE
  5
1D7
100
AcDbEntity
  8
bottom-label
  6
ByLayer
 62
  256
370
   -1
100
AcDbLine
 10
85.75121381398982
 20
60.20027652679225
 11
85.75121381398982
 21
76.20027652679225
  0
LINE
  5
1D8
100
AcDbEntity
  8
bottom-label
  6
ByLayer
 62
  256
370
   -1
100
AcDbLine
 10
200.0195018100927
 20
60.20027652679225
 11
200.0195018100927
 21
76.20027652679225
  0
CIRCLE
  5
1D9
100
AcDbEntity
  8
bottom-label
  6
ByLayer
 62
  256
370
   -1
100
AcDbCircle
 10
8.000000691741205
 20
17.49987737763432
 40
6.5
  0
LINE
  5
1DA
100
AcDbEntity
  8
bottom-label
  6
ByLayer
 62
  256
370
   -1
100
AcDbLine
 10
6.917412052054317e-07
 20
17.49987737763432
 11
16.00000069174121
 21
17.49987737763432
  0
LINE
  5
1DB
100
AcDbEntity
  8
bottom-label
  6
ByLayer
 62
  256
370
   -1
100
AcDbLine
 10
8.000000691741205
 20
9.49987737763432
 11
8.000000691741205
 21
25.49987737763432
  0
INSERT
  5
1DC
100
AcDbEntity
  8
helper-top1
  6
ByLayer
 62
  256
370
   -1
100
AcDbBlockReference
  2
top-plate-pcb
 10
133.7580195447411
 20
105.5506051596344
 30
0
 41
1
 42
1
 43
0
 50
0
 70
    1
 71
    1
 44
0
 45
0
  0
LINE
  5
1DD
100
AcDbEntity
  8
insulating-layer
  6
ByLayer
 62
  256
370
   -1
100
AcDbLine
 10
18.7580195447411
 20
17.55060515963442
 11
28.7580195447411
 21
17.55060515963442
  0
LINE
  5
1DE
100
AcDbEntity
  8
insulating-layer
  6
ByLayer
 62
  256
370
   -1
100
AcDbLine
 10
23.7580195447411
 20
12.55060515963442
 11
23.7580195447411
 21
22.55060515963442
  0
CIRCLE
  5
1DF
100
AcDbEntity
  8
insulating-layer
  6
ByLayer
 62
  256
370
   -1
100
AcDbCircle
 10
23.7580195447411
 20
17.55060515963442
 40
2
  0
LINE
  5
1E0
100
AcDbEntity
  8
insulating-layer
  6
ByLayer
 62
  256
370
   -1
100
AcDbLine
 10
26.7580195447411
 20
55.55060515963442
 11
36.7580195447411
 21
55.55060515963442
  0
LINE
  5
1E1
100
AcDbEntity
  8
insulating-layer
  6
ByLayer
 62
  256
370
   -1
100
AcDbLine
 10
31.7580195447411
 20
50.55060515963442
 11
31.7580195447411
 21
60.55060515963442
  0
CIRCLE
  5
1E2
100
AcDbEntity
  8
insulating-layer
  6
ByLayer
 62
  256
370
   -1
100
AcDbCircle
 10
31.7580195447411
 20
55.55060515963442
 40
2
  0
LINE
  5
1E3
100
AcDbEntity
  8
insulating-layer
  6
ByLayer
 62
  256
370
   -1
100
AcDbLine
 10
56.92198732649894
 20
37.5287508011766
 11
66.92198732649894
 21
37.5287508011766
  0
LINE
  5
1E4
100
AcDbEntity
  8
insulating-layer
  6
ByLayer
 62
  256
370
   -1
100
AcDbLine
 10
61.92198732649894
 20
32.5287508011766
 11
61.92198732649894
 21
42.5287508011766
  0
CIRCLE
  5
1E5
100
AcDbEntity
  8
insulating-layer
  6
ByLayer
 62
  256
370
   -1
100
AcDbCircle
 10
61.92198732649894
 20
37.5287508011766
 40
2
  0
LINE
  5
1E6
100
AcDbEntity
  8
insulating-layer
  6
ByLayer
 62
  256
370
   -1
100
AcDbLine
 10
125.7580195447411
 20
9.550605159634415
 11
135.7580195447411
 21
9.550605159634415
  0
LINE
  5
1E7
100
AcDbEntity
  8
insulating-layer
  6
ByLayer
 62
  256
370
   -1
100
AcDbLine
 10
130.7580195447411
 20
4.550605159634415
 11
130.7580195447411
 21
14.55060515963441
  0
CIRCLE
  5
1E8
100
AcDbEntity
  8
insulating-layer
  6
ByLayer
 62
  256
370
   -1
100
AcDbCircle
 10
130.7580195447411
 20
9.550605159634415
 40
2
  0
LINE
  5
1E9
100
AcDbEntity
  8
insulating-layer
  6
ByLayer
 62
  256
370
   -1
100
AcDbLine
 10
271.2366924782882
 20
38.47485309011724
 11
281.2366924782882
 21
38.47485309011724
  0
LINE
  5
1EA
100
AcDbEntity
  8
insulating-layer
  6
ByLayer
 62
  256
370
   -1
100
AcDbLine
 10
276.2366924782882
 20
33.47485309011724
 11
276.2366924782882
 21
43.47485309011724
  0
CIRCLE
  5
1EB
100
AcDbEntity
  8
insulating-layer
  6
ByLayer
 62
  256
370
   -1
100
AcDbCircle
 10
276.2366924782882
 20
38.47485309011724
 40
2
  0
ENDSEC
  0
SECTION
  2
OBJECTS
  0
DICTIONARY
  5
C
330
0
100
AcDbDictionary
281
    1
  3
ACAD_GROUP
350
D
  0
DICTIONARY
  5
D
330
C
100
AcDbDictionary
281
    1
  0
ENDSEC
  0
EOF
