999
dxfrw 0.6.1
  0
SECTION
  2
HEADER
  9
$ACADVER
  1
AC1021
  9
$DWGCODEPAGE
  3
ANSI_1252
  9
$INSBASE
 10
0
 20
0
 30
0
  9
$EXTMIN
 10
-2077.0062933
 20
-773.6695520145903
 30
0
  9
$EXTMAX
 10
0
 20
0
 30
0
  9
$LIMMIN
 10
0
 20
0
  9
$LIMMAX
 10
420
 20
297
  9
$ORTHOMODE
 70
    0
  9
$REGENMODE
 70
    1
  9
$FILLMODE
 70
    1
  9
$QTEXTMODE
 70
    0
  9
$MIRRTEXT
 70
    0
  9
$LTSCALE
 40
1
  9
$ATTMODE
 70
    0
  9
$TEXTSIZE
 40
2.5
  9
$TRACEWID
 40
15.68
  9
$TEXTSTYLE
  7
STANDARD
  9
$CLAYER
  8
insulating-layer
  9
$CELTYPE
  6
BYLAYER
  9
$CECOLOR
 62
  256
  9
$CELTSCALE
 40
1
  9
$DISPSILH
 70
    0
  9
$DIMSCALE
 40
1
  9
$DIMASZ
 40
2.5
  9
$DIMEXO
 40
0.625
  9
$DIMDLI
 40
3.75
  9
$DIMRND
 40
0
  9
$DIMDLE
 40
0
  9
$DIMEXE
 40
1.25
  9
$DIMTP
 40
0
  9
$DIMTM
 40
0
  9
$DIMTXT
 40
2.5
  9
$DIMCEN
 40
2.5
  9
$DIMTSZ
 40
0
  9
$DIMTOL
 70
    0
  9
$DIMLIM
 70
    0
  9
$DIMTIH
 70
    0
  9
$DIMTOH
 70
    0
  9
$DIMSE1
 70
    0
  9
$DIMSE2
 70
    0
  9
$DIMTAD
 70
    1
  9
$DIMZIN
 70
    8
  9
$DIMBLK
  1

  9
$DIMASO
 70
    1
  9
$DIMSHO
 70
    1
  9
$DIMPOST
  1

  9
$DIMAPOST
  1

  9
$DIMALT
 70
    0
  9
$DIMALTD
 70
    3
  9
$DIMALTF
 40
0.03937
  9
$DIMLFAC
 40
1
  9
$DIMTOFL
 70
    1
  9
$DIMTVP
 40
0
  9
$DIMTIX
 70
    0
  9
$DIMSOXD
 70
    0
  9
$DIMSAH
 70
    0
  9
$DIMBLK1
  1

  9
$DIMBLK2
  1

  9
$DIMSTYLE
  2
Standard
  9
$DIMCLRD
 70
    0
  9
$DIMCLRE
 70
    0
  9
$DIMCLRT
 70
    0
  9
$DIMTFAC
 40
1
  9
$DIMGAP
 40
0.625
  9
$DIMJUST
 70
    0
  9
$DIMSD1
 70
    0
  9
$DIMSD2
 70
    0
  9
$DIMTOLJ
 70
    0
  9
$DIMTZIN
 70
    8
  9
$DIMALTZ
 70
    0
  9
$DIMALTTZ
 70
    0
  9
$DIMUPT
 70
    0
  9
$DIMDEC
 70
    4
  9
$DIMTDEC
 70
    2
  9
$DIMALTU
 70
    2
  9
$DIMALTTD
 70
    3
  9
$DIMTXSTY
  7
standard
  9
$DIMAUNIT
 70
    0
  9
$DIMADEC
 70
    0
  9
$DIMALTRND
 40
0
  9
$DIMAZIN
 70
    0
  9
$DIMDSEP
 70
    0
  9
$DIMATFIT
 70
    3
  9
$DIMFRAC
 70
    0
  9
$DIMLDRBLK
  1
STANDARD
  9
$DIMLUNIT
 70
    2
  9
$DIMLWD
 70
   -2
  9
$DIMLWE
 70
   -2
  9
$DIMTMOVE
 70
    0
  9
$DIMFXL
 40
1
  9
$DIMFXLON
 70
    0
  9
$DIMJOGANG
 40
0.7854
  9
$DIMTFILL
 70
    0
  9
$DIMTFILLCLR
 70
    0
  9
$DIMARCSYM
 70
    0
  9
$DIMLTYPE
  6

  9
$DIMLTEX1
  6

  9
$DIMLTEX2
  6

  9
$LUNITS
 70
    2
  9
$LUPREC
 70
    4
  9
$SKETCHINC
 40
1
  9
$FILLETRAD
 40
0
  9
$AUNITS
 70
    0
  9
$AUPREC
 70
    2
  9
$MENU
  1
.
  9
$ELEVATION
 40
0
  9
$PELEVATION
 40
0
  9
$THICKNESS
 40
0
  9
$LIMCHECK
 70
    0
  9
$CHAMFERA
 40
0
  9
$CHAMFERB
 40
0
  9
$CHAMFERC
 40
0
  9
$CHAMFERD
 40
0
  9
$SKPOLY
 70
    0
  9
$USRTIMER
 70
    1
  9
$ANGBASE
 50
0
  9
$ANGDIR
 70
    0
  9
$PDMODE
 70
   34
  9
$PDSIZE
 40
0
  9
$PLINEWID
 40
0
  9
$SPLFRAME
 70
    0
  9
$SPLINETYPE
 70
    2
  9
$SPLINESEGS
 70
    8
  9
$HANDSEED
  5
20000
  9
$SURFTAB1
 70
    6
  9
$SURFTAB2
 70
    6
  9
$SURFTYPE
 70
    6
  9
$SURFU
 70
    6
  9
$SURFV
 70
    6
  9
$UCSBASE
  2

  9
$UCSNAME
  2

  9
$UCSORG
 10
0
 20
0
 30
0
  9
$UCSXDIR
 10
1
 20
0
 30
0
  9
$UCSYDIR
 10
0
 20
1
 30
0
  9
$UCSORTHOREF
  2

  9
$UCSORTHOVIEW
 70
    0
  9
$UCSORGTOP
 10
0
 20
0
 30
0
  9
$UCSORGBOTTOM
 10
0
 20
0
 30
0
  9
$UCSORGLEFT
 10
0
 20
0
 30
0
  9
$UCSORGRIGHT
 10
0
 20
0
 30
0
  9
$UCSORGFRONT
 10
0
 20
0
 30
0
  9
$UCSORGBACK
 10
0
 20
0
 30
0
  9
$PUCSBASE
  2

  9
$PUCSNAME
  2

  9
$PUCSORG
 10
0
 20
0
 30
0
  9
$PUCSXDIR
 10
1
 20
0
 30
0
  9
$PUCSYDIR
 10
0
 20
1
 30
0
  9
$PUCSORTHOREF
  2

  9
$PUCSORTHOVIEW
 70
    0
  9
$PUCSORGTOP
 10
0
 20
0
 30
0
  9
$PUCSORGBOTTOM
 10
0
 20
0
 30
0
  9
$PUCSORGLEFT
 10
0
 20
0
 30
0
  9
$PUCSORGRIGHT
 10
0
 20
0
 30
0
  9
$PUCSORGFRONT
 10
0
 20
0
 30
0
  9
$PUCSORGBACK
 10
0
 20
0
 30
0
  9
$USERI1
 70
    0
  9
$USERI2
 70
    0
  9
$USERI3
 70
    0
  9
$USERI4
 70
    0
  9
$USERI5
 70
    0
  9
$USERR1
 40
0
  9
$USERR2
 40
0
  9
$USERR3
 40
0
  9
$USERR4
 40
0
  9
$USERR5
 40
0
  9
$WORLDVIEW
 70
    1
  9
$SHADEDGE
 70
    3
  9
$SHADEDIF
 70
   70
  9
$TILEMODE
 70
    1
  9
$MAXACTVP
 70
   64
  9
$PINSBASE
 10
2085.267480502954
 20
831.4912357939467
 30
0
  9
$PLIMCHECK
 70
    0
  9
$PEXTMIN
 10
0
 20
0
 30
0
  9
$PEXTMAX
 10
0
 20
0
 30
0
  9
$GRIDMODE
 70
    1
  9
$SNAPSTYLE
 70
    0
  9
$GRIDUNIT
 10
0
 20
0
  9
$PLIMMIN
 10
0
 20
0
  9
$PLIMMAX
 10
297
 20
210
  9
$UNITMODE
 70
    0
  9
$VISRETAIN
 70
    1
  9
$PLINEGEN
 70
    0
  9
$PSLTSCALE
 70
    1
  9
$TREEDEPTH
 70
 3020
  9
$CMLSTYLE
  2
Standard
  9
$CMLJUST
 70
    0
  9
$CMLSCALE
 40
20
  9
$PROXYGRAPHICS
 70
    1
  9
$MEASUREMENT
 70
    1
  9
$CELWEIGHT
370
   -1
  9
$ENDCAPS
280
    0
  9
$JOINSTYLE
280
    0
  9
$LWDISPLAY
290
    0
  9
$INSUNITS
 70
    4
  9
$HYPERLINKBASE
  1

  9
$STYLESHEET
  1

  9
$XEDIT
290
    1
  9
$CEPSNTYPE
380
    0
  9
$PSTYLEMODE
290
    1
  9
$EXTNAMES
290
    1
  9
$PSVPSCALE
 40
1
  9
$OLESTARTUP
290
    0
  9
$SORTENTS
280
  127
  9
$INDEXCTL
280
    0
  9
$HIDETEXT
280
    1
  9
$XCLIPFRAME
290
    0
  9
$HALOGAP
280
    0
  9
$OBSCOLOR
 70
  257
  9
$OBSLTYPE
280
    0
  9
$INTERSECTIONDISPLAY
280
    0
  9
$INTERSECTIONCOLOR
 70
  257
  9
$DIMASSOC
280
    0
  9
$PROJECTNAME
  1

  9
$CAMERADISPLAY
290
    0
  9
$LENSLENGTH
 40
50
  9
$CAMERAHEIGHT
 40
0
  9
$STEPSPERSEC
 40
2
  9
$STEPSIZE
 40
50
  9
$3DDWFPREC
 40
2
  9
$PSOLWIDTH
 40
5
  9
$PSOLHEIGHT
 40
80
  9
$LOFTANG1
 40
1.570796326794897
  9
$LOFTANG2
 40
1.570796326794897
  9
$LOFTMAG1
 40
0
  9
$LOFTMAG2
 40
0
  9
$LOFTPARAM
 70
    7
  9
$LOFTNORMALS
280
    1
  9
$LATITUDE
 40
1
  9
$LONGITUDE
 40
1
  9
$NORTHDIRECTION
 40
0
  9
$TIMEZONE
 70
-8000
  9
$LIGHTGLYPHDISPLAY
280
    1
  9
$TILEMODELIGHTSYNCH
280
    1
  9
$SOLIDHIST
280
    1
  9
$SHOWHIST
280
    1
  9
$DWFFRAME
280
    2
  9
$DGNFRAME
280
    0
  9
$REALWORLDSCALE
290
    1
  9
$INTERFERECOLOR
 62
    1
  9
$CSHADOW
280
    0
  9
$SHADOWPLANELOCATION
 40
0
  0
ENDSEC
  0
SECTION
  2
CLASSES
  0
ENDSEC
  0
SECTION
  2
TABLES
  0
TABLE
  2
VPORT
  5
8
330
0
100
AcDbSymbolTable
 70
    1
  0
VPORT
  5
31
330
2
100
AcDbSymbolTableRecord
100
AcDbViewportTableRecord
  2
*ACTIVE
 70
    0
 10
0
 20
0
 11
1
 21
1
 12
-897.3641264275315
 22
-254.4957668192555
 13
0
 23
0
 14
10
 24
10
 15
10
 25
10
 16
0
 26
0
 36
1
 17
0
 27
0
 37
0
 40
302.9843956157839
 41
0.9547123623011016
 42
50
 43
0
 44
0
 50
0
 51
0
 71
    0
 72
  100
 73
    1
 74
    3
 75
    0
 76
    1
 77
    0
 78
    0
281
    0
 65
    1
110
0
120
0
130
0
111
1
121
0
131
0
112
0
122
1
132
0
 79
    0
146
0
348
10020
 60
    7
 61
    5
292
1
282
    1
141
0
142
0
 63
  250
421
3358443
  0
ENDTAB
  0
TABLE
  2
LTYPE
  5
5
330
0
100
AcDbSymbolTable
 70
    4
  0
LTYPE
  5
14
330
5
100
AcDbSymbolTableRecord
100
AcDbLinetypeTableRecord
  2
ByBlock
 70
    0
  3

 72
   65
 73
    0
 40
0
  0
LTYPE
  5
15
330
5
100
AcDbSymbolTableRecord
100
AcDbLinetypeTableRecord
  2
ByLayer
 70
    0
  3

 72
   65
 73
    0
 40
0
  0
LTYPE
  5
16
330
5
100
AcDbSymbolTableRecord
100
AcDbLinetypeTableRecord
  2
Continuous
 70
    0
  3
Solid line
 72
   65
 73
    0
 40
0
  0
LTYPE
  5
32
330
5
100
AcDbSymbolTableRecord
100
AcDbLinetypeTableRecord
  2
DOT
 70
    0
  3
Dot . . . . . . . . . . . . . . . . . . . . . .
 72
   65
 73
    2
 40
6.35
 49
0
 74
    0
 49
-6.35
 74
    0
  0
LTYPE
  5
33
330
5
100
AcDbSymbolTableRecord
100
AcDbLinetypeTableRecord
  2
DOTTINY
 70
    0
  3
Dot (.15x) .....................................
 72
   65
 73
    2
 40
0.9525
 49
0
 74
    0
 49
-0.9525
 74
    0
  0
LTYPE
  5
34
330
5
100
AcDbSymbolTableRecord
100
AcDbLinetypeTableRecord
  2
DOT2
 70
    0
  3
Dot (.5x) .....................................
 72
   65
 73
    2
 40
3.175
 49
0
 74
    0
 49
-3.175
 74
    0
  0
LTYPE
  5
35
330
5
100
AcDbSymbolTableRecord
100
AcDbLinetypeTableRecord
  2
DOTX2
 70
    0
  3
Dot (2x) .  .  .  .  .  .  .  .  .  .  .  .  .
 72
   65
 73
    2
 40
12.7
 49
0
 74
    0
 49
-12.7
 74
    0
  0
LTYPE
  5
36
330
5
100
AcDbSymbolTableRecord
100
AcDbLinetypeTableRecord
  2
DASHED
 70
    0
  3
Dashed _ _ _ _ _ _ _ _ _ _ _ _ _ _ _ _ _
 72
   65
 73
    2
 40
19.05
 49
12.7
 74
    0
 49
-6.35
 74
    0
  0
LTYPE
  5
37
330
5
100
AcDbSymbolTableRecord
100
AcDbLinetypeTableRecord
  2
DASHEDTINY
 70
    0
  3
Dashed (.15x) _ _ _ _ _ _ _ _ _ _ _ _ _ _ _ _ _
 72
   65
 73
    2
 40
2.8575
 49
1.905
 74
    0
 49
-0.9525
 74
    0
  0
LTYPE
  5
38
330
5
100
AcDbSymbolTableRecord
100
AcDbLinetypeTableRecord
  2
DASHED2
 70
    0
  3
Dashed (.5x) _ _ _ _ _ _ _ _ _ _ _ _ _ _ _ _ _
 72
   65
 73
    2
 40
9.524999999999999
 49
6.35
 74
    0
 49
-3.175
 74
    0
  0
LTYPE
  5
39
330
5
100
AcDbSymbolTableRecord
100
AcDbLinetypeTableRecord
  2
DASHEDX2
 70
    0
  3
Dashed (2x) ____  ____  ____  ____  ____  ___
 72
   65
 73
    2
 40
38.09999999999999
 49
25.4
 74
    0
 49
-12.7
 74
    0
  0
LTYPE
  5
3A
330
5
100
AcDbSymbolTableRecord
100
AcDbLinetypeTableRecord
  2
DASHDOT
 70
    0
  3
Dash dot __ . __ . __ . __ . __ . __ . __ . __
 72
   65
 73
    4
 40
25.4
 49
12.7
 74
    0
 49
-6.35
 74
    0
 49
0
 74
    0
 49
-6.35
 74
    0
  0
LTYPE
  5
3B
330
5
100
AcDbSymbolTableRecord
100
AcDbLinetypeTableRecord
  2
DASHDOTTINY
 70
    0
  3
Dash dot (.15x) _._._._._._._._._._._._._._._.
 72
   65
 73
    4
 40
3.81
 49
1.905
 74
    0
 49
-0.9525
 74
    0
 49
0
 74
    0
 49
-0.9525
 74
    0
  0
LTYPE
  5
3C
330
5
100
AcDbSymbolTableRecord
100
AcDbLinetypeTableRecord
  2
DASHDOT2
 70
    0
  3
Dash dot (.5x) _._._._._._._._._._._._._._._.
 72
   65
 73
    4
 40
12.7
 49
6.35
 74
    0
 49
-3.175
 74
    0
 49
0
 74
    0
 49
-3.175
 74
    0
  0
LTYPE
  5
3D
330
5
100
AcDbSymbolTableRecord
100
AcDbLinetypeTableRecord
  2
DASHDOTX2
 70
    0
  3
Dash dot (2x) ____  .  ____  .  ____  .  ___
 72
   65
 73
    4
 40
50.8
 49
25.4
 74
    0
 49
-12.7
 74
    0
 49
0
 74
    0
 49
-12.7
 74
    0
  0
LTYPE
  5
3E
330
5
100
AcDbSymbolTableRecord
100
AcDbLinetypeTableRecord
  2
DIVIDE
 70
    0
  3
Divide ____ . . ____ . . ____ . . ____ . . ____
 72
   65
 73
    6
 40
31.75
 49
12.7
 74
    0
 49
-6.35
 74
    0
 49
0
 74
    0
 49
-6.35
 74
    0
 49
0
 74
    0
 49
-6.35
 74
    0
  0
LTYPE
  5
3F
330
5
100
AcDbSymbolTableRecord
100
AcDbLinetypeTableRecord
  2
DIVIDETINY
 70
    0
  3
Divide (.15x) __..__..__..__..__..__..__..__.._
 72
   65
 73
    6
 40
4.7625
 49
1.905
 74
    0
 49
-0.9525
 74
    0
 49
0
 74
    0
 49
-0.9525
 74
    0
 49
0
 74
    0
 49
-0.9525
 74
    0
  0
LTYPE
  5
40
330
5
100
AcDbSymbolTableRecord
100
AcDbLinetypeTableRecord
  2
DIVIDE2
 70
    0
  3
Divide (.5x) __..__..__..__..__..__..__..__.._
 72
   65
 73
    6
 40
15.875
 49
6.35
 74
    0
 49
-3.175
 74
    0
 49
0
 74
    0
 49
-3.175
 74
    0
 49
0
 74
    0
 49
-3.175
 74
    0
  0
LTYPE
  5
41
330
5
100
AcDbSymbolTableRecord
100
AcDbLinetypeTableRecord
  2
DIVIDEX2
 70
    0
  3
Divide (2x) ________  .  .  ________  .  .  _
 72
   65
 73
    6
 40
63.5
 49
25.4
 74
    0
 49
-12.7
 74
    0
 49
0
 74
    0
 49
-12.7
 74
    0
 49
0
 74
    0
 49
-12.7
 74
    0
  0
LTYPE
  5
42
330
5
100
AcDbSymbolTableRecord
100
AcDbLinetypeTableRecord
  2
BORDER
 70
    0
  3
Border __ __ . __ __ . __ __ . __ __ . __ __ .
 72
   65
 73
    6
 40
44.45
 49
12.7
 74
    0
 49
-6.35
 74
    0
 49
12.7
 74
    0
 49
-6.35
 74
    0
 49
0
 74
    0
 49
-6.35
 74
    0
  0
LTYPE
  5
43
330
5
100
AcDbSymbolTableRecord
100
AcDbLinetypeTableRecord
  2
BORDERTINY
 70
    0
  3
Border (.15x) __.__.__.__.__.__.__.__.__.__.__.
 72
   65
 73
    6
 40
6.6675
 49
1.905
 74
    0
 49
-0.9525
 74
    0
 49
1.905
 74
    0
 49
-0.9525
 74
    0
 49
0
 74
    0
 49
-0.9525
 74
    0
  0
LTYPE
  5
44
330
5
100
AcDbSymbolTableRecord
100
AcDbLinetypeTableRecord
  2
BORDER2
 70
    0
  3
Border (.5x) __.__.__.__.__.__.__.__.__.__.__.
 72
   65
 73
    6
 40
22.225
 49
6.35
 74
    0
 49
-3.175
 74
    0
 49
6.35
 74
    0
 49
-3.175
 74
    0
 49
0
 74
    0
 49
-3.175
 74
    0
  0
LTYPE
  5
45
330
5
100
AcDbSymbolTableRecord
100
AcDbLinetypeTableRecord
  2
BORDERX2
 70
    0
  3
Border (2x) ____  ____  .  ____  ____  .  ___
 72
   65
 73
    6
 40
88.89999999999999
 49
25.4
 74
    0
 49
-12.7
 74
    0
 49
25.4
 74
    0
 49
-12.7
 74
    0
 49
0
 74
    0
 49
-12.7
 74
    0
  0
LTYPE
  5
46
330
5
100
AcDbSymbolTableRecord
100
AcDbLinetypeTableRecord
  2
CENTER
 70
    0
  3
Center ____ _ ____ _ ____ _ ____ _ ____ _ ____
 72
   65
 73
    4
 40
50.8
 49
31.75
 74
    0
 49
-6.35
 74
    0
 49
6.35
 74
    0
 49
-6.35
 74
    0
  0
LTYPE
  5
47
330
5
100
AcDbSymbolTableRecord
100
AcDbLinetypeTableRecord
  2
CENTERTINY
 70
    0
  3
Center (.15x) ___ _ ___ _ ___ _ ___ _ ___ _ ___
 72
   65
 73
    4
 40
7.619999999999999
 49
4.7625
 74
    0
 49
-0.9525
 74
    0
 49
0.9525
 74
    0
 49
-0.9525
 74
    0
  0
LTYPE
  5
48
330
5
100
AcDbSymbolTableRecord
100
AcDbLinetypeTableRecord
  2
CENTER2
 70
    0
  3
Center (.5x) ___ _ ___ _ ___ _ ___ _ ___ _ ___
 72
   65
 73
    4
 40
28.575
 49
19.05
 74
    0
 49
-3.175
 74
    0
 49
3.175
 74
    0
 49
-3.175
 74
    0
  0
LTYPE
  5
49
330
5
100
AcDbSymbolTableRecord
100
AcDbLinetypeTableRecord
  2
CENTERX2
 70
    0
  3
Center (2x) ________  __  ________  __  _____
 72
   65
 73
    4
 40
101.6
 49
63.5
 74
    0
 49
-12.7
 74
    0
 49
12.7
 74
    0
 49
-12.7
 74
    0
  0
ENDTAB
  0
TABLE
  2
LAYER
  5
2
330
0
100
AcDbSymbolTable
 70
    1
  0
LAYER
  5
10
330
2
100
AcDbSymbolTableRecord
100
AcDbLayerTableRecord
  2
0
 70
    1
 62
    7
  6
CONTINUOUS
370
   -3
390
F
  0
LAYER
  5
4A
330
2
100
AcDbSymbolTableRecord
100
AcDbLayerTableRecord
  2
centers
 70
    0
 62
    7
  6
CONTINUOUS
370
    0
390
F
  0
LAYER
  5
4B
330
2
100
AcDbSymbolTableRecord
100
AcDbLayerTableRecord
  2
insulating-layer
 70
    0
 62
    7
  6
CONTINUOUS
370
    0
390
F
  0
LAYER
  5
4C
330
2
100
AcDbSymbolTableRecord
100
AcDbLayerTableRecord
  2
outline
 70
    0
 62
    7
  6
CONTINUOUS
370
   13
390
F
  0
ENDTAB
  0
TABLE
  2
STYLE
  5
3
330
0
100
AcDbSymbolTable
 70
    3
  0
STYLE
  5
4D
330
2
100
AcDbSymbolTableRecord
100
AcDbTextStyleTableRecord
  2
Standard
 70
    0
 40
0
 41
1
 50
0
 71
    0
 42
1
  3
txt
  4

  0
ENDTAB
  0
TABLE
  2
VIEW
  5
6
330
0
100
AcDbSymbolTable
 70
    0
  0
ENDTAB
  0
TABLE
  2
UCS
  5
7
330
0
100
AcDbSymbolTable
 70
    0
  0
ENDTAB
  0
TABLE
  2
APPID
  5
9
330
0
100
AcDbSymbolTable
 70
    1
  0
APPID
  5
12
330
9
100
AcDbSymbolTableRecord
100
AcDbRegAppTableRecord
  2
ACAD
 70
    0
  0
APPID
  5
4E
330
9
100
AcDbSymbolTableRecord
100
AcDbRegAppTableRecord
  2
LibreCad
 70
    0
  0
ENDTAB
  0
TABLE
  2
DIMSTYLE
  5
A
330
0
100
AcDbSymbolTable
 70
    1
100
AcDbDimStyleTable
 71
    1
  0
DIMSTYLE
105
4F
330
A
100
AcDbSymbolTableRecord
100
AcDbDimStyleTableRecord
  2
Standard
 70
    0
 40
1
 41
2.5
 42
0.625
 43
0.38
 44
1.25
 45
0
 46
0
 47
0
 48
0
140
2.5
141
0.09
142
0
143
25.4
144
1
145
0
146
1
147
0.625
148
0
 71
    0
 72
    0
 73
    0
 74
    1
 75
    0
 76
    0
 77
    0
 78
    0
 79
    0
170
    0
171
    2
172
    0
173
    0
174
    0
175
    0
176
    0
177
    0
178
    0
179
    0
271
    4
272
    4
273
    2
274
    2
275
    0
276
    0
277
    2
278
   46
279
    0
280
    0
281
    0
282
    0
283
    1
284
    0
285
    0
286
    0
288
    0
289
    3
340
Standard
341

371
   -2
372
   -2
  0
ENDTAB
  0
TABLE
  2
BLOCK_RECORD
  5
1
330
0
100
AcDbSymbolTable
 70
    2
  0
BLOCK_RECORD
  5
1F
330
1
100
AcDbSymbolTableRecord
100
AcDbBlockTableRecord
  2
*Model_Space
 70
    0
280
    1
281
    0
  0
BLOCK_RECORD
  5
1E
330
1
100
AcDbSymbolTableRecord
100
AcDbBlockTableRecord
  2
*Paper_Space
 70
    0
280
    1
281
    0
  0
ENDTAB
  0
ENDSEC
  0
SECTION
  2
BLOCKS
  0
BLOCK
  5
20
330
1F
100
AcDbEntity
  8
0
100
AcDbBlockBegin
  2
*Model_Space
 70
    0
 10
0
 20
0
 30
0
  3
*Model_Space
  1

  0
ENDBLK
  5
21
330
1F
100
AcDbEntity
  8
0
100
AcDbBlockEnd
  0
BLOCK
  5
1C
330
1B
100
AcDbEntity
  8
0
100
AcDbBlockBegin
  2
*Paper_Space
 70
    0
 10
0
 20
0
 30
0
  3
*Paper_Space
  1

  0
ENDBLK
  5
1D
330
1F
100
AcDbEntity
  8
0
100
AcDbBlockEnd
  0
ENDSEC
  0
SECTION
  2
ENTITIES
  0
LWPOLYLINE
  5
50
100
AcDbEntity
  8
outline
  6
ByLayer
 62
    0
370
   -1
100
AcDbPolyline
 90
   85
 70
    1
 43
0
 10
-2079.85884326
 20
-697.8660159999999
 10
-2079.8974284
 20
-697.933834
 10
-2079.93050123
 20
-698.005462
 10
-2079.95668406
 20
-698.07836
 10
-2079.97873253
 20
-698.155322
 10
-2079.99389125
 20
-698.231268
 10
-2080.00353715
 20
-698.309754
 10
-2080.0062933
 20
-698.388494
 10
-2080.0062933
 20
-773.5879245
 10
-2080.00353715
 20
-773.66647146
 10
-2079.99389125
 20
-773.74364174
 10
-2079.97873253
 20
-773.8208120199999
 10
-2079.95668406
 20
-773.8966056199999
 10
-2079.93050123
 20
-773.97101746
 10
-2079.8974284
 20
-774.04129672
 10
-2079.85884326
 20
-774.11019676
 10
-2079.8147453
 20
-774.17634344
 10
-2079.76651578
 20
-774.23697832
 10
-2079.71276938
 20
-774.29485476
 10
-2079.65489294
 20
-774.34860116
 10
-2079.5942606
 20
-774.39683068
 10
-2079.52811646
 20
-774.44092762
 10
-2079.46059056
 20
-774.479513776
 10
-2079.38893462
 20
-774.512586862
 10
-2079.31589438
 20
-774.53876969
 10
-2079.2387241
 20
-774.559439956
 10
-2079.16293304
 20
-774.5759766260001
 10
-2079.08438354
 20
-774.585622784
 10
-2079.00583912
 20
-774.588378938
 10
-1794.25602
 20
-774.588378938
 10
-1794.17728
 20
-774.585622784
 10
-1794.10108
 20
-774.5759766260001
 10
-1794.02234
 20
-774.559439956
 10
-1793.94868
 20
-774.53876969
 10
-1793.87248
 20
-774.512586862
 10
-1793.8039
 20
-774.479513776
 10
-1793.73532
 20
-774.44092762
 10
-1793.66674
 20
-774.39683068
 10
-1793.60832
 20
-774.34860116
 10
-1793.5499
 20
-774.29485476
 10
-1793.49656
 20
-774.23697832
 10
-1793.4483
 20
-774.17634344
 10
-1793.40258
 20
-774.11019676
 10
-1793.36448
 20
-774.04129672
 10
-1793.33146
 20
-773.97101746
 10
-1793.30606
 20
-773.8966056199999
 10
-1793.28574
 20
-773.8208120199999
 10
-1793.26796
 20
-773.74364174
 10
-1793.2578
 20
-773.66647146
 10
-1793.25526
 20
-773.5879245
 10
-1793.25526
 20
-698.388494
 10
-1793.2578
 20
-698.309754
 10
-1793.26796
 20
-698.231268
 10
-1793.28574
 20
-698.155322
 10
-1793.30606
 20
-698.07836
 10
-1793.33146
 20
-698.005462
 10
-1793.36448
 20
-697.933834
 10
-1793.40258
 20
-697.8660159999999
 10
-1793.4483
 20
-697.799976
 10
-1793.49656
 20
-697.739524
 10
-1793.5499
 20
-697.681612
 10
-1793.60832
 20
-697.62751
 10
-1793.66674
 20
-697.579504
 10
-1793.73532
 20
-697.535562
 10
-1793.8039
 20
-697.4967
 10
-1793.87248
 20
-697.463426
 10
-1793.94868
 20
-697.437518
 10
-1794.02234
 20
-697.415674
 10
-1794.10108
 20
-697.400434
 10
-1794.17728
 20
-697.390528
 10
-1794.25602
 20
-697.387988
 10
-2079.00583912
 20
-697.387988
 10
-2079.08438354
 20
-697.390528
 10
-2079.16293304
 20
-697.400434
 10
-2079.2387241
 20
-697.415674
 10
-2079.31589438
 20
-697.437518
 10
-2079.38893462
 20
-697.463426
 10
-2079.46059056
 20
-697.4967
 10
-2079.52811646
 20
-697.535562
 10
-2079.5942606
 20
-697.579504
 10
-2079.65489294
 20
-697.62751
 10
-2079.71276938
 20
-697.681612
 10
-2079.76651578
 20
-697.739524
 10
-2079.8147453
 20
-697.799976
 10
-2079.85884326
 20
-697.8660159999999
  0
CIRCLE
  5
51
100
AcDbEntity
  8
outline
  6
ByLayer
 62
  256
370
   -1
100
AcDbCircle
 10
-1987.338036341186
 20
-705.8879858532515
 40
7.5
  0
CIRCLE
  5
52
100
AcDbEntity
  8
outline
  6
ByLayer
 62
  256
370
   -1
100
AcDbCircle
 10
-1887.338036341186
 20
-705.8879858532515
 40
7.5
  0
CIRCLE
  5
53
100
AcDbEntity
  8
outline
  6
ByLayer
 62
  256
370
   -1
100
AcDbCircle
 10
-2067.338036341186
 20
-765.088378938
 40
7.5
  0
CIRCLE
  5
54
100
AcDbEntity
  8
outline
  6
ByLayer
 62
  256
370
   -1
100
AcDbCircle
 10
-1807.338036341186
 20
-765.088378938
 40
7.5
  0
LINE
  5
55
100
AcDbEntity
  8
centers
  6
ByLayer
 62
  256
370
   -1
100
AcDbLine
 10
-2058.958947705797
 20
-765.088378938
 11
-2076.151961879871
 21
-765.088378938
  0
LINE
  5
56
100
AcDbEntity
  8
centers
  6
ByLayer
 62
  256
370
   -1
100
AcDbLine
 10
-1798.958947705796
 20
-765.088378938
 11
-1816.15196187987
 21
-765.088378938
  0
LINE
  5
57
100
AcDbEntity
  8
centers
  6
ByLayer
 62
  256
370
   -1
100
AcDbLine
 10
-2067.338036341186
 20
-756.4765378405162
 11
-2067.338036341186
 21
-773.6695520145903
  0
LINE
  5
58
100
AcDbEntity
  8
centers
  6
ByLayer
 62
  256
370
   -1
100
AcDbLine
 10
-1807.338036341186
 20
-756.4765378405162
 11
-1807.338036341186
 21
-773.6695520145903
  0
LINE
  5
59
100
AcDbEntity
  8
centers
  6
ByLayer
 62
  256
370
   -1
100
AcDbLine
 10
-1878.958947705796
 20
-705.8879858532515
 11
-1896.15196187987
 21
-705.8879858532515
  0
LINE
  5
5A
100
AcDbEntity
  8
centers
  6
ByLayer
 62
  256
370
   -1
100
AcDbLine
 10
-1887.338036341186
 20
-697.2761447557677
 11
-1887.338036341186
 21
-714.4691589298418
  0
LINE
  5
5B
100
AcDbEntity
  8
centers
  6
ByLayer
 62
  256
370
   -1
100
AcDbLine
 10
-1978.958947705796
 20
-705.8879858532515
 11
-1996.15196187987
 21
-705.8879858532515
  0
LINE
  5
5C
100
AcDbEntity
  8
centers
  6
ByLayer
 62
  256
370
   -1
100
AcDbLine
 10
-1987.338036341186
 20
-697.2761447557677
 11
-1987.338036341186
 21
-714.4691589298418
  0
LWPOLYLINE
  5
5D
100
AcDbEntity
  8
outline
  6
ByLayer
 62
    0
370
   -1
100
AcDbPolyline
 90
    5
 70
    1
 43
0
 10
-1895.249976
 20
-768.6531744
 10
-1892.251506
 20
-768.6531744
 10
-1892.251506
 20
-771.5635826
 10
-1895.249976
 20
-771.5635826
 10
-1895.249976
 20
-768.6531744
  0
LWPOLYLINE
  5
5E
100
AcDbEntity
  8
outline
  6
ByLayer
 62
    0
370
   -1
100
AcDbPolyline
 90
    5
 70
    1
 43
0
 10
-1900.074452
 20
-700.416938
 10
-1897.075728
 20
-700.416938
 10
-1897.075728
 20
-703.318888
 10
-1900.074452
 20
-703.318888
 10
-1900.074452
 20
-700.416938
  0
LWPOLYLINE
  5
5F
100
AcDbEntity
  8
outline
  6
ByLayer
 62
    0
370
   -1
100
AcDbPolyline
 90
    5
 70
    1
 43
0
 10
-1981.019172
 20
-768.6531744
 10
-1978.020448
 20
-768.6531744
 10
-1978.020448
 20
-771.5635826
 10
-1981.019172
 20
-771.5635826
 10
-1981.019172
 20
-768.6531744
  0
LWPOLYLINE
  5
60
100
AcDbEntity
  8
outline
  6
ByLayer
 62
    0
370
   -1
100
AcDbPolyline
 90
    9
 70
    1
 43
0
 10
-1821.0073
 20
-707.413368
 10
-1820.69996
 20
-708.15454
 10
-1819.95828
 20
-708.461626
 10
-1819.21914
 20
-708.15454
 10
-1818.9118
 20
-707.413368
 10
-1819.21914
 20
-706.671688
 10
-1819.95828
 20
-706.3643479999999
 10
-1820.69996
 20
-706.671688
 10
-1821.0073
 20
-707.413368
  0
LWPOLYLINE
  5
61
100
AcDbEntity
  8
outline
  6
ByLayer
 62
    0
370
   -1
100
AcDbPolyline
 90
    9
 70
    1
 43
0
 10
-1880.539312
 20
-716.380076
 10
-1880.231972
 20
-717.1199779999999
 10
-1879.4908
 20
-717.427318
 10
-1878.749374
 20
-717.1199779999999
 10
-1878.442034
 20
-716.380076
 10
-1878.749374
 20
-715.637126
 10
-1879.4908
 20
-715.33131
 10
-1880.231972
 20
-715.637126
 10
-1880.539312
 20
-716.380076
  0
LWPOLYLINE
  5
62
100
AcDbEntity
  8
outline
  6
ByLayer
 62
    0
370
   -1
100
AcDbPolyline
 90
    9
 70
    1
 43
0
 10
-1937.689312
 20
-716.380076
 10
-1937.381972
 20
-717.1199779999999
 10
-1936.6408
 20
-717.427318
 10
-1935.899374
 20
-717.1199779999999
 10
-1935.592034
 20
-716.380076
 10
-1935.899374
 20
-715.637126
 10
-1936.6408
 20
-715.33131
 10
-1937.381972
 20
-715.637126
 10
-1937.689312
 20
-716.380076
  0
LWPOLYLINE
  5
63
100
AcDbEntity
  8
outline
  6
ByLayer
 62
    0
370
   -1
100
AcDbPolyline
 90
    9
 70
    1
 43
0
 10
-1994.839312
 20
-716.380076
 10
-1994.531972
 20
-717.1199779999999
 10
-1993.7908
 20
-717.427318
 10
-1993.049374
 20
-717.1199779999999
 10
-1992.742034
 20
-716.380076
 10
-1993.049374
 20
-715.637126
 10
-1993.7908
 20
-715.33131
 10
-1994.531972
 20
-715.637126
 10
-1994.839312
 20
-716.380076
  0
LWPOLYLINE
  5
64
100
AcDbEntity
  8
outline
  6
ByLayer
 62
    0
370
   -1
100
AcDbPolyline
 90
    9
 70
    1
 43
0
 10
-2056.7518882
 20
-764.5700482
 10
-2056.444599
 20
-765.3100518
 10
-2055.7032238
 20
-765.617341
 10
-2054.9618232
 20
-765.3100518
 10
-2054.654534
 20
-764.5700482
 10
-2054.9618232
 20
-763.827276
 10
-2055.7032238
 20
-763.5213584000001
 10
-2056.444599
 20
-763.827276
 10
-2056.7518882
 20
-764.5700482
  0
LWPOLYLINE
  5
65
100
AcDbEntity
  8
outline
  6
ByLayer
 62
    0
370
   -1
100
AcDbPolyline
 90
    9
 70
    1
 43
0
 10
-1975.789312
 20
-764.5700482
 10
-1975.483496
 20
-765.3100518
 10
-1974.7408
 20
-765.617341
 10
-1974.000644
 20
-765.3100518
 10
-1973.693304
 20
-764.5700482
 10
-1974.000644
 20
-763.827276
 10
-1974.7408
 20
-763.5213584000001
 10
-1975.483496
 20
-763.827276
 10
-1975.789312
 20
-764.5700482
  0
LWPOLYLINE
  5
66
100
AcDbEntity
  8
outline
  6
ByLayer
 62
    0
370
   -1
100
AcDbPolyline
 90
    9
 70
    1
 43
0
 10
-1899.589312
 20
-764.5700482
 10
-1899.283496
 20
-765.3100518
 10
-1898.5408
 20
-765.617341
 10
-1897.800644
 20
-765.3100518
 10
-1897.493304
 20
-764.5700482
 10
-1897.800644
 20
-763.827276
 10
-1898.5408
 20
-763.5213584000001
 10
-1899.283496
 20
-763.827276
 10
-1899.589312
 20
-764.5700482
  0
LWPOLYLINE
  5
67
100
AcDbEntity
  8
outline
  6
ByLayer
 62
    0
370
   -1
100
AcDbPolyline
 90
    9
 70
    1
 43
0
 10
-1843.62981
 20
-764.5700482
 10
-1843.323994
 20
-765.3100518
 10
-1842.581298
 20
-765.617341
 10
-1841.839872
 20
-765.3100518
 10
-1841.532532
 20
-764.5700482
 10
-1841.839872
 20
-763.827276
 10
-1842.581298
 20
-763.5213584000001
 10
-1843.323994
 20
-763.827276
 10
-1843.62981
 20
-764.5700482
  0
LWPOLYLINE
  5
68
100
AcDbEntity
  8
outline
  6
ByLayer
 62
    0
370
   -1
100
AcDbPolyline
 90
    9
 70
    1
 43
0
 10
-1837.676812
 20
-736.560122
 10
-1837.369472
 20
-737.300024
 10
-1836.6283
 20
-737.60711
 10
-1835.886874
 20
-737.300024
 10
-1835.579534
 20
-736.560122
 10
-1835.886874
 20
-735.817172
 10
-1836.6283
 20
-735.511356
 10
-1837.369472
 20
-735.817172
 10
-1837.676812
 20
-736.560122
  0
LWPOLYLINE
  5
69
100
AcDbEntity
  8
outline
  6
ByLayer
 62
    0
370
   -1
100
AcDbPolyline
 90
    9
 70
    1
 43
0
 10
-2071.0407598
 20
-733.6137220000001
 10
-2070.7334706
 20
-734.353878
 10
-2069.9920954
 20
-734.661218
 10
-2069.2506948
 20
-734.353878
 10
-2068.9434056
 20
-733.6137220000001
 10
-2069.2506948
 20
-732.871026
 10
-2069.9920954
 20
-732.5649560000001
 10
-2070.7334706
 20
-732.871026
 10
-2071.0407598
 20
-733.6137220000001
  0
LWPOLYLINE
  5
6A
100
AcDbEntity
  8
outline
  6
ByLayer
 62
    0
370
   -1
100
AcDbPolyline
 90
    9
 70
    1
 43
0
 10
-2059.1331382
 20
-707.419972
 10
-2058.825849
 20
-708.160128
 10
-2058.0844738
 20
-708.4674680000001
 10
-2057.3430732
 20
-708.160128
 10
-2057.035784
 20
-707.419972
 10
-2057.3430732
 20
-706.677276
 10
-2058.0844738
 20
-706.371206
 10
-2058.825849
 20
-706.677276
 10
-2059.1331382
 20
-707.419972
  0
LWPOLYLINE
  5
6B
100
AcDbEntity
  8
outline
  6
ByLayer
 62
    0
370
   -1
100
AcDbPolyline
 90
    9
 70
    1
 43
0
 10
-2030.556538
 20
-745.5199720000001
 10
-2030.250722
 20
-746.260128
 10
-2029.508026
 20
-746.567468
 10
-2028.7666
 20
-746.260128
 10
-2028.45926
 20
-745.5199720000001
 10
-2028.7666
 20
-744.777276
 10
-2029.508026
 20
-744.47146
 10
-2030.250722
 20
-744.777276
 10
-2030.556538
 20
-745.5199720000001
  0
LWPOLYLINE
  5
6C
100
AcDbEntity
  8
outline
  6
ByLayer
 62
    0
370
   -1
100
AcDbPolyline
 90
    5
 70
    1
 43
0
 10
-1976.274452
 20
-700.416938
 10
-1973.275728
 20
-700.416938
 10
-1973.275728
 20
-703.318888
 10
-1976.274452
 20
-703.318888
 10
-1976.274452
 20
-700.416938
  0
LINE
  5
6D
100
AcDbEntity
  8
centers
  6
ByLayer
 62
  256
370
   -1
100
AcDbLine
 10
-1987.338036341186
 20
-705.8879858532515
 11
-1977.338036341186
 21
-705.8879858532515
  0
LINE
  5
6E
100
AcDbEntity
  8
centers
  6
ByLayer
 62
  256
370
   -1
100
AcDbLine
 10
-1980.789312
 20
-764.5700482
 11
-1970.789312
 21
-764.5700482
  0
LINE
  5
6F
100
AcDbEntity
  8
centers
  6
ByLayer
 62
  256
370
   -1
100
AcDbLine
 10
-2059.654534
 20
-764.5700482
 11
-2049.654534
 21
-764.5700482
  0
LINE
  5
70
100
AcDbEntity
  8
centers
  6
ByLayer
 62
  256
370
   -1
100
AcDbLine
 10
-2073.9434056
 20
-733.6137220000001
 11
-2063.9434056
 21
-733.6137220000001
  0
LINE
  5
71
100
AcDbEntity
  8
centers
  6
ByLayer
 62
  256
370
   -1
100
AcDbLine
 10
-2062.035784
 20
-707.419972
 11
-2052.035784
 21
-707.419972
  0
LINE
  5
72
100
AcDbEntity
  8
centers
  6
ByLayer
 62
  256
370
   -1
100
AcDbLine
 10
-2033.45926
 20
-745.5199720000001
 11
-2023.45926
 21
-745.5199720000001
  0
LINE
  5
73
100
AcDbEntity
  8
centers
  6
ByLayer
 62
  256
370
   -1
100
AcDbLine
 10
-1997.742034
 20
-716.380076
 11
-1987.742034
 21
-716.380076
  0
LINE
  5
74
100
AcDbEntity
  8
centers
  6
ByLayer
 62
  256
370
   -1
100
AcDbLine
 10
-1902.493304
 20
-764.5700482
 11
-1892.493304
 21
-764.5700482
  0
LINE
  5
75
100
AcDbEntity
  8
centers
  6
ByLayer
 62
  256
370
   -1
100
AcDbLine
 10
-1846.532532
 20
-764.5700482
 11
-1836.532532
 21
-764.5700482
  0
LINE
  5
76
100
AcDbEntity
  8
centers
  6
ByLayer
 62
  256
370
   -1
100
AcDbLine
 10
-1842.676812
 20
-736.560122
 11
-1832.676812
 21
-736.560122
  0
LINE
  5
77
100
AcDbEntity
  8
centers
  6
ByLayer
 62
  256
370
   -1
100
AcDbLine
 10
-1885.539312
 20
-716.380076
 11
-1875.539312
 21
-716.380076
  0
LINE
  5
78
100
AcDbEntity
  8
centers
  6
ByLayer
 62
  256
370
   -1
100
AcDbLine
 10
-1942.689312
 20
-716.380076
 11
-1932.689312
 21
-716.380076
  0
LINE
  5
79
100
AcDbEntity
  8
centers
  6
ByLayer
 62
  256
370
   -1
100
AcDbLine
 10
-1836.6283
 20
-740.511356
 11
-1836.6283
 21
-730.511356
  0
LINE
  5
7A
100
AcDbEntity
  8
centers
  6
ByLayer
 62
  256
370
   -1
100
AcDbLine
 10
-1842.581298
 20
-768.5213584000001
 11
-1842.581298
 21
-758.5213584000001
  0
LINE
  5
7B
100
AcDbEntity
  8
centers
  6
ByLayer
 62
  256
370
   -1
100
AcDbLine
 10
-1898.5408
 20
-768.5213584000001
 11
-1898.5408
 21
-758.5213584000001
  0
LINE
  5
7C
100
AcDbEntity
  8
centers
  6
ByLayer
 62
  256
370
   -1
100
AcDbLine
 10
-1879.4908
 20
-720.33131
 11
-1879.4908
 21
-710.33131
  0
LINE
  5
7D
100
AcDbEntity
  8
centers
  6
ByLayer
 62
  256
370
   -1
100
AcDbLine
 10
-1936.6408
 20
-720.33131
 11
-1936.6408
 21
-710.33131
  0
LINE
  5
7E
100
AcDbEntity
  8
centers
  6
ByLayer
 62
  256
370
   -1
100
AcDbLine
 10
-1974.7408
 20
-768.5213584000001
 11
-1974.7408
 21
-758.5213584000001
  0
LINE
  5
7F
100
AcDbEntity
  8
centers
  6
ByLayer
 62
  256
370
   -1
100
AcDbLine
 10
-1993.7908
 20
-720.33131
 11
-1993.7908
 21
-710.33131
  0
LINE
  5
80
100
AcDbEntity
  8
centers
  6
ByLayer
 62
  256
370
   -1
100
AcDbLine
 10
-2029.508026
 20
-749.47146
 11
-2029.508026
 21
-739.47146
  0
LINE
  5
81
100
AcDbEntity
  8
centers
  6
ByLayer
 62
  256
370
   -1
100
AcDbLine
 10
-2055.7032238
 20
-768.5213584000001
 11
-2055.7032238
 21
-758.5213584000001
  0
LINE
  5
82
100
AcDbEntity
  8
centers
  6
ByLayer
 62
  256
370
   -1
100
AcDbLine
 10
-2069.9920954
 20
-737.5649560000001
 11
-2069.9920954
 21
-727.5649560000001
  0
LINE
  5
83
100
AcDbEntity
  8
centers
  6
ByLayer
 62
  256
370
   -1
100
AcDbLine
 10
-2058.0844738
 20
-711.371206
 11
-2058.0844738
 21
-701.371206
  0
LINE
  5
84
100
AcDbEntity
  8
centers
  6
ByLayer
 62
  256
370
   -1
100
AcDbLine
 10
-1974.77509
 20
-705.416938
 11
-1974.77509
 21
-695.416938
  0
LINE
  5
85
100
AcDbEntity
  8
centers
  6
ByLayer
 62
  256
370
   -1
100
AcDbLine
 10
-1898.57509
 20
-705.416938
 11
-1898.57509
 21
-695.416938
  0
LINE
  5
86
100
AcDbEntity
  8
centers
  6
ByLayer
 62
  256
370
   -1
100
AcDbLine
 10
-1893.750741
 20
-773.6531744
 11
-1893.750741
 21
-763.6531744
  0
LINE
  5
87
100
AcDbEntity
  8
centers
  6
ByLayer
 62
  256
370
   -1
100
AcDbLine
 10
-1979.51981
 20
-773.6531744
 11
-1979.51981
 21
-763.6531744
  0
LINE
  5
88
100
AcDbEntity
  8
centers
  6
ByLayer
 62
  256
370
   -1
100
AcDbLine
 10
-1978.275728
 20
-701.867913
 11
-1968.275728
 21
-701.867913
  0
LINE
  5
89
100
AcDbEntity
  8
centers
  6
ByLayer
 62
  256
370
   -1
100
AcDbLine
 10
-1902.075728
 20
-701.867913
 11
-1892.075728
 21
-701.867913
  0
LINE
  5
8A
100
AcDbEntity
  8
centers
  6
ByLayer
 62
  256
370
   -1
100
AcDbLine
 10
-1897.251506
 20
-770.1083785000001
 11
-1887.251506
 21
-770.1083785000001
  0
LINE
  5
8B
100
AcDbEntity
  8
centers
  6
ByLayer
 62
  256
370
   -1
100
AcDbLine
 10
-1983.020448
 20
-770.1083785000001
 11
-1973.020448
 21
-770.1083785000001
  0
LINE
  5
8C
100
AcDbEntity
  8
centers
  6
ByLayer
 62
  256
370
   -1
100
AcDbLine
 10
-1823.9118
 20
-707.413368
 11
-1813.9118
 21
-707.413368
  0
LINE
  5
8D
100
AcDbEntity
  8
centers
  6
ByLayer
 62
  256
370
   -1
100
AcDbLine
 10
-1819.95828
 20
-711.3643479999999
 11
-1819.95828
 21
-701.3643479999999
  0
CIRCLE
  5
8E
100
AcDbEntity
  8
insulating-layer
  6
ByLayer
 62
  256
370
   -1
100
AcDbCircle
 10
-2058.0844738
 20
-707.419972
 40
2.5
  0
CIRCLE
  5
8F
100
AcDbEntity
  8
insulating-layer
  6
ByLayer
 62
  256
370
   -1
100
AcDbCircle
 10
-2069.9920954
 20
-733.6137220000001
 40
2.5
  0
CIRCLE
  5
90
100
AcDbEntity
  8
insulating-layer
  6
ByLayer
 62
  256
370
   -1
100
AcDbCircle
 10
-2029.508026
 20
-745.5199720000001
 40
2.5
  0
CIRCLE
  5
91
100
AcDbEntity
  8
insulating-layer
  6
ByLayer
 62
  256
370
   -1
100
AcDbCircle
 10
-1993.7908
 20
-716.380076
 40
2.5
  0
CIRCLE
  5
92
100
AcDbEntity
  8
insulating-layer
  6
ByLayer
 62
  256
370
   -1
100
AcDbCircle
 10
-1974.7408
 20
-764.5700482
 40
2.5
  0
CIRCLE
  5
93
100
AcDbEntity
  8
insulating-layer
  6
ByLayer
 62
  256
370
   -1
100
AcDbCircle
 10
-1936.6408
 20
-716.380076
 40
2.5
  0
CIRCLE
  5
94
100
AcDbEntity
  8
insulating-layer
  6
ByLayer
 62
  256
370
   -1
100
AcDbCircle
 10
-1898.5408
 20
-764.5700482
 40
2.5
  0
CIRCLE
  5
95
100
AcDbEntity
  8
insulating-layer
  6
ByLayer
 62
  256
370
   -1
100
AcDbCircle
 10
-1879.4908
 20
-716.380076
 40
2.5
  0
CIRCLE
  5
96
100
AcDbEntity
  8
insulating-layer
  6
ByLayer
 62
  256
370
   -1
100
AcDbCircle
 10
-1842.581298
 20
-764.5700482
 40
2.5
  0
CIRCLE
  5
97
100
AcDbEntity
  8
insulating-layer
  6
ByLayer
 62
  256
370
   -1
100
AcDbCircle
 10
-1836.6283
 20
-736.560122
 40
2.5
  0
CIRCLE
  5
98
100
AcDbEntity
  8
insulating-layer
  6
ByLayer
 62
  256
370
   -1
100
AcDbCircle
 10
-1819.95828
 20
-707.413368
 40
2.5
  0
CIRCLE
  5
99
100
AcDbEntity
  8
insulating-layer
  6
ByLayer
 62
  256
370
   -1
100
AcDbCircle
 10
-2055.7032238
 20
-764.5700482
 40
2.5
  0
LINE
  5
9A
100
AcDbEntity
  8
centers
  6
ByLayer
 62
  256
370
   -1
100
AcDbLine
 10
-2056.3962933
 20
-703.388494
 11
-2056.3962933
 21
-693.388494
  0
LINE
  5
9B
100
AcDbEntity
  8
insulating-layer
  6
ByLayer
 62
  256
370
   -1
100
AcDbLine
 10
-2077.0062933
 20
-700.387988
 11
-2077.0062933
 21
-771.588378938
  0
LINE
  5
9C
100
AcDbEntity
  8
insulating-layer
  6
ByLayer
 62
  256
370
   -1
100
AcDbLine
 10
-1796.25526
 20
-771.588378938
 11
-1796.25526
 21
-700.387988
  0
LINE
  5
9D
100
AcDbEntity
  8
insulating-layer
  6
ByLayer
 62
  256
370
   -1
100
AcDbLine
 10
-2066.669256807034
 20
-697.8660159999999
 11
-2066.669256807034
 21
-697.8660159999999
  0
LINE
  5
9E
100
AcDbEntity
  8
outline
  6
ByLayer
 62
  256
370
   -1
100
AcDbLine
 10
-2063.816706847034
 20
-700.387988
 11
-2048.816706847034
 21
-700.387988
  0
LINE
  5
9F
100
AcDbEntity
  8
outline
  6
ByLayer
 62
  256
370
   -1
100
AcDbLine
 10
-2048.816706847034
 20
-700.387988
 11
-2048.816706847034
 21
-702.887988
  0
LINE
  5
A0
100
AcDbEntity
  8
outline
  6
ByLayer
 62
  256
370
   -1
100
AcDbLine
 10
-2048.816706847034
 20
-702.887988
 11
-2063.816706847034
 21
-702.887988
  0
LINE
  5
A1
100
AcDbEntity
  8
outline
  6
ByLayer
 62
  256
370
   -1
100
AcDbLine
 10
-2063.816706847034
 20
-702.887988
 11
-2063.816706847034
 21
-700.387988
  0
LINE
  5
A2
100
AcDbEntity
  8
centers
  6
ByLayer
 62
  256
370
   -1
100
AcDbLine
 10
-2062.898740119709
 20
-706.303925319356
 11
-2062.898740119709
 21
-696.303925319356
  0
LINE
  5
A3
100
AcDbEntity
  8
centers
  6
ByLayer
 62
  256
370
   -1
100
AcDbLine
 10
-2067.898740119709
 20
-701.303925319356
 11
-2057.898740119709
 21
-701.303925319356
  0
LINE
  5
A4
100
AcDbEntity
  8
centers
  6
ByLayer
 62
  256
370
   -1
100
AcDbLine
 10
-2049.893846480291
 20
-706.303925319356
 11
-2049.893846480291
 21
-696.303925319356
  0
LINE
  5
A5
100
AcDbEntity
  8
centers
  6
ByLayer
 62
  256
370
   -1
100
AcDbLine
 10
-2044.893846480291
 20
-701.303925319356
 11
-2054.893846480291
 21
-701.303925319356
  0
LINE
  5
A6
100
AcDbEntity
  8
insulating-layer
  6
ByLayer
 62
  256
370
   -1
100
AcDbLine
 10
-2062.898740119709
 20
-703.803925319356
 11
-2049.893846480291
 21
-703.803925318983
  0
ARC
  5
A7
100
AcDbEntity
  8
insulating-layer
  6
ByLayer
 62
  256
370
   -1
100
AcDbCircle
 10
-2062.898740119709
 20
-701.303925319356
 40
2.5
100
AcDbArc
 50
179.9990108829809
 51
270.0012114176234
  0
ARC
  5
A8
100
AcDbEntity
  8
insulating-layer
  6
ByLayer
 62
  256
370
   -1
100
AcDbCircle
 10
-2049.893846480291
 20
-701.303925319356
 40
2.5
100
AcDbArc
 50
270.0006994130177
 51
360.0000000000052
  0
ARC
  5
A9
100
AcDbEntity
  8
insulating-layer
  6
ByLayer
 62
  256
370
   -1
100
AcDbCircle
 10
-1974.77509
 20
-701.867913
 40
2.5
100
AcDbArc
 50
179.9999999999974
 51
359.9984360686307
  0
ARC
  5
AA
100
AcDbEntity
  8
insulating-layer
  6
ByLayer
 62
  256
370
   -1
100
AcDbCircle
 10
-1898.57509
 20
-701.867913
 40
2.5
100
AcDbArc
 50
180.000699411371
 51
359.9984360686204
  0
ARC
  5
AB
100
AcDbEntity
  8
insulating-layer
  6
ByLayer
 62
  256
370
   -1
100
AcDbCircle
 10
-1979.51981
 20
-770.1083785000001
 40
2.5
100
AcDbArc
 50
0
 51
180.0006994113736
  0
ARC
  5
AC
100
AcDbEntity
  8
insulating-layer
  6
ByLayer
 62
  256
370
   -1
100
AcDbCircle
 10
-1893.750741
 20
-770.1083785000001
 40
2.5
100
AcDbArc
 50
0
 51
180
  0
LINE
  5
AD
100
AcDbEntity
  8
insulating-layer
  6
ByLayer
 62
  256
370
   -1
100
AcDbLine
 10
-2065.398740119708
 20
-701.3038821609844
 11
-2065.398740119708
 21
-700.387988
  0
LINE
  5
AE
100
AcDbEntity
  8
insulating-layer
  6
ByLayer
 62
  256
370
   -1
100
AcDbLine
 10
-2047.393846480477
 20
-701.3039253193558
 11
-2047.393846480477
 21
-700.387988
  0
LINE
  5
AF
100
AcDbEntity
  8
insulating-layer
  6
ByLayer
 62
  256
370
   -1
100
AcDbLine
 10
-1977.275089999441
 20
-701.8679129999999
 11
-1977.275089999441
 21
-700.387988
  0
LINE
  5
B0
100
AcDbEntity
  8
insulating-layer
  6
ByLayer
 62
  256
370
   -1
100
AcDbLine
 10
-1972.275090000559
 20
-701.8678447606212
 11
-1972.275090000559
 21
-700.387988
  0
LINE
  5
B1
100
AcDbEntity
  8
insulating-layer
  6
ByLayer
 62
  256
370
   -1
100
AcDbLine
 10
-1982.01981
 20
-771.588378938
 11
-1982.01981
 21
-770.1084090175783
  0
LINE
  5
B2
100
AcDbEntity
  8
insulating-layer
  6
ByLayer
 62
  256
370
   -1
100
AcDbLine
 10
-1977.01981
 20
-771.588378938
 11
-1977.01981
 21
-770.1084090175784
  0
LINE
  5
B3
100
AcDbEntity
  8
insulating-layer
  6
ByLayer
 62
  256
370
   -1
100
AcDbLine
 10
-1901.075089999627
 20
-701.8678824824223
 11
-1901.075089999627
 21
-700.387988
  0
LINE
  5
B4
100
AcDbEntity
  8
insulating-layer
  6
ByLayer
 62
  256
370
   -1
100
AcDbLine
 10
-1896.075090000373
 20
-701.8678447606217
 11
-1896.075090000372
 21
-700.387988
  0
LINE
  5
B5
100
AcDbEntity
  8
insulating-layer
  6
ByLayer
 62
  256
370
   -1
100
AcDbLine
 10
-1896.250741000373
 20
-771.588378938
 11
-1896.250741000373
 21
-770.1084395351559
  0
LINE
  5
B6
100
AcDbEntity
  8
insulating-layer
  6
ByLayer
 62
  256
370
   -1
100
AcDbLine
 10
-1891.250740999628
 20
-771.588378938
 11
-1891.250740999628
 21
-770.1084313579961
  0
LINE
  5
B7
100
AcDbEntity
  8
insulating-layer
  6
ByLayer
 62
  256
370
   -1
100
AcDbLine
 10
-2065.398740119708
 20
-700.387988
 11
-2077.0062933
 21
-700.387988
  0
LINE
  5
B8
100
AcDbEntity
  8
insulating-layer
  6
ByLayer
 62
  256
370
   -1
100
AcDbLine
 10
-1977.275089999441
 20
-700.387988
 11
-2047.393846480477
 21
-700.387988
  0
LINE
  5
B9
100
AcDbEntity
  8
insulating-layer
  6
ByLayer
 62
  256
370
   -1
100
AcDbLine
 10
-1901.075089999627
 20
-700.387988
 11
-1972.275090000559
 21
-700.387988
  0
LINE
  5
BA
100
AcDbEntity
  8
insulating-layer
  6
ByLayer
 62
  256
370
   -1
100
AcDbLine
 10
-1796.25526
 20
-700.387988
 11
-1896.075090000372
 21
-700.387988
  0
LINE
  5
BB
100
AcDbEntity
  8
insulating-layer
  6
ByLayer
 62
  256
370
   -1
100
AcDbLine
 10
-1891.250740999628
 20
-771.588378938
 11
-1796.25526
 21
-771.588378938
  0
LINE
  5
BC
100
AcDbEntity
  8
insulating-layer
  6
ByLayer
 62
  256
370
   -1
100
AcDbLine
 10
-1977.01981
 20
-771.5883789380001
 11
-1896.250741000373
 21
-771.588378938
  0
LINE
  5
BD
100
AcDbEntity
  8
insulating-layer
  6
ByLayer
 62
  256
370
   -1
100
AcDbLine
 10
-2077.0062933
 20
-771.588378938
 11
-1982.01981
 21
-771.5883789380001
  0
ENDSEC
  0
SECTION
  2
OBJECTS
  0
DICTIONARY
  5
C
330
0
100
AcDbDictionary
281
    1
  3
ACAD_GROUP
350
D
  0
DICTIONARY
  5
D
330
C
100
AcDbDictionary
281
    1
  0
ENDSEC
  0
EOF
