999
dxfrw 0.6.1
  0
SECTION
  2
HEADER
  9
$ACADVER
  1
AC1021
  9
$DWGCODEPAGE
  3
ANSI_1252
  9
$INSBASE
 10
0
 20
0
 30
0
  9
$EXTMIN
 10
98.59624669174126
 20
2.524673715634137
 30
0
  9
$EXTMAX
 10
187.1639126917412
 20
74.70026831563437
 30
0
  9
$LIMMIN
 10
0
 20
0
  9
$LIMMAX
 10
420
 20
297
  9
$ORTHOMODE
 70
    0
  9
$REGENMODE
 70
    1
  9
$FILLMODE
 70
    1
  9
$QTEXTMODE
 70
    0
  9
$MIRRTEXT
 70
    0
  9
$LTSCALE
 40
1
  9
$ATTMODE
 70
    0
  9
$TEXTSIZE
 40
2.5
  9
$TRACEWID
 40
15.68
  9
$TEXTSTYLE
  7
STANDARD
  9
$CLAYER
  8
hooks
  9
$CELTYPE
  6
BYLAYER
  9
$CECOLOR
 62
  256
  9
$CELTSCALE
 40
1
  9
$DISPSILH
 70
    0
  9
$DIMSCALE
 40
1
  9
$DIMASZ
 40
2.5
  9
$DIMEXO
 40
0.625
  9
$DIMDLI
 40
3.75
  9
$DIMRND
 40
0
  9
$DIMDLE
 40
0
  9
$DIMEXE
 40
1.25
  9
$DIMTP
 40
0
  9
$DIMTM
 40
0
  9
$DIMTXT
 40
2.5
  9
$DIMCEN
 40
2.5
  9
$DIMTSZ
 40
0
  9
$DIMTOL
 70
    0
  9
$DIMLIM
 70
    0
  9
$DIMTIH
 70
    0
  9
$DIMTOH
 70
    0
  9
$DIMSE1
 70
    0
  9
$DIMSE2
 70
    0
  9
$DIMTAD
 70
    1
  9
$DIMZIN
 70
    8
  9
$DIMBLK
  1

  9
$DIMASO
 70
    1
  9
$DIMSHO
 70
    1
  9
$DIMPOST
  1

  9
$DIMAPOST
  1

  9
$DIMALT
 70
    0
  9
$DIMALTD
 70
    3
  9
$DIMALTF
 40
0.03937
  9
$DIMLFAC
 40
1
  9
$DIMTOFL
 70
    1
  9
$DIMTVP
 40
0
  9
$DIMTIX
 70
    0
  9
$DIMSOXD
 70
    0
  9
$DIMSAH
 70
    0
  9
$DIMBLK1
  1

  9
$DIMBLK2
  1

  9
$DIMSTYLE
  2
Standard
  9
$DIMCLRD
 70
    0
  9
$DIMCLRE
 70
    0
  9
$DIMCLRT
 70
    0
  9
$DIMTFAC
 40
1
  9
$DIMGAP
 40
0.625
  9
$DIMJUST
 70
    0
  9
$DIMSD1
 70
    0
  9
$DIMSD2
 70
    0
  9
$DIMTOLJ
 70
    0
  9
$DIMTZIN
 70
    8
  9
$DIMALTZ
 70
    0
  9
$DIMALTTZ
 70
    0
  9
$DIMUPT
 70
    0
  9
$DIMDEC
 70
    2
  9
$DIMTDEC
 70
    2
  9
$DIMALTU
 70
    2
  9
$DIMALTTD
 70
    3
  9
$DIMTXSTY
  7
STANDARD
  9
$DIMAUNIT
 70
    0
  9
$DIMADEC
 70
    0
  9
$DIMALTRND
 40
0
  9
$DIMAZIN
 70
    0
  9
$DIMDSEP
 70
   44
  9
$DIMATFIT
 70
    3
  9
$DIMFRAC
 70
    0
  9
$DIMLDRBLK
  1
STANDARD
  9
$DIMLUNIT
 70
    2
  9
$DIMLWD
 70
   -2
  9
$DIMLWE
 70
   -2
  9
$DIMTMOVE
 70
    0
  9
$DIMFXL
 40
1
  9
$DIMFXLON
 70
    0
  9
$DIMJOGANG
 40
0.7854
  9
$DIMTFILL
 70
    0
  9
$DIMTFILLCLR
 70
    0
  9
$DIMARCSYM
 70
    0
  9
$DIMLTYPE
  6

  9
$DIMLTEX1
  6

  9
$DIMLTEX2
  6

  9
$LUNITS
 70
    2
  9
$LUPREC
 70
    4
  9
$SKETCHINC
 40
1
  9
$FILLETRAD
 40
0
  9
$AUNITS
 70
    0
  9
$AUPREC
 70
    2
  9
$MENU
  1
.
  9
$ELEVATION
 40
0
  9
$PELEVATION
 40
0
  9
$THICKNESS
 40
0
  9
$LIMCHECK
 70
    0
  9
$CHAMFERA
 40
0
  9
$CHAMFERB
 40
0
  9
$CHAMFERC
 40
0
  9
$CHAMFERD
 40
0
  9
$SKPOLY
 70
    0
  9
$USRTIMER
 70
    1
  9
$ANGBASE
 50
0
  9
$ANGDIR
 70
    0
  9
$PDMODE
 70
   34
  9
$PDSIZE
 40
0
  9
$PLINEWID
 40
0
  9
$SPLFRAME
 70
    0
  9
$SPLINETYPE
 70
    2
  9
$SPLINESEGS
 70
    8
  9
$HANDSEED
  5
20000
  9
$SURFTAB1
 70
    6
  9
$SURFTAB2
 70
    6
  9
$SURFTYPE
 70
    6
  9
$SURFU
 70
    6
  9
$SURFV
 70
    6
  9
$UCSBASE
  2

  9
$UCSNAME
  2

  9
$UCSORG
 10
0
 20
0
 30
0
  9
$UCSXDIR
 10
1
 20
0
 30
0
  9
$UCSYDIR
 10
0
 20
1
 30
0
  9
$UCSORTHOREF
  2

  9
$UCSORTHOVIEW
 70
    0
  9
$UCSORGTOP
 10
0
 20
0
 30
0
  9
$UCSORGBOTTOM
 10
0
 20
0
 30
0
  9
$UCSORGLEFT
 10
0
 20
0
 30
0
  9
$UCSORGRIGHT
 10
0
 20
0
 30
0
  9
$UCSORGFRONT
 10
0
 20
0
 30
0
  9
$UCSORGBACK
 10
0
 20
0
 30
0
  9
$PUCSBASE
  2

  9
$PUCSNAME
  2

  9
$PUCSORG
 10
0
 20
0
 30
0
  9
$PUCSXDIR
 10
1
 20
0
 30
0
  9
$PUCSYDIR
 10
0
 20
1
 30
0
  9
$PUCSORTHOREF
  2

  9
$PUCSORTHOVIEW
 70
    0
  9
$PUCSORGTOP
 10
0
 20
0
 30
0
  9
$PUCSORGBOTTOM
 10
0
 20
0
 30
0
  9
$PUCSORGLEFT
 10
0
 20
0
 30
0
  9
$PUCSORGRIGHT
 10
0
 20
0
 30
0
  9
$PUCSORGFRONT
 10
0
 20
0
 30
0
  9
$PUCSORGBACK
 10
0
 20
0
 30
0
  9
$USERI1
 70
    0
  9
$USERI2
 70
    0
  9
$USERI3
 70
    0
  9
$USERI4
 70
    0
  9
$USERI5
 70
    0
  9
$USERR1
 40
0
  9
$USERR2
 40
0
  9
$USERR3
 40
0
  9
$USERR4
 40
0
  9
$USERR5
 40
0
  9
$WORLDVIEW
 70
    1
  9
$SHADEDGE
 70
    3
  9
$SHADEDIF
 70
   70
  9
$TILEMODE
 70
    1
  9
$MAXACTVP
 70
   64
  9
$PINSBASE
 10
0
 20
0
 30
0
  9
$PLIMCHECK
 70
    0
  9
$PEXTMIN
 10
0
 20
0
 30
0
  9
$PEXTMAX
 10
0
 20
0
 30
0
  9
$GRIDMODE
 70
    1
  9
$SNAPSTYLE
 70
    0
  9
$PLIMMIN
 10
0
 20
0
  9
$PLIMMAX
 10
210
 20
297
  9
$UNITMODE
 70
    0
  9
$VISRETAIN
 70
    1
  9
$PLINEGEN
 70
    0
  9
$PSLTSCALE
 70
    1
  9
$TREEDEPTH
 70
 3020
  9
$CMLSTYLE
  2
Standard
  9
$CMLJUST
 70
    0
  9
$CMLSCALE
 40
20
  9
$PROXYGRAPHICS
 70
    1
  9
$MEASUREMENT
 70
    1
  9
$CELWEIGHT
370
   -1
  9
$ENDCAPS
280
    0
  9
$JOINSTYLE
280
    0
  9
$LWDISPLAY
290
    0
  9
$INSUNITS
 70
    4
  9
$HYPERLINKBASE
  1

  9
$STYLESHEET
  1

  9
$XEDIT
290
    1
  9
$CEPSNTYPE
380
    0
  9
$PSTYLEMODE
290
    1
  9
$EXTNAMES
290
    1
  9
$PSVPSCALE
 40
1
  9
$OLESTARTUP
290
    0
  9
$SORTENTS
280
  127
  9
$INDEXCTL
280
    0
  9
$HIDETEXT
280
    1
  9
$XCLIPFRAME
290
    0
  9
$HALOGAP
280
    0
  9
$OBSCOLOR
 70
  257
  9
$OBSLTYPE
280
    0
  9
$INTERSECTIONDISPLAY
280
    0
  9
$INTERSECTIONCOLOR
 70
  257
  9
$DIMASSOC
280
    0
  9
$PROJECTNAME
  1

  9
$CAMERADISPLAY
290
    0
  9
$LENSLENGTH
 40
50
  9
$CAMERAHEIGHT
 40
0
  9
$STEPSPERSEC
 40
2
  9
$STEPSIZE
 40
50
  9
$3DDWFPREC
 40
2
  9
$PSOLWIDTH
 40
5
  9
$PSOLHEIGHT
 40
80
  9
$LOFTANG1
 40
1.570796326794897
  9
$LOFTANG2
 40
1.570796326794897
  9
$LOFTMAG1
 40
0
  9
$LOFTMAG2
 40
0
  9
$LOFTPARAM
 70
    7
  9
$LOFTNORMALS
280
    1
  9
$LATITUDE
 40
1
  9
$LONGITUDE
 40
1
  9
$NORTHDIRECTION
 40
0
  9
$TIMEZONE
 70
-8000
  9
$LIGHTGLYPHDISPLAY
280
    1
  9
$TILEMODELIGHTSYNCH
280
    1
  9
$SOLIDHIST
280
    1
  9
$SHOWHIST
280
    1
  9
$DWFFRAME
280
    2
  9
$DGNFRAME
280
    0
  9
$REALWORLDSCALE
290
    1
  9
$INTERFERECOLOR
 62
    1
  9
$CSHADOW
280
    0
  9
$SHADOWPLANELOCATION
 40
0
  0
ENDSEC
  0
SECTION
  2
CLASSES
  0
ENDSEC
  0
SECTION
  2
TABLES
  0
TABLE
  2
VPORT
  5
8
330
0
100
AcDbSymbolTable
 70
    1
  0
VPORT
  5
31
330
2
100
AcDbSymbolTableRecord
100
AcDbViewportTableRecord
  2
*ACTIVE
 70
    0
 10
0
 20
0
 11
1
 21
1
 12
100.3575176428589
 22
47.37507458928652
 13
0
 23
0
 14
10
 24
10
 15
10
 25
10
 16
0
 26
0
 36
1
 17
0
 27
0
 37
0
 40
117.4671803928591
 41
0.9547123623011016
 42
50
 43
0
 44
0
 50
0
 51
0
 71
    0
 72
  100
 73
    1
 74
    3
 75
    0
 76
    1
 77
    0
 78
    0
281
    0
 65
    1
110
0
120
0
130
0
111
1
121
0
131
0
112
0
122
1
132
0
 79
    0
146
0
348
10020
 60
    7
 61
    5
292
1
282
    1
141
0
142
0
 63
  250
421
3358443
  0
ENDTAB
  0
TABLE
  2
LTYPE
  5
5
330
0
100
AcDbSymbolTable
 70
    4
  0
LTYPE
  5
14
330
5
100
AcDbSymbolTableRecord
100
AcDbLinetypeTableRecord
  2
ByBlock
 70
    0
  3

 72
   65
 73
    0
 40
0
  0
LTYPE
  5
15
330
5
100
AcDbSymbolTableRecord
100
AcDbLinetypeTableRecord
  2
ByLayer
 70
    0
  3

 72
   65
 73
    0
 40
0
  0
LTYPE
  5
16
330
5
100
AcDbSymbolTableRecord
100
AcDbLinetypeTableRecord
  2
Continuous
 70
    0
  3
Solid line
 72
   65
 73
    0
 40
0
  0
LTYPE
  5
32
330
5
100
AcDbSymbolTableRecord
100
AcDbLinetypeTableRecord
  2
DOT
 70
    0
  3
Dot . . . . . . . . . . . . . . . . . . . . . .
 72
   65
 73
    2
 40
6.35
 49
0
 74
    0
 49
-6.35
 74
    0
  0
LTYPE
  5
33
330
5
100
AcDbSymbolTableRecord
100
AcDbLinetypeTableRecord
  2
DOTTINY
 70
    0
  3
Dot (.15x) .....................................
 72
   65
 73
    2
 40
0.9525
 49
0
 74
    0
 49
-0.9525
 74
    0
  0
LTYPE
  5
34
330
5
100
AcDbSymbolTableRecord
100
AcDbLinetypeTableRecord
  2
DOT2
 70
    0
  3
Dot (.5x) .....................................
 72
   65
 73
    2
 40
3.175
 49
0
 74
    0
 49
-3.175
 74
    0
  0
LTYPE
  5
35
330
5
100
AcDbSymbolTableRecord
100
AcDbLinetypeTableRecord
  2
DOTX2
 70
    0
  3
Dot (2x) .  .  .  .  .  .  .  .  .  .  .  .  .
 72
   65
 73
    2
 40
12.7
 49
0
 74
    0
 49
-12.7
 74
    0
  0
LTYPE
  5
36
330
5
100
AcDbSymbolTableRecord
100
AcDbLinetypeTableRecord
  2
DASHED
 70
    0
  3
Dashed _ _ _ _ _ _ _ _ _ _ _ _ _ _ _ _ _
 72
   65
 73
    2
 40
19.05
 49
12.7
 74
    0
 49
-6.35
 74
    0
  0
LTYPE
  5
37
330
5
100
AcDbSymbolTableRecord
100
AcDbLinetypeTableRecord
  2
DASHEDTINY
 70
    0
  3
Dashed (.15x) _ _ _ _ _ _ _ _ _ _ _ _ _ _ _ _ _
 72
   65
 73
    2
 40
2.8575
 49
1.905
 74
    0
 49
-0.9525
 74
    0
  0
LTYPE
  5
38
330
5
100
AcDbSymbolTableRecord
100
AcDbLinetypeTableRecord
  2
DASHED2
 70
    0
  3
Dashed (.5x) _ _ _ _ _ _ _ _ _ _ _ _ _ _ _ _ _
 72
   65
 73
    2
 40
9.524999999999999
 49
6.35
 74
    0
 49
-3.175
 74
    0
  0
LTYPE
  5
39
330
5
100
AcDbSymbolTableRecord
100
AcDbLinetypeTableRecord
  2
DASHEDX2
 70
    0
  3
Dashed (2x) ____  ____  ____  ____  ____  ___
 72
   65
 73
    2
 40
38.09999999999999
 49
25.4
 74
    0
 49
-12.7
 74
    0
  0
LTYPE
  5
3A
330
5
100
AcDbSymbolTableRecord
100
AcDbLinetypeTableRecord
  2
DASHDOT
 70
    0
  3
Dash dot __ . __ . __ . __ . __ . __ . __ . __
 72
   65
 73
    4
 40
25.4
 49
12.7
 74
    0
 49
-6.35
 74
    0
 49
0
 74
    0
 49
-6.35
 74
    0
  0
LTYPE
  5
3B
330
5
100
AcDbSymbolTableRecord
100
AcDbLinetypeTableRecord
  2
DASHDOTTINY
 70
    0
  3
Dash dot (.15x) _._._._._._._._._._._._._._._.
 72
   65
 73
    4
 40
3.81
 49
1.905
 74
    0
 49
-0.9525
 74
    0
 49
0
 74
    0
 49
-0.9525
 74
    0
  0
LTYPE
  5
3C
330
5
100
AcDbSymbolTableRecord
100
AcDbLinetypeTableRecord
  2
DASHDOT2
 70
    0
  3
Dash dot (.5x) _._._._._._._._._._._._._._._.
 72
   65
 73
    4
 40
12.7
 49
6.35
 74
    0
 49
-3.175
 74
    0
 49
0
 74
    0
 49
-3.175
 74
    0
  0
LTYPE
  5
3D
330
5
100
AcDbSymbolTableRecord
100
AcDbLinetypeTableRecord
  2
DASHDOTX2
 70
    0
  3
Dash dot (2x) ____  .  ____  .  ____  .  ___
 72
   65
 73
    4
 40
50.8
 49
25.4
 74
    0
 49
-12.7
 74
    0
 49
0
 74
    0
 49
-12.7
 74
    0
  0
LTYPE
  5
3E
330
5
100
AcDbSymbolTableRecord
100
AcDbLinetypeTableRecord
  2
DIVIDE
 70
    0
  3
Divide ____ . . ____ . . ____ . . ____ . . ____
 72
   65
 73
    6
 40
31.75
 49
12.7
 74
    0
 49
-6.35
 74
    0
 49
0
 74
    0
 49
-6.35
 74
    0
 49
0
 74
    0
 49
-6.35
 74
    0
  0
LTYPE
  5
3F
330
5
100
AcDbSymbolTableRecord
100
AcDbLinetypeTableRecord
  2
DIVIDETINY
 70
    0
  3
Divide (.15x) __..__..__..__..__..__..__..__.._
 72
   65
 73
    6
 40
4.7625
 49
1.905
 74
    0
 49
-0.9525
 74
    0
 49
0
 74
    0
 49
-0.9525
 74
    0
 49
0
 74
    0
 49
-0.9525
 74
    0
  0
LTYPE
  5
40
330
5
100
AcDbSymbolTableRecord
100
AcDbLinetypeTableRecord
  2
DIVIDE2
 70
    0
  3
Divide (.5x) __..__..__..__..__..__..__..__.._
 72
   65
 73
    6
 40
15.875
 49
6.35
 74
    0
 49
-3.175
 74
    0
 49
0
 74
    0
 49
-3.175
 74
    0
 49
0
 74
    0
 49
-3.175
 74
    0
  0
LTYPE
  5
41
330
5
100
AcDbSymbolTableRecord
100
AcDbLinetypeTableRecord
  2
DIVIDEX2
 70
    0
  3
Divide (2x) ________  .  .  ________  .  .  _
 72
   65
 73
    6
 40
63.5
 49
25.4
 74
    0
 49
-12.7
 74
    0
 49
0
 74
    0
 49
-12.7
 74
    0
 49
0
 74
    0
 49
-12.7
 74
    0
  0
LTYPE
  5
42
330
5
100
AcDbSymbolTableRecord
100
AcDbLinetypeTableRecord
  2
BORDER
 70
    0
  3
Border __ __ . __ __ . __ __ . __ __ . __ __ .
 72
   65
 73
    6
 40
44.45
 49
12.7
 74
    0
 49
-6.35
 74
    0
 49
12.7
 74
    0
 49
-6.35
 74
    0
 49
0
 74
    0
 49
-6.35
 74
    0
  0
LTYPE
  5
43
330
5
100
AcDbSymbolTableRecord
100
AcDbLinetypeTableRecord
  2
BORDERTINY
 70
    0
  3
Border (.15x) __.__.__.__.__.__.__.__.__.__.__.
 72
   65
 73
    6
 40
6.6675
 49
1.905
 74
    0
 49
-0.9525
 74
    0
 49
1.905
 74
    0
 49
-0.9525
 74
    0
 49
0
 74
    0
 49
-0.9525
 74
    0
  0
LTYPE
  5
44
330
5
100
AcDbSymbolTableRecord
100
AcDbLinetypeTableRecord
  2
BORDER2
 70
    0
  3
Border (.5x) __.__.__.__.__.__.__.__.__.__.__.
 72
   65
 73
    6
 40
22.225
 49
6.35
 74
    0
 49
-3.175
 74
    0
 49
6.35
 74
    0
 49
-3.175
 74
    0
 49
0
 74
    0
 49
-3.175
 74
    0
  0
LTYPE
  5
45
330
5
100
AcDbSymbolTableRecord
100
AcDbLinetypeTableRecord
  2
BORDERX2
 70
    0
  3
Border (2x) ____  ____  .  ____  ____  .  ___
 72
   65
 73
    6
 40
88.89999999999999
 49
25.4
 74
    0
 49
-12.7
 74
    0
 49
25.4
 74
    0
 49
-12.7
 74
    0
 49
0
 74
    0
 49
-12.7
 74
    0
  0
LTYPE
  5
46
330
5
100
AcDbSymbolTableRecord
100
AcDbLinetypeTableRecord
  2
CENTER
 70
    0
  3
Center ____ _ ____ _ ____ _ ____ _ ____ _ ____
 72
   65
 73
    4
 40
50.8
 49
31.75
 74
    0
 49
-6.35
 74
    0
 49
6.35
 74
    0
 49
-6.35
 74
    0
  0
LTYPE
  5
47
330
5
100
AcDbSymbolTableRecord
100
AcDbLinetypeTableRecord
  2
CENTERTINY
 70
    0
  3
Center (.15x) ___ _ ___ _ ___ _ ___ _ ___ _ ___
 72
   65
 73
    4
 40
7.619999999999999
 49
4.7625
 74
    0
 49
-0.9525
 74
    0
 49
0.9525
 74
    0
 49
-0.9525
 74
    0
  0
LTYPE
  5
48
330
5
100
AcDbSymbolTableRecord
100
AcDbLinetypeTableRecord
  2
CENTER2
 70
    0
  3
Center (.5x) ___ _ ___ _ ___ _ ___ _ ___ _ ___
 72
   65
 73
    4
 40
28.575
 49
19.05
 74
    0
 49
-3.175
 74
    0
 49
3.175
 74
    0
 49
-3.175
 74
    0
  0
LTYPE
  5
49
330
5
100
AcDbSymbolTableRecord
100
AcDbLinetypeTableRecord
  2
CENTERX2
 70
    0
  3
Center (2x) ________  __  ________  __  _____
 72
   65
 73
    4
 40
101.6
 49
63.5
 74
    0
 49
-12.7
 74
    0
 49
12.7
 74
    0
 49
-12.7
 74
    0
  0
ENDTAB
  0
TABLE
  2
LAYER
  5
2
330
0
100
AcDbSymbolTable
 70
    1
  0
LAYER
  5
10
330
2
100
AcDbSymbolTableRecord
100
AcDbLayerTableRecord
  2
0
 70
    1
 62
    7
  6
CONTINUOUS
370
   -3
390
F
  0
LAYER
  5
4A
330
2
100
AcDbSymbolTableRecord
100
AcDbLayerTableRecord
  2
cable
 70
    1
 62
    7
  6
CONTINUOUS
370
    0
390
F
  0
LAYER
  5
4B
330
2
100
AcDbSymbolTableRecord
100
AcDbLayerTableRecord
  2
cable-chamfer
 70
    1
 62
    7
  6
CONTINUOUS
370
    0
390
F
  0
LAYER
  5
4C
330
2
100
AcDbSymbolTableRecord
100
AcDbLayerTableRecord
  2
cable-shape
 70
    1
 62
    7
  6
CONTINUOUS
370
    0
390
F
  0
LAYER
  5
4D
330
2
100
AcDbSymbolTableRecord
100
AcDbLayerTableRecord
  2
helper-bottom
 70
    1
 62
    7
  6
CONTINUOUS
370
    0
390
F
  0
LAYER
  5
4E
330
2
100
AcDbSymbolTableRecord
100
AcDbLayerTableRecord
  2
helper-top
 70
    1
 62
    7
  6
CONTINUOUS
370
    0
390
F
  0
LAYER
  5
4F
330
2
100
AcDbSymbolTableRecord
100
AcDbLayerTableRecord
  2
hooks
 70
    0
 62
    7
  6
CONTINUOUS
370
    0
390
F
  0
LAYER
  5
50
330
2
100
AcDbSymbolTableRecord
100
AcDbLayerTableRecord
  2
outline
 70
    1
 62
    7
  6
CONTINUOUS
370
    0
390
F
  0
LAYER
  5
51
330
2
100
AcDbSymbolTableRecord
100
AcDbLayerTableRecord
  2
outline-profile
 70
    1
 62
    7
  6
CONTINUOUS
370
    0
390
F
  0
LAYER
  5
52
330
2
100
AcDbSymbolTableRecord
100
AcDbLayerTableRecord
  2
outline-straight
 70
    1
 62
    7
  6
CONTINUOUS
370
    0
390
F
  0
LAYER
  5
53
330
2
100
AcDbSymbolTableRecord
100
AcDbLayerTableRecord
  2
plate-support
 70
    1
 62
    7
  6
CONTINUOUS
370
    0
390
F
  0
LAYER
  5
54
330
2
100
AcDbSymbolTableRecord
100
AcDbLayerTableRecord
  2
side-view
 70
    1
 62
    7
  6
CONTINUOUS
370
    0
390
F
  0
ENDTAB
  0
TABLE
  2
STYLE
  5
3
330
0
100
AcDbSymbolTable
 70
    3
  0
STYLE
  5
55
330
2
100
AcDbSymbolTableRecord
100
AcDbTextStyleTableRecord
  2
Standard
 70
    0
 40
0
 41
1
 50
0
 71
    0
 42
1
  3
txt
  4

  0
ENDTAB
  0
TABLE
  2
VIEW
  5
6
330
0
100
AcDbSymbolTable
 70
    0
  0
ENDTAB
  0
TABLE
  2
UCS
  5
7
330
0
100
AcDbSymbolTable
 70
    0
  0
ENDTAB
  0
TABLE
  2
APPID
  5
9
330
0
100
AcDbSymbolTable
 70
    1
  0
APPID
  5
12
330
9
100
AcDbSymbolTableRecord
100
AcDbRegAppTableRecord
  2
ACAD
 70
    0
  0
APPID
  5
56
330
9
100
AcDbSymbolTableRecord
100
AcDbRegAppTableRecord
  2
LibreCad
 70
    0
  0
ENDTAB
  0
TABLE
  2
DIMSTYLE
  5
A
330
0
100
AcDbSymbolTable
 70
    1
100
AcDbDimStyleTable
 71
    1
  0
DIMSTYLE
105
57
330
A
100
AcDbSymbolTableRecord
100
AcDbDimStyleTableRecord
  2
Standard
 70
    0
 40
1
 41
2.5
 42
0.625
 43
0.38
 44
1.25
 45
0
 46
0
 47
0
 48
0
140
2.5
141
0.09
142
0
143
25.4
144
1
145
0
146
1
147
0.625
148
0
 71
    0
 72
    0
 73
    0
 74
    1
 75
    0
 76
    0
 77
    0
 78
    0
 79
    0
170
    0
171
    2
172
    0
173
    0
174
    0
175
    0
176
    0
177
    0
178
    0
179
    0
271
    4
272
    4
273
    2
274
    2
275
    0
276
    0
277
    2
278
   46
279
    0
280
    0
281
    0
282
    0
283
    1
284
    0
285
    0
286
    0
288
    0
289
    3
340
Standard
341

371
   -2
372
   -2
  0
ENDTAB
  0
TABLE
  2
BLOCK_RECORD
  5
1
330
0
100
AcDbSymbolTable
 70
    2
  0
BLOCK_RECORD
  5
1F
330
1
100
AcDbSymbolTableRecord
100
AcDbBlockTableRecord
  2
*Model_Space
 70
    0
280
    1
281
    0
  0
BLOCK_RECORD
  5
1E
330
1
100
AcDbSymbolTableRecord
100
AcDbBlockTableRecord
  2
*Paper_Space
 70
    0
280
    1
281
    0
  0
BLOCK_RECORD
  5
58
330
1
100
AcDbSymbolTableRecord
100
AcDbBlockTableRecord
  2
*D2
 70
    0
280
    1
281
    0
  0
BLOCK_RECORD
  5
5B
330
1
100
AcDbSymbolTableRecord
100
AcDbBlockTableRecord
  2
*D6
 70
    0
280
    1
281
    0
  0
BLOCK_RECORD
  5
5E
330
1
100
AcDbSymbolTableRecord
100
AcDbBlockTableRecord
  2
*D5
 70
    0
280
    1
281
    0
  0
BLOCK_RECORD
  5
61
330
1
100
AcDbSymbolTableRecord
100
AcDbBlockTableRecord
  2
*D8
 70
    0
280
    1
281
    0
  0
BLOCK_RECORD
  5
64
330
1
100
AcDbSymbolTableRecord
100
AcDbBlockTableRecord
  2
*D3
 70
    0
280
    1
281
    0
  0
BLOCK_RECORD
  5
67
330
1
100
AcDbSymbolTableRecord
100
AcDbBlockTableRecord
  2
*D7
 70
    0
280
    1
281
    0
  0
BLOCK_RECORD
  5
6A
330
1
100
AcDbSymbolTableRecord
100
AcDbBlockTableRecord
  2
*D1
 70
    0
280
    1
281
    0
  0
BLOCK_RECORD
  5
6D
330
1
100
AcDbSymbolTableRecord
100
AcDbBlockTableRecord
  2
*D4
 70
    0
280
    1
281
    0
  0
BLOCK_RECORD
  5
70
330
1
100
AcDbSymbolTableRecord
100
AcDbBlockTableRecord
  2
*D9
 70
    0
280
    1
281
    0
  0
ENDTAB
  0
ENDSEC
  0
SECTION
  2
BLOCKS
  0
BLOCK
  5
20
330
1F
100
AcDbEntity
  8
0
100
AcDbBlockBegin
  2
*Model_Space
 70
    0
 10
0
 20
0
 30
0
  3
*Model_Space
  1

  0
ENDBLK
  5
21
330
1F
100
AcDbEntity
  8
0
100
AcDbBlockEnd
  0
BLOCK
  5
1C
330
1B
100
AcDbEntity
  8
0
100
AcDbBlockBegin
  2
*Paper_Space
 70
    0
 10
0
 20
0
 30
0
  3
*Paper_Space
  1

  0
ENDBLK
  5
1D
330
1F
100
AcDbEntity
  8
0
100
AcDbBlockEnd
  0
BLOCK
  5
59
330
58
100
AcDbEntity
  8
0
100
AcDbBlockBegin
  2
*D2
 70
    1
 10
0
 20
0
  3
*D2
  1

  0
LINE
  5
73
100
AcDbEntity
  8
cable
  6
ByBlock
 62
    0
370
   -2
100
AcDbLine
 10
285.7509101730271
 20
-80
 11
0
 21
-80
  0
SOLID
  5
74
100
AcDbEntity
  8
cable
  6
ByBlock
 62
    0
370
   -2
100
AcDbTrace
 10
285.7509101730271
 20
-80
 30
0
 11
283.2509101730271
 21
-80.41628465777283
 31
0
 12
283.2509101730271
 22
-79.58371534222717
 32
0
 13
283.2509101730271
 23
-79.58371534222717
 33
0
  0
SOLID
  5
75
100
AcDbEntity
  8
cable
  6
ByBlock
 62
    0
370
   -2
100
AcDbTrace
 10
0
 20
-80
 30
0
 11
2.5
 21
-79.58371534222717
 31
0
 12
2.5
 22
-80.41628465777283
 32
0
 13
2.5
 23
-80.41628465777283
 33
0
  0
MTEXT
  5
76
100
AcDbEntity
  8
cable
  6
CONTINUOUS
 62
    0
370
   -2
100
AcDbMText
 10
142.8754550865136
 20
-78.125
 30
0
 40
2.5
 41
15.27777777777801
 71
    5
 72
    1
  1
delta_cx
  7
STANDARD
210
0
220
0
230
1
 50
360
 73
    2
 44
1
  0
LINE
  5
77
100
AcDbEntity
  8
cable
  6
ByBlock
 62
    0
370
   -2
100
AcDbLine
 10
285.7509101730271
 20
-0.6251228374456543
 11
285.7509101730271
 21
-81.25
  0
LINE
  5
78
100
AcDbEntity
  8
cable
  6
ByBlock
 62
    0
370
   -2
100
AcDbLine
 10
-1.148106374200643e-16
 20
-0.625
 11
-2.296212748401287e-16
 21
-81.25
  0
ENDBLK
  5
5A
330
58
100
AcDbEntity
  8
0
100
AcDbBlockEnd
  0
BLOCK
  5
5C
330
5B
100
AcDbEntity
  8
0
100
AcDbBlockBegin
  2
*D6
 70
    1
 10
0
 20
0
  3
*D6
  1

  0
LINE
  5
79
100
AcDbEntity
  8
side-view
  6
ByBlock
 62
    0
370
   -2
100
AcDbLine
 10
-51.86805700083819
 20
57.00064244081032
 11
-63.36805700083819
 21
57.00064244081032
  0
SOLID
  5
7A
100
AcDbEntity
  8
side-view
  6
ByBlock
 62
    0
370
   -2
100
AcDbTrace
 10
-56.86805700083819
 20
57.00064244081032
 30
0
 11
-54.36805700083819
 21
57.41692709858316
 31
0
 12
-54.36805700083819
 22
56.58435778303748
 32
0
 13
-54.36805700083819
 23
56.58435778303748
 33
0
  0
SOLID
  5
7B
100
AcDbEntity
  8
side-view
  6
ByBlock
 62
    0
370
   -2
100
AcDbTrace
 10
-58.36805700083819
 20
57.00064244081032
 30
0
 11
-60.86805700083819
 21
56.58435778303748
 31
0
 12
-60.86805700083819
 22
57.41692709858316
 32
0
 13
-60.86805700083819
 23
57.41692709858316
 33
0
  0
MTEXT
  5
7C
100
AcDbEntity
  8
side-view
  6
CONTINUOUS
 62
    0
370
   -2
100
AcDbMText
 10
-54.1597236675048
 20
58.87564244081032
 30
0
 40
2.5
 41
4.166666666666783
 71
    5
 72
    1
  1
bpl
  7
STANDARD
210
0
220
0
230
1
 50
360
 73
    2
 44
1
  0
LINE
  5
7D
100
AcDbEntity
  8
side-view
  6
ByBlock
 62
    0
370
   -2
100
AcDbLine
 10
-56.86805700083819
 20
72.94631831563434
 11
-56.86805700083819
 21
55.75064244081032
  0
LINE
  5
7E
100
AcDbEntity
  8
side-view
  6
ByBlock
 62
    0
370
   -2
100
AcDbLine
 10
-58.36805700083819
 20
72.94631831563434
 11
-58.36805700083819
 21
55.75064244081032
  0
ENDBLK
  5
5D
330
5B
100
AcDbEntity
  8
0
100
AcDbBlockEnd
  0
BLOCK
  5
5F
330
5E
100
AcDbEntity
  8
0
100
AcDbBlockBegin
  2
*D5
 70
    1
 10
0
 20
0
  3
*D5
  1

  0
LINE
  5
7F
100
AcDbEntity
  8
side-view
  6
ByBlock
 62
    0
370
   -2
100
AcDbLine
 10
-61.86805700083819
 20
64.00064244081032
 11
-51.46805700083818
 21
64.00064244081032
  0
SOLID
  5
80
100
AcDbEntity
  8
side-view
  6
ByBlock
 62
    0
370
   -2
100
AcDbTrace
 10
-56.86805700083819
 20
64.00064244081032
 30
0
 11
-59.36805700083819
 21
63.58435778303748
 31
0
 12
-59.36805700083819
 22
64.41692709858316
 32
0
 13
-59.36805700083819
 23
64.41692709858316
 33
0
  0
SOLID
  5
81
100
AcDbEntity
  8
side-view
  6
ByBlock
 62
    0
370
   -2
100
AcDbTrace
 10
-56.46805700083818
 20
64.00064244081032
 30
0
 11
-53.96805700083818
 21
64.41692709858316
 31
0
 12
-53.96805700083818
 22
63.58435778303748
 32
0
 13
-53.96805700083818
 23
63.58435778303748
 33
0
  0
MTEXT
  5
82
100
AcDbEntity
  8
side-view
  6
CONTINUOUS
 62
    0
370
   -2
100
AcDbMText
 10
-54.17639033417142
 20
65.87564244081032
 30
0
 40
2.5
 41
3.333333333333527
 71
    5
 72
    1
  1
lbl
  7
STANDARD
210
0
220
0
230
1
 50
0
 73
    2
 44
1
  0
LINE
  5
83
100
AcDbEntity
  8
side-view
  6
ByBlock
 62
    0
370
   -2
100
AcDbLine
 10
-56.86805700083819
 20
70.23591011563444
 11
-56.86805700083819
 21
62.75064244081032
  0
LINE
  5
84
100
AcDbEntity
  8
side-view
  6
ByBlock
 62
    0
370
   -2
100
AcDbLine
 10
-56.46805700083818
 20
76.27525234731338
 11
-56.46805700083818
 21
62.75064244081032
  0
ENDBLK
  5
60
330
5E
100
AcDbEntity
  8
0
100
AcDbBlockEnd
  0
BLOCK
  5
62
330
61
100
AcDbEntity
  8
0
100
AcDbBlockBegin
  2
*D8
 70
    1
 10
0
 20
0
  3
*D8
  1

  0
LINE
  5
85
100
AcDbEntity
  8
side-view
  6
ByBlock
 62
    0
370
   -2
100
AcDbLine
 10
-53.36805700083819
 20
50.00064244081032
 11
-67.9680570008382
 21
50.00064244081032
  0
SOLID
  5
86
100
AcDbEntity
  8
side-view
  6
ByBlock
 62
    0
370
   -2
100
AcDbTrace
 10
-58.36805700083819
 20
50.00064244081032
 30
0
 11
-55.86805700083819
 21
50.41692709858316
 31
0
 12
-55.86805700083819
 22
49.58435778303748
 32
0
 13
-55.86805700083819
 23
49.58435778303748
 33
0
  0
SOLID
  5
87
100
AcDbEntity
  8
side-view
  6
ByBlock
 62
    0
370
   -2
100
AcDbTrace
 10
-62.96805700083819
 20
50.00064244081032
 30
0
 11
-65.4680570008382
 21
49.58435778303748
 31
0
 12
-65.4680570008382
 22
50.41692709858316
 32
0
 13
-65.4680570008382
 23
50.41692709858316
 33
0
  0
MTEXT
  5
88
100
AcDbEntity
  8
side-view
  6
CONTINUOUS
 62
    0
370
   -2
100
AcDbMText
 10
-60.6680570008382
 20
51.87564244081032
 30
0
 40
2.5
 41
4.444444444444561
 71
    5
 72
    1
  1
mid
  7
STANDARD
210
0
220
0
230
1
 50
360
 73
    2
 44
1
  0
LINE
  5
89
100
AcDbEntity
  8
side-view
  6
ByBlock
 62
    0
370
   -2
100
AcDbLine
 10
-58.36805700083819
 20
72.94631831563434
 11
-58.36805700083819
 21
48.75064244081032
  0
LINE
  5
8A
100
AcDbEntity
  8
side-view
  6
ByBlock
 62
    0
370
   -2
100
AcDbLine
 10
-62.96805700083819
 20
72.94631831563434
 11
-62.96805700083819
 21
48.75064244081032
  0
ENDBLK
  5
63
330
61
100
AcDbEntity
  8
0
100
AcDbBlockEnd
  0
BLOCK
  5
65
330
64
100
AcDbEntity
  8
0
100
AcDbBlockBegin
  2
*D3
 70
    1
 10
0
 20
0
  3
*D3
  1

  0
LINE
  5
8B
100
AcDbEntity
  8
cable
  6
ByBlock
 62
    0
370
   -2
100
AcDbLine
 10
-32.15221837861456
 20
76.90026849935659
 11
-32.15221837861456
 21
2.284552520749697e-15
  0
SOLID
  5
8C
100
AcDbEntity
  8
cable
  6
ByBlock
 62
    0
370
   -2
100
AcDbTrace
 10
-32.15221837861456
 20
76.90026849935659
 30
0
 11
-31.73593372084171
 21
74.40026849935659
 31
0
 12
-32.5685030363874
 22
74.40026849935659
 32
0
 13
-32.5685030363874
 23
74.40026849935659
 33
0
  0
SOLID
  5
8D
100
AcDbEntity
  8
cable
  6
ByBlock
 62
    0
370
   -2
100
AcDbTrace
 10
-32.15221837861456
 20
2.284552520749697e-15
 30
0
 11
-32.5685030363874
 21
2.500000000000002
 31
0
 12
-31.73593372084172
 22
2.500000000000002
 32
0
 13
-31.73593372084172
 23
2.500000000000002
 33
0
  0
MTEXT
  5
8E
100
AcDbEntity
  8
cable
  6
CONTINUOUS
 62
    0
370
   -2
100
AcDbMText
 10
-34.02721837861456
 20
38.45013424967829
 30
0
 40
2.5
 41
11.6666666666669
 71
    5
 72
    1
  1
y0cable
  7
STANDARD
210
0
220
0
230
1
 50
90
 73
    2
 44
1
  0
LINE
  5
8F
100
AcDbEntity
  8
cable
  6
ByBlock
 62
    0
370
   -2
100
AcDbLine
 10
-0.6248943911836875
 20
76.90026849935659
 11
-33.40221837861456
 21
76.90026849935659
  0
LINE
  5
90
100
AcDbEntity
  8
cable
  6
ByBlock
 62
    0
370
   -2
100
AcDbLine
 10
-0.625
 20
7.654042494670958e-17
 11
-33.40221837861456
 21
2.437633370643116e-15
  0
ENDBLK
  5
66
330
64
100
AcDbEntity
  8
0
100
AcDbBlockEnd
  0
BLOCK
  5
68
330
67
100
AcDbEntity
  8
0
100
AcDbBlockBegin
  2
*D7
 70
    1
 10
0
 20
0
  3
*D7
  1

  0
LINE
  5
91
100
AcDbEntity
  8
side-view
  6
ByBlock
 62
    0
370
   -2
100
AcDbLine
 10
-57.96805700083819
 20
41.00064244081032
 11
-69.56805700083819
 21
41.00064244081032
  0
SOLID
  5
92
100
AcDbEntity
  8
side-view
  6
ByBlock
 62
    0
370
   -2
100
AcDbTrace
 10
-62.96805700083819
 20
41.00064244081032
 30
0
 11
-60.46805700083819
 21
41.41692709858316
 31
0
 12
-60.46805700083819
 22
40.58435778303748
 32
0
 13
-60.46805700083819
 23
40.58435778303748
 33
0
  0
SOLID
  5
93
100
AcDbEntity
  8
side-view
  6
ByBlock
 62
    0
370
   -2
100
AcDbTrace
 10
-64.56805700083819
 20
41.00064244081032
 30
0
 11
-67.06805700083819
 21
40.58435778303748
 31
0
 12
-67.06805700083819
 22
41.41692709858316
 32
0
 13
-67.06805700083819
 23
41.41692709858316
 33
0
  0
MTEXT
  5
94
100
AcDbEntity
  8
side-view
  6
CONTINUOUS
 62
    0
370
   -2
100
AcDbMText
 10
-60.39861255639375
 20
42.87564244081032
 30
0
 40
2.5
 41
3.888888888888889
 71
    5
 72
    1
  1
tpl
  7
STANDARD
210
0
220
0
230
1
 50
360
 73
    2
 44
1
  0
LINE
  5
95
100
AcDbEntity
  8
side-view
  6
ByBlock
 62
    0
370
   -2
100
AcDbLine
 10
-62.96805700083819
 20
72.94631831563434
 11
-62.96805700083819
 21
39.75064244081032
  0
LINE
  5
96
100
AcDbEntity
  8
side-view
  6
ByBlock
 62
    0
370
   -2
100
AcDbLine
 10
-64.56805700083819
 20
72.94631831563434
 11
-64.56805700083819
 21
39.75064244081032
  0
ENDBLK
  5
69
330
67
100
AcDbEntity
  8
0
100
AcDbBlockEnd
  0
BLOCK
  5
6B
330
6A
100
AcDbEntity
  8
0
100
AcDbBlockBegin
  2
*D1
 70
    1
 10
0
 20
0
  3
*D1
  1

  0
LINE
  5
97
100
AcDbEntity
  8
cable
  6
ByBlock
 62
    0
370
   -2
100
AcDbLine
 10
-26
 20
76.20026849935665
 11
-26.00000000000001
 21
1.847411112976261e-15
  0
SOLID
  5
98
100
AcDbEntity
  8
cable
  6
ByBlock
 62
    0
370
   -2
100
AcDbTrace
 10
-26
 20
76.20026849935665
 30
0
 11
-25.58371534222716
 21
73.70026849935665
 31
0
 12
-26.41628465777285
 22
73.70026849935665
 32
0
 13
-26.41628465777285
 23
73.70026849935665
 33
0
  0
SOLID
  5
99
100
AcDbEntity
  8
cable
  6
ByBlock
 62
    0
370
   -2
100
AcDbTrace
 10
-26.00000000000001
 20
1.847411112976261e-15
 30
0
 11
-26.41628465777285
 21
2.500000000000002
 31
0
 12
-25.58371534222717
 22
2.500000000000002
 32
0
 13
-25.58371534222717
 23
2.500000000000002
 33
0
  0
MTEXT
  5
9A
100
AcDbEntity
  8
cable
  6
CONTINUOUS
 62
    0
370
   -2
100
AcDbMText
 10
-27.875
 20
38.10013424967833
 30
0
 40
2.5
 41
15.27777777777801
 71
    5
 72
    1
  1
delta_cy
  7
STANDARD
210
0
220
0
230
1
 50
90
 73
    2
 44
1
  0
LINE
  5
9B
100
AcDbEntity
  8
cable
  6
ByBlock
 62
    0
370
   -2
100
AcDbLine
 10
-0.6248946480581878
 20
76.20026849935664
 11
-27.25
 21
76.20026849935665
  0
LINE
  5
9C
100
AcDbEntity
  8
cable
  6
ByBlock
 62
    0
370
   -2
100
AcDbLine
 10
-0.625
 20
7.654042494670958e-17
 11
-27.25000000000001
 21
2.000491962869681e-15
  0
ENDBLK
  5
6C
330
6A
100
AcDbEntity
  8
0
100
AcDbBlockEnd
  0
BLOCK
  5
6E
330
6D
100
AcDbEntity
  8
0
100
AcDbBlockBegin
  2
*D4
 70
    1
 10
0
 20
0
  3
*D4
  1

  0
LINE
  5
9D
100
AcDbEntity
  8
cable
  6
ByBlock
 62
    0
370
   -2
100
AcDbLine
 10
26.19420181174121
 20
-54.91692774157524
 11
0
 21
-54.91692774157524
  0
SOLID
  5
9E
100
AcDbEntity
  8
cable
  6
ByBlock
 62
    0
370
   -2
100
AcDbTrace
 10
26.19420181174121
 20
-54.91692774157524
 30
0
 11
23.69420181174121
 21
-55.33321239934808
 31
0
 12
23.69420181174121
 22
-54.5006430838024
 32
0
 13
23.69420181174121
 23
-54.5006430838024
 33
0
  0
SOLID
  5
9F
100
AcDbEntity
  8
cable
  6
ByBlock
 62
    0
370
   -2
100
AcDbTrace
 10
0
 20
-54.91692774157524
 30
0
 11
2.5
 21
-54.5006430838024
 31
0
 12
2.5
 22
-55.33321239934808
 32
0
 13
2.5
 23
-55.33321239934808
 33
0
  0
MTEXT
  5
A0
100
AcDbEntity
  8
cable
  6
CONTINUOUS
 62
    0
370
   -2
100
AcDbMText
 10
13.0971009058706
 20
-53.04192774157524
 30
0
 40
2.5
 41
11.6666666666669
 71
    5
 72
    1
  1
x0cable
  7
STANDARD
210
0
220
0
230
1
 50
360
 73
    2
 44
1
  0
LINE
  5
A1
100
AcDbEntity
  8
cable
  6
ByBlock
 62
    0
370
   -2
100
AcDbLine
 10
26.19420181174121
 20
71.57526831563437
 11
26.19420181174121
 21
-56.16692774157524
  0
LINE
  5
A2
100
AcDbEntity
  8
cable
  6
ByBlock
 62
    0
370
   -2
100
AcDbLine
 10
-1.148106374200643e-16
 20
-0.625
 11
-2.296212748401287e-16
 21
-56.16692774157524
  0
ENDBLK
  5
6F
330
6D
100
AcDbEntity
  8
0
100
AcDbBlockEnd
  0
BLOCK
  5
71
330
70
100
AcDbEntity
  8
0
100
AcDbBlockBegin
  2
*D9
 70
    1
 10
0
 20
0
  3
*D9
  1

  0
LINE
  5
A3
100
AcDbEntity
  8
side-view
  6
ByBlock
 62
    0
370
   -2
100
AcDbLine
 10
-64.56805700083819
 20
53
 11
-71.56805700083819
 21
53
  0
SOLID
  5
A4
100
AcDbEntity
  8
side-view
  6
ByBlock
 62
    0
370
   -2
100
AcDbTrace
 10
-64.56805700083819
 20
53
 30
0
 11
-67.06805700083819
 21
52.58371534222716
 31
0
 12
-67.06805700083819
 22
53.41628465777284
 32
0
 13
-67.06805700083819
 23
53.41628465777284
 33
0
  0
SOLID
  5
A5
100
AcDbEntity
  8
side-view
  6
ByBlock
 62
    0
370
   -2
100
AcDbTrace
 10
-71.56805700083819
 20
53
 30
0
 11
-69.06805700083819
 21
53.41628465777284
 31
0
 12
-69.06805700083819
 22
52.58371534222716
 32
0
 13
-69.06805700083819
 23
52.58371534222716
 33
0
  0
MTEXT
  5
A6
100
AcDbEntity
  8
side-view
  6
CONTINUOUS
 62
    0
370
   -2
100
AcDbMText
 10
-68.06805700083819
 20
54.875
 30
0
 40
2.5
 41
5
 71
    5
 72
    1
  1
key
  7
STANDARD
210
0
220
0
230
1
 50
360
 73
    2
 44
1
  0
LINE
  5
A7
100
AcDbEntity
  8
side-view
  6
ByBlock
 62
    0
370
   -2
100
AcDbLine
 10
-64.56805700083819
 20
70.23591011563444
 11
-64.56805700083819
 21
51.75
  0
LINE
  5
A8
100
AcDbEntity
  8
side-view
  6
ByBlock
 62
    0
370
   -2
100
AcDbLine
 10
-71.56805700083819
 20
76.27525234731338
 11
-71.56805700083819
 21
51.75
  0
ENDBLK
  5
72
330
70
100
AcDbEntity
  8
0
100
AcDbBlockEnd
  0
ENDSEC
  0
SECTION
  2
ENTITIES
  0
LWPOLYLINE
  5
A9
100
AcDbEntity
  8
helper-bottom
  6
ByLayer
 62
    0
370
   -1
100
AcDbPolyline
 90
    5
 70
    1
 43
0
 10
101.4947166917414
 20
5.435081915634314
 10
98.49624669174136
 20
5.435081915634314
 10
98.49624669174136
 20
2.524673715634307
 10
101.4947166917414
 20
2.524673715634307
 10
101.4947166917414
 20
5.435081915634314
  0
LWPOLYLINE
  5
AA
100
AcDbEntity
  8
helper-bottom
  6
ByLayer
 62
    0
370
   -1
100
AcDbPolyline
 90
    5
 70
    1
 43
0
 10
106.3191926917414
 20
73.67131831563437
 10
103.3204686917413
 20
73.67131831563437
 10
103.3204686917413
 20
70.76936831563431
 10
106.3191926917414
 20
70.76936831563431
 10
106.3191926917414
 20
73.67131831563437
  0
LWPOLYLINE
  5
AB
100
AcDbEntity
  8
helper-bottom
  6
ByLayer
 62
    0
370
   -1
100
AcDbPolyline
 90
    5
 70
    1
 43
0
 10
187.2639126917413
 20
5.435081915634314
 10
184.2651886917413
 20
5.435081915634314
 10
184.2651886917413
 20
2.524673715634307
 10
187.2639126917413
 20
2.524673715634307
 10
187.2639126917413
 20
5.435081915634314
  0
LWPOLYLINE
  5
AC
100
AcDbEntity
  8
helper-bottom
  6
ByLayer
 62
    0
370
   -1
100
AcDbPolyline
 90
    5
 70
    1
 43
0
 10
182.5191926917414
 20
73.67131831563437
 10
179.5204686917414
 20
73.67131831563437
 10
179.5204686917414
 20
70.76936831563431
 10
182.5191926917414
 20
70.76936831563431
 10
182.5191926917414
 20
73.67131831563437
  0
LWPOLYLINE
  5
AD
100
AcDbEntity
  8
helper-bottom
  6
ByLayer
 62
    0
370
   -1
100
AcDbPolyline
 90
   85
 70
    1
 43
0
 10
286.1035839517412
 20
76.22224031563438
 10
286.1421690917414
 20
76.15442231563428
 10
286.1752419217412
 20
76.08279431563436
 10
286.2014247517413
 20
76.00989631563435
 10
286.2234732217412
 20
75.93293431563437
 10
286.2386319417412
 20
75.85698831563433
 10
286.2482778417413
 20
75.77850231563433
 10
286.2510339917412
 20
75.69976231563429
 10
286.2510339917412
 20
0.5003318156343388
 10
286.2482778417413
 20
0.4217848556343
 10
286.2386319417412
 20
0.3446145756342807
 10
286.2234732217412
 20
0.2674442956343759
 10
286.2014247517413
 20
0.1916506956343786
 10
286.1752419217412
 20
0.1172388556343398
 10
286.1421690917414
 20
0.04695959563433405
 10
286.1035839517412
 20
-0.02194044436568321
 10
286.0594859917412
 20
-0.08808712436565713
 10
286.0112564717413
 20
-0.1487220043657231
 10
285.9575100717414
 20
-0.2065984443656963
 10
285.8996336317414
 20
-0.260344844365719
 10
285.8390012917414
 20
-0.3085743643656693
 10
285.7728571517414
 20
-0.3526713043657002
 10
285.7053312517412
 20
-0.3912574603656513
 10
285.6336753117414
 20
-0.4243305463657103
 10
285.5606350717412
 20
-0.4505133743656562
 10
285.4834647917412
 20
-0.4711836403656813
 10
285.4076737317414
 20
-0.4877203103657313
 10
285.3291242317414
 20
-0.4973664683656271
 10
285.2505798117413
 20
-0.5001226223656801
 10
0.5007606917411067
 20
-0.5001226223656801
 10
0.4220206917412099
 20
-0.4973664683656271
 10
0.3458206917412099
 20
-0.4877203103657313
 10
0.2670806917413131
 20
-0.4711836403656813
 10
0.1934206917413235
 20
-0.4505133743656562
 10
0.1172206917413234
 20
-0.4243305463657103
 10
0.04864069174121255
 20
-0.3912574603656513
 10
-0.01993930825889834
 20
-0.3526713043657002
 10
-0.0885193082585829
 20
-0.3085743643656693
 10
-0.1469393082588795
 20
-0.260344844365719
 10
-0.2053593082586929
 20
-0.2065984443656963
 10
-0.2586993082586844
 20
-0.1487220043657231
 10
-0.3069593082586834
 20
-0.08808712436565713
 10
-0.3526793082587858
 20
-0.02194044436568321
 10
-0.3907793082584874
 20
0.04695959563433405
 10
-0.4237993082587934
 20
0.1172388556343398
 10
-0.449199308258784
 20
0.1916506956343786
 10
-0.4695193082588958
 20
0.2674442956343759
 10
-0.4872993082585992
 20
0.3446145756342807
 10
-0.4974593082588967
 20
0.4217848556343
 10
-0.4999993082587935
 20
0.5003318156343388
 10
-0.4999993082587935
 20
75.69976231563429
 10
-0.4974593082588967
 20
75.77850231563433
 10
-0.4872993082585992
 20
75.85698831563433
 10
-0.4695193082588958
 20
75.93293431563437
 10
-0.449199308258784
 20
76.00989631563435
 10
-0.4237993082587934
 20
76.08279431563436
 10
-0.3907793082584874
 20
76.15442231563428
 10
-0.3526793082587858
 20
76.22224031563438
 10
-0.3069593082586834
 20
76.28828031563431
 10
-0.2586993082586844
 20
76.34873231563436
 10
-0.2053593082586929
 20
76.40664431563435
 10
-0.1469393082588795
 20
76.4607463156343
 10
-0.0885193082585829
 20
76.50875231563428
 10
-0.01993930825889834
 20
76.5526943156343
 10
0.04864069174121255
 20
76.59155631563429
 10
0.1172206917413234
 20
76.6248303156343
 10
0.1934206917413235
 20
76.65073831563437
 10
0.2670806917413131
 20
76.67258231563436
 10
0.3458206917412099
 20
76.68782231563431
 10
0.4220206917412099
 20
76.69772831563431
 10
0.5007606917411067
 20
76.70026831563437
 10
285.2505798117413
 20
76.70026831563437
 10
285.3291242317414
 20
76.69772831563431
 10
285.4076737317414
 20
76.68782231563431
 10
285.4834647917412
 20
76.67258231563436
 10
285.5606350717412
 20
76.65073831563437
 10
285.6336753117414
 20
76.6248303156343
 10
285.7053312517412
 20
76.59155631563429
 10
285.7728571517414
 20
76.5526943156343
 10
285.8390012917414
 20
76.50875231563428
 10
285.8996336317414
 20
76.4607463156343
 10
285.9575100717414
 20
76.40664431563435
 10
286.0112564717413
 20
76.34873231563436
 10
286.0594859917412
 20
76.28828031563431
 10
286.1035839517412
 20
76.22224031563438
  0
LWPOLYLINE
  5
AE
100
AcDbEntity
  8
helper-top
  6
ByLayer
 62
    0
370
   -1
100
AcDbPolyline
 90
   85
 70
    1
 43
0
 10
286.0582998117411
 20
76.28828031563442
 10
286.1040198117412
 20
76.22224031563438
 10
286.1421198117412
 20
76.15442231563439
 10
286.1751398117412
 20
76.08279431563436
 10
286.2005398117412
 20
76.00989631563435
 10
286.2208598117413
 20
75.93293431563437
 10
286.2386398117412
 20
75.85698831563433
 10
286.2487998117413
 20
75.77850231563433
 10
286.2513398117412
 20
75.6997623156344
 10
286.2513398117412
 20
0.5003318156343388
 10
286.2487998117413
 20
0.4217848556344128
 10
286.2386398117412
 20
0.3446145756343948
 10
286.2208598117413
 20
0.2674442956343759
 10
286.2005398117412
 20
0.1916506956343786
 10
286.1751398117412
 20
0.1172388556343398
 10
286.1421198117412
 20
0.04695959563433405
 10
286.1040198117412
 20
-0.02194044436568321
 10
286.0582998117411
 20
-0.08808712436565713
 10
286.0100398117413
 20
-0.1487220043656103
 10
285.9566998117411
 20
-0.2065984443655822
 10
285.8982798117413
 20
-0.2603448443656053
 10
285.8398598117412
 20
-0.3085743643656693
 10
285.7712798117411
 20
-0.352671304365586
 10
285.7026998117412
 20
-0.3912574603656513
 10
285.6341198117411
 20
-0.4243305463655962
 10
285.5579198117411
 20
-0.4505133743656562
 10
285.4842598117411
 20
-0.4711836403656813
 10
285.4055198117412
 20
-0.4877203103656171
 10
285.3293198117412
 20
-0.4973664683656271
 10
285.2505798117413
 20
-0.5001226223656801
 10
0.5007606917411067
 20
-0.5001226223656801
 10
0.4222162717410072
 20
-0.4973664683656271
 10
0.3436667717409989
 20
-0.4877203103656171
 10
0.267875711741425
 20
-0.4711836403656813
 10
0.1907054317412076
 20
-0.4505133743656562
 10
0.1176651917412244
 20
-0.4243305463655962
 10
0.04600925174099757
 20
-0.3912574603656513
 10
-0.02151664825899502
 20
-0.352671304365586
 10
-0.08766078825880186
 20
-0.3085743643656693
 10
-0.1482931282589846
 20
-0.2603448443656053
 10
-0.2061695682587015
 20
-0.2065984443655822
 10
-0.2599159682585821
 20
-0.1487220043656103
 10
-0.3081454882589867
 20
-0.08808712436565713
 10
-0.3522434442589031
 20
-0.02194044436568321
 10
-0.3908285842585997
 20
0.04695959563433405
 10
-0.4239014162589854
 20
0.1172388556343398
 10
-0.4500842442589885
 20
0.1916506956343786
 10
-0.4721327142587768
 20
0.2674442956343759
 10
-0.4872914342585943
 20
0.3446145756343948
 10
-0.4969373382586753
 20
0.4217848556344128
 10
-0.4996934922587855
 20
0.5003318156343388
 10
-0.4996934922587855
 20
75.6997623156344
 10
-0.4969373382586753
 20
75.77850231563433
 10
-0.4872914342585943
 20
75.85698831563433
 10
-0.4721327142587768
 20
75.93293431563437
 10
-0.4500842442589885
 20
76.00989631563435
 10
-0.4239014162589854
 20
76.08279431563436
 10
-0.3908285842585997
 20
76.15442231563439
 10
-0.3522434442589031
 20
76.22224031563438
 10
-0.3081454882589867
 20
76.28828031563442
 10
-0.2599159682585821
 20
76.34873231563436
 10
-0.2061695682587015
 20
76.40664431563435
 10
-0.1482931282589846
 20
76.46074631563441
 10
-0.08766078825880186
 20
76.5087523156344
 10
-0.02151664825899502
 20
76.55269431563441
 10
0.04600925174099757
 20
76.59155631563441
 10
0.1176651917412244
 20
76.62483031563441
 10
0.1907054317412076
 20
76.65073831563437
 10
0.267875711741425
 20
76.67258231563436
 10
0.3436667717409989
 20
76.68782231563442
 10
0.4222162717410072
 20
76.69772831563442
 10
0.5007606917411067
 20
76.70026831563437
 10
285.2505798117413
 20
76.70026831563437
 10
285.3293198117412
 20
76.69772831563442
 10
285.4055198117412
 20
76.68782231563442
 10
285.4842598117411
 20
76.67258231563436
 10
285.5579198117411
 20
76.65073831563437
 10
285.6341198117411
 20
76.62483031563441
 10
285.7026998117412
 20
76.59155631563441
 10
285.7712798117411
 20
76.55269431563441
 10
285.8398598117412
 20
76.5087523156344
 10
285.8982798117413
 20
76.46074631563441
 10
285.9566998117411
 20
76.40664431563435
 10
286.0100398117413
 20
76.34873231563436
 10
286.0582998117411
 20
76.28828031563442
  0
LWPOLYLINE
  5
AF
100
AcDbEntity
  8
helper-top
  6
ByLayer
 62
    0
370
   -1
100
AcDbPolyline
 90
    5
 70
    1
 43
0
 10
4.906334811741118
 20
54.62538231563438
 10
18.9058242117412
 20
54.62538231563438
 10
18.9058242117412
 20
40.62490231563434
 10
4.906334811741118
 20
40.62490231563434
 10
4.906334811741118
 20
54.62538231563438
  0
LWPOLYLINE
  5
B0
100
AcDbEntity
  8
helper-top
  6
ByLayer
 62
    0
370
   -1
100
AcDbPolyline
 90
    5
 70
    1
 43
0
 10
4.906334811741118
 20
35.57538231563431
 10
18.9058242117412
 20
35.57538231563431
 10
18.9058242117412
 20
21.57467371563438
 10
4.906334811741118
 20
21.57467371563438
 10
4.906334811741118
 20
35.57538231563431
  0
LWPOLYLINE
  5
B1
100
AcDbEntity
  8
helper-top
  6
ByLayer
 62
    0
370
   -1
100
AcDbPolyline
 90
    5
 70
    1
 43
0
 10
4.906334811741118
 20
16.5255347156344
 10
18.9058242117412
 20
16.5255347156344
 10
18.9058242117412
 20
2.524673715634421
 10
4.906334811741118
 20
2.524673715634421
 10
4.906334811741118
 20
16.5255347156344
  0
LWPOLYLINE
  5
B2
100
AcDbEntity
  8
helper-top
  6
ByLayer
 62
    0
370
   -1
100
AcDbPolyline
 90
    5
 70
    1
 43
0
 10
7.289007211741108
 20
73.67538231563434
 10
21.28844581174121
 20
73.67538231563434
 10
21.28844581174121
 20
59.67490231563441
 10
7.289007211741108
 20
59.67490231563441
 10
7.289007211741108
 20
73.67538231563434
  0
LWPOLYLINE
  5
B3
100
AcDbEntity
  8
helper-top
  6
ByLayer
 62
    0
370
   -1
100
AcDbPolyline
 90
    5
 70
    1
 43
0
 10
26.33745781174112
 20
35.57538231563431
 10
40.33692181204131
 20
35.57538231563431
 10
40.33692181204131
 20
21.57467371563438
 10
26.33745781174112
 20
21.57467371563438
 10
26.33745781174112
 20
35.57538231563431
  0
LWPOLYLINE
  5
B4
100
AcDbEntity
  8
helper-top
  6
ByLayer
 62
    0
370
   -1
100
AcDbPolyline
 90
    5
 70
    1
 43
0
 10
28.71870781174131
 20
16.5255347156344
 10
42.71969581204121
 20
16.5255347156344
 10
42.71969581204121
 20
2.524673715634421
 10
28.71870781174131
 20
2.524673715634421
 10
28.71870781174131
 20
16.5255347156344
  0
LWPOLYLINE
  5
B5
100
AcDbEntity
  8
helper-top
  6
ByLayer
 62
    0
370
   -1
100
AcDbPolyline
 90
    5
 70
    1
 43
0
 10
31.09995781174121
 20
73.67538231563434
 10
45.10094581204112
 20
73.67538231563434
 10
45.10094581204112
 20
59.67490231563441
 10
31.09995781174121
 20
59.67490231563441
 10
31.09995781174121
 20
73.67538231563434
  0
LWPOLYLINE
  5
B6
100
AcDbEntity
  8
helper-top
  6
ByLayer
 62
    0
370
   -1
100
AcDbPolyline
 90
    5
 70
    1
 43
0
 10
35.86271181204121
 20
54.62538231563438
 10
49.86192181204115
 20
54.62538231563438
 10
49.86192181204115
 20
40.62490231563434
 10
35.86271181204121
 20
40.62490231563434
 10
35.86271181204121
 20
54.62538231563438
  0
LWPOLYLINE
  5
B7
100
AcDbEntity
  8
helper-top
  6
ByLayer
 62
    0
370
   -1
100
AcDbPolyline
 90
    5
 70
    1
 43
0
 10
45.38898181204127
 20
35.57538231563431
 10
59.38844581204125
 20
35.57538231563431
 10
59.38844581204125
 20
21.57467371563438
 10
45.38898181204127
 20
21.57467371563438
 10
45.38898181204127
 20
35.57538231563431
  0
LWPOLYLINE
  5
B8
100
AcDbEntity
  8
helper-top
  6
ByLayer
 62
    0
370
   -1
100
AcDbPolyline
 90
    5
 70
    1
 43
0
 10
50.15021181204111
 20
73.67538231563434
 10
64.1509458120413
 20
73.67538231563434
 10
64.1509458120413
 20
59.67490231563441
 10
50.15021181204111
 20
59.67490231563441
 10
50.15021181204111
 20
73.67538231563434
  0
LWPOLYLINE
  5
B9
100
AcDbEntity
  8
helper-top
  6
ByLayer
 62
    0
370
   -1
100
AcDbPolyline
 90
    5
 70
    1
 43
0
 10
54.91271181204115
 20
54.62538231563438
 10
68.91192181204133
 20
54.62538231563438
 10
68.91192181204133
 20
40.62490231563434
 10
54.91271181204115
 20
40.62490231563434
 10
54.91271181204115
 20
54.62538231563438
  0
LWPOLYLINE
  5
BA
100
AcDbEntity
  8
helper-top
  6
ByLayer
 62
    0
370
   -1
100
AcDbPolyline
 90
    5
 70
    1
 43
0
 10
54.91271181204115
 20
16.5255347156344
 10
68.91192181204133
 20
16.5255347156344
 10
68.91192181204133
 20
2.524673715634421
 10
54.91271181204115
 20
2.524673715634421
 10
54.91271181204115
 20
16.5255347156344
  0
LWPOLYLINE
  5
BB
100
AcDbEntity
  8
helper-top
  6
ByLayer
 62
    0
370
   -1
100
AcDbPolyline
 90
    5
 70
    1
 43
0
 10
64.43898181204122
 20
35.57538231563431
 10
78.43844581204121
 20
35.57538231563431
 10
78.43844581204121
 20
21.57467371563438
 10
64.43898181204122
 20
21.57467371563438
 10
64.43898181204122
 20
35.57538231563431
  0
LWPOLYLINE
  5
BC
100
AcDbEntity
  8
helper-top
  6
ByLayer
 62
    0
370
   -1
100
AcDbPolyline
 90
    5
 70
    1
 43
0
 10
69.20021181204129
 20
73.67538231563434
 10
83.20094581204125
 20
73.67538231563434
 10
83.20094581204125
 20
59.67490231563441
 10
69.20021181204129
 20
59.67490231563441
 10
69.20021181204129
 20
73.67538231563434
  0
LWPOLYLINE
  5
BD
100
AcDbEntity
  8
helper-top
  6
ByLayer
 62
    0
370
   -1
100
AcDbPolyline
 90
    5
 70
    1
 43
0
 10
73.96271181204111
 20
54.62538231563438
 10
87.96192181204128
 20
54.62538231563438
 10
87.96192181204128
 20
40.62490231563434
 10
73.96271181204111
 20
40.62490231563434
 10
73.96271181204111
 20
54.62538231563438
  0
LWPOLYLINE
  5
BE
100
AcDbEntity
  8
helper-top
  6
ByLayer
 62
    0
370
   -1
100
AcDbPolyline
 90
    5
 70
    1
 43
0
 10
83.4877118120412
 20
35.57538231563431
 10
97.48692181204115
 20
35.57538231563431
 10
97.48692181204115
 20
21.57467371563438
 10
83.4877118120412
 20
21.57467371563438
 10
83.4877118120412
 20
35.57538231563431
  0
LWPOLYLINE
  5
BF
100
AcDbEntity
  8
helper-top
  6
ByLayer
 62
    0
370
   -1
100
AcDbPolyline
 90
    7
 70
    1
 43
0
 10
83.4849178120412
 20
16.52139451563436
 10
83.4849178120412
 20
2.524673715634421
 10
101.4945338120413
 20
2.524673715634421
 10
101.4945338120413
 20
5.435081915634427
 10
97.48971581204114
 20
5.435081915634427
 10
97.48971581204114
 20
16.52139451563436
 10
83.4849178120412
 20
16.52139451563436
  0
LWPOLYLINE
  5
C0
100
AcDbEntity
  8
helper-top
  6
ByLayer
 62
    0
370
   -1
100
AcDbPolyline
 90
    9
 70
    1
 43
0
 10
88.24741781204125
 20
73.67131831563437
 10
88.24741781204125
 20
59.67490231563441
 10
102.2522158120412
 20
59.67490231563441
 10
102.2522158120412
 20
70.76936831563442
 10
107.2974178120412
 20
70.76936831563442
 10
107.2974178120412
 20
59.67490231563441
 10
121.3022158120411
 20
59.67490231563441
 10
121.3022158120411
 20
73.67131831563437
 10
88.24741781204125
 20
73.67131831563437
  0
LWPOLYLINE
  5
C1
100
AcDbEntity
  8
helper-top
  6
ByLayer
 62
    0
370
   -1
100
AcDbPolyline
 90
    5
 70
    1
 43
0
 10
93.01271181204129
 20
54.62538231563438
 10
107.0119218120412
 20
54.62538231563438
 10
107.0119218120412
 20
40.62490231563434
 10
93.01271181204129
 20
40.62490231563434
 10
93.01271181204129
 20
54.62538231563438
  0
LWPOLYLINE
  5
C2
100
AcDbEntity
  8
helper-top
  6
ByLayer
 62
    0
370
   -1
100
AcDbPolyline
 90
    5
 70
    1
 43
0
 10
102.5377118120412
 20
35.57538231563431
 10
116.5369218120413
 20
35.57538231563431
 10
116.5369218120413
 20
21.57467371563438
 10
102.5377118120412
 20
21.57467371563438
 10
102.5377118120412
 20
35.57538231563431
  0
LWPOLYLINE
  5
C3
100
AcDbEntity
  8
helper-top
  6
ByLayer
 62
    0
370
   -1
100
AcDbPolyline
 90
    5
 70
    1
 43
0
 10
112.0627118120412
 20
54.62538231563438
 10
126.0619218120312
 20
54.62538231563438
 10
126.0619218120312
 20
40.62490231563434
 10
112.0627118120412
 20
40.62490231563434
 10
112.0627118120412
 20
54.62538231563438
  0
LWPOLYLINE
  5
C4
100
AcDbEntity
  8
helper-top
  6
ByLayer
 62
    0
370
   -1
100
AcDbPolyline
 90
    5
 70
    1
 43
0
 10
112.0627118120412
 20
16.5255347156344
 10
126.0619218120312
 20
16.5255347156344
 10
126.0619218120312
 20
2.524673715634421
 10
112.0627118120412
 20
2.524673715634421
 10
112.0627118120412
 20
16.5255347156344
  0
LWPOLYLINE
  5
C5
100
AcDbEntity
  8
helper-top
  6
ByLayer
 62
    0
370
   -1
100
AcDbPolyline
 90
    5
 70
    1
 43
0
 10
121.5889818120413
 20
35.57538231563431
 10
135.5884458120313
 20
35.57538231563431
 10
135.5884458120313
 20
21.57467371563438
 10
121.5889818120413
 20
21.57467371563438
 10
121.5889818120413
 20
35.57538231563431
  0
LWPOLYLINE
  5
C6
100
AcDbEntity
  8
helper-top
  6
ByLayer
 62
    0
370
   -1
100
AcDbPolyline
 90
    5
 70
    1
 43
0
 10
126.3502118120311
 20
73.67538231563434
 10
140.3509458120311
 20
73.67538231563434
 10
140.3509458120311
 20
59.67490231563441
 10
126.3502118120311
 20
59.67490231563441
 10
126.3502118120311
 20
73.67538231563434
  0
LWPOLYLINE
  5
C7
100
AcDbEntity
  8
helper-top
  6
ByLayer
 62
    0
370
   -1
100
AcDbPolyline
 90
    5
 70
    1
 43
0
 10
131.1127118120312
 20
54.62538231563438
 10
145.1119218120411
 20
54.62538231563438
 10
145.1119218120411
 20
40.62490231563434
 10
131.1127118120312
 20
40.62490231563434
 10
131.1127118120312
 20
54.62538231563438
  0
LWPOLYLINE
  5
C8
100
AcDbEntity
  8
helper-top
  6
ByLayer
 62
    0
370
   -1
100
AcDbPolyline
 90
    5
 70
    1
 43
0
 10
135.8752118120312
 20
16.5255347156344
 10
149.8759458120412
 20
16.5255347156344
 10
149.8759458120412
 20
2.524673715634421
 10
135.8752118120312
 20
2.524673715634421
 10
135.8752118120312
 20
16.5255347156344
  0
LWPOLYLINE
  5
C9
100
AcDbEntity
  8
helper-top
  6
ByLayer
 62
    0
370
   -1
100
AcDbPolyline
 90
    5
 70
    1
 43
0
 10
140.6389818120313
 20
35.57538231563431
 10
154.6384458120413
 20
35.57538231563431
 10
154.6384458120413
 20
21.57467371563438
 10
140.6389818120313
 20
21.57467371563438
 10
140.6389818120313
 20
35.57538231563431
  0
LWPOLYLINE
  5
CA
100
AcDbEntity
  8
helper-top
  6
ByLayer
 62
    0
370
   -1
100
AcDbPolyline
 90
    5
 70
    1
 43
0
 10
145.4002118120411
 20
73.67538231563434
 10
159.4009458120413
 20
73.67538231563434
 10
159.4009458120413
 20
59.67490231563441
 10
145.4002118120411
 20
59.67490231563441
 10
145.4002118120411
 20
73.67538231563434
  0
LWPOLYLINE
  5
CB
100
AcDbEntity
  8
helper-top
  6
ByLayer
 62
    0
370
   -1
100
AcDbPolyline
 90
    5
 70
    1
 43
0
 10
150.1627118120412
 20
54.62538231563438
 10
164.1619218120413
 20
54.62538231563438
 10
164.1619218120413
 20
40.62490231563434
 10
150.1627118120412
 20
40.62490231563434
 10
150.1627118120412
 20
54.62538231563438
  0
LWPOLYLINE
  5
CC
100
AcDbEntity
  8
helper-top
  6
ByLayer
 62
    0
370
   -1
100
AcDbPolyline
 90
    5
 70
    1
 43
0
 10
159.6889818120412
 20
16.5255347156344
 10
173.6884458120412
 20
16.5255347156344
 10
173.6884458120412
 20
2.524673715634421
 10
159.6889818120412
 20
2.524673715634421
 10
159.6889818120412
 20
16.5255347156344
  0
LWPOLYLINE
  5
CD
100
AcDbEntity
  8
helper-top
  6
ByLayer
 62
    0
370
   -1
100
AcDbPolyline
 90
    5
 70
    1
 43
0
 10
159.6889818120412
 20
35.57538231563431
 10
173.6884458120412
 20
35.57538231563431
 10
173.6884458120412
 20
21.57467371563438
 10
159.6889818120412
 20
21.57467371563438
 10
159.6889818120412
 20
35.57538231563431
  0
LWPOLYLINE
  5
CE
100
AcDbEntity
  8
helper-top
  6
ByLayer
 62
    0
370
   -1
100
AcDbPolyline
 90
    5
 70
    1
 43
0
 10
169.2139818120413
 20
54.62538231563438
 10
183.2134458120413
 20
54.62538231563438
 10
183.2134458120413
 20
40.62490231563434
 10
169.2139818120413
 20
40.62490231563434
 10
169.2139818120413
 20
54.62538231563438
  0
LWPOLYLINE
  5
CF
100
AcDbEntity
  8
helper-top
  6
ByLayer
 62
    0
370
   -1
100
AcDbPolyline
 90
    5
 70
    1
 43
0
 10
178.7389818120412
 20
35.57538231563431
 10
192.7384458120412
 20
35.57538231563431
 10
192.7384458120412
 20
21.57467371563438
 10
178.7389818120412
 20
21.57467371563438
 10
178.7389818120412
 20
35.57538231563431
  0
LWPOLYLINE
  5
D0
100
AcDbEntity
  8
helper-top
  6
ByLayer
 62
    0
370
   -1
100
AcDbPolyline
 90
    7
 70
    1
 43
0
 10
188.2599178120413
 20
16.52139451563436
 10
188.2599178120413
 20
5.435081915634427
 10
184.2650058120412
 20
5.435081915634427
 10
184.2650058120412
 20
2.524673715634421
 10
202.2647158120412
 20
2.524673715634421
 10
202.2647158120412
 20
16.52139451563436
 10
188.2599178120413
 20
16.52139451563436
  0
LWPOLYLINE
  5
D1
100
AcDbEntity
  8
helper-top
  6
ByLayer
 62
    0
370
   -1
100
AcDbPolyline
 90
    5
 70
    1
 43
0
 10
188.2639818120413
 20
54.62538231563438
 10
202.2634458120413
 20
54.62538231563438
 10
202.2634458120413
 20
40.62490231563434
 10
188.2639818120413
 20
40.62490231563434
 10
188.2639818120413
 20
54.62538231563438
  0
LWPOLYLINE
  5
D2
100
AcDbEntity
  8
helper-top
  6
ByLayer
 62
    0
370
   -1
100
AcDbPolyline
 90
    5
 70
    1
 43
0
 10
197.7889818120411
 20
35.57538231563431
 10
211.7884458120411
 20
35.57538231563431
 10
211.7884458120411
 20
21.57467371563438
 10
197.7889818120411
 20
21.57467371563438
 10
197.7889818120411
 20
35.57538231563431
  0
LWPOLYLINE
  5
D3
100
AcDbEntity
  8
helper-top
  6
ByLayer
 62
    0
370
   -1
100
AcDbPolyline
 90
    5
 70
    1
 43
0
 10
202.5502118120412
 20
73.67538231563434
 10
216.5509458120412
 20
73.67538231563434
 10
216.5509458120412
 20
59.67490231563441
 10
202.5502118120412
 20
59.67490231563441
 10
202.5502118120412
 20
73.67538231563434
  0
LWPOLYLINE
  5
D4
100
AcDbEntity
  8
helper-top
  6
ByLayer
 62
    0
370
   -1
100
AcDbPolyline
 90
    5
 70
    1
 43
0
 10
207.3139818120412
 20
54.62538231563438
 10
221.3134458120412
 20
54.62538231563438
 10
221.3134458120412
 20
40.62490231563434
 10
207.3139818120412
 20
40.62490231563434
 10
207.3139818120412
 20
54.62538231563438
  0
LWPOLYLINE
  5
D5
100
AcDbEntity
  8
helper-top
  6
ByLayer
 62
    0
370
   -1
100
AcDbPolyline
 90
    5
 70
    1
 43
0
 10
216.8377118120411
 20
16.5255347156344
 10
230.8369218120413
 20
16.5255347156344
 10
230.8369218120413
 20
2.524673715634421
 10
216.8377118120411
 20
2.524673715634421
 10
216.8377118120411
 20
16.5255347156344
  0
LWPOLYLINE
  5
D6
100
AcDbEntity
  8
helper-top
  6
ByLayer
 62
    0
370
   -1
100
AcDbPolyline
 90
    5
 70
    1
 43
0
 10
216.8389818120413
 20
35.57538231563431
 10
230.8384458120413
 20
35.57538231563431
 10
230.8384458120413
 20
21.57467371563438
 10
216.8389818120413
 20
21.57467371563438
 10
216.8389818120413
 20
35.57538231563431
  0
LWPOLYLINE
  5
D7
100
AcDbEntity
  8
helper-top
  6
ByLayer
 62
    0
370
   -1
100
AcDbPolyline
 90
    5
 70
    1
 43
0
 10
221.6002118120412
 20
73.67538231563434
 10
235.6009458117412
 20
73.67538231563434
 10
235.6009458117412
 20
59.67490231563441
 10
221.6002118120412
 20
59.67490231563441
 10
221.6002118120412
 20
73.67538231563434
  0
LWPOLYLINE
  5
D8
100
AcDbEntity
  8
helper-top
  6
ByLayer
 62
    0
370
   -1
100
AcDbPolyline
 90
    5
 70
    1
 43
0
 10
226.3639818120412
 20
54.62538231563438
 10
240.3634458117413
 20
54.62538231563438
 10
240.3634458117413
 20
40.62490231563434
 10
226.3639818120412
 20
40.62490231563434
 10
226.3639818120412
 20
54.62538231563438
  0
LWPOLYLINE
  5
D9
100
AcDbEntity
  8
helper-top
  6
ByLayer
 62
    0
370
   -1
100
AcDbPolyline
 90
    5
 70
    1
 43
0
 10
240.6502118117412
 20
73.67538231563434
 10
254.6511998117412
 20
73.67538231563434
 10
254.6511998117412
 20
59.67490231563441
 10
240.6502118117412
 20
59.67490231563441
 10
240.6502118117412
 20
73.67538231563434
  0
LWPOLYLINE
  5
DA
100
AcDbEntity
  8
helper-top
  6
ByLayer
 62
    0
370
   -1
100
AcDbPolyline
 90
    7
 70
    1
 43
0
 10
240.6474178117412
 20
35.57131831563434
 10
240.6474178117412
 20
21.57467371563438
 10
254.6511998117412
 20
21.57467371563438
 10
254.6511998117412
 20
32.87180631563444
 10
258.6491598117411
 20
32.87180631563444
 10
258.6491598117411
 20
35.57131831563434
 10
240.6474178117412
 20
35.57131831563434
  0
LWPOLYLINE
  5
DB
100
AcDbEntity
  8
helper-top
  6
ByLayer
 62
    0
370
   -1
100
AcDbPolyline
 90
    5
 70
    1
 43
0
 10
243.0314618117411
 20
16.5255347156344
 10
257.0311798117411
 20
16.5255347156344
 10
257.0311798117411
 20
2.524673715634421
 10
243.0314618117411
 20
2.524673715634421
 10
243.0314618117411
 20
16.5255347156344
  0
LWPOLYLINE
  5
DC
100
AcDbEntity
  8
helper-top
  6
ByLayer
 62
    0
370
   -1
100
AcDbPolyline
 90
    5
 70
    1
 43
0
 10
245.4139818117412
 20
54.62538231563438
 10
259.4136998117412
 20
54.62538231563438
 10
259.4136998117412
 20
40.62490231563434
 10
245.4139818117412
 20
40.62490231563434
 10
245.4139818117412
 20
54.62538231563438
  0
LWPOLYLINE
  5
DD
100
AcDbEntity
  8
helper-top
  6
ByLayer
 62
    0
370
   -1
100
AcDbPolyline
 90
    5
 70
    1
 43
0
 10
266.8431998117412
 20
16.5255347156344
 10
280.8436798117411
 20
16.5255347156344
 10
280.8436798117411
 20
2.524673715634421
 10
266.8431998117412
 20
2.524673715634421
 10
266.8431998117412
 20
16.5255347156344
  0
LWPOLYLINE
  5
DE
100
AcDbEntity
  8
helper-top
  6
ByLayer
 62
    0
370
   -1
100
AcDbPolyline
 90
    5
 70
    1
 43
0
 10
266.8431998117412
 20
64.15038231563436
 10
280.8436798117411
 20
64.15038231563436
 10
280.8436798117411
 20
50.14990231563432
 10
266.8431998117412
 20
50.14990231563432
 10
266.8431998117412
 20
64.15038231563436
  0
LWPOLYLINE
  5
DF
100
AcDbEntity
  8
helper-top
  6
ByLayer
 62
    0
370
   -1
100
AcDbPolyline
 90
    7
 70
    1
 43
0
 10
264.8492998117413
 20
35.57131831563434
 10
264.8492998117413
 20
32.87180631563444
 10
266.8406598117413
 20
32.87180631563444
 10
266.8406598117413
 20
21.57467371563438
 10
280.8462198117413
 20
21.57467371563438
 10
280.8462198117413
 20
35.57131831563434
 10
264.8492998117413
 20
35.57131831563434
  0
LWPOLYLINE
  5
E0
100
AcDbEntity
  8
helper-top
  6
ByLayer
 62
    0
370
   -1
100
AcDbPolyline
 90
    5
 70
    1
 43
0
 10
267.3943798117411
 20
70.74981031563435
 10
281.5929798117413
 20
70.74981031563435
 10
281.5929798117413
 20
67.4511123156344
 10
267.3943798117411
 20
67.4511123156344
 10
267.3943798117411
 20
70.74981031563435
  0
LWPOLYLINE
  5
E1
100
AcDbEntity
  8
helper-top
  6
ByLayer
 62
    0
370
   -1
100
AcDbPolyline
 90
    5
 70
    1
 43
0
 10
267.3943798117411
 20
46.8506963156344
 10
281.5929798117413
 20
46.8506963156344
 10
281.5929798117413
 20
43.55047431563433
 10
267.3943798117411
 20
43.55047431563433
 10
267.3943798117411
 20
46.8506963156344
  0
LWPOLYLINE
  5
E2
100
AcDbEntity
  8
helper-top
  6
ByLayer
 62
    0
370
   -1
100
AcDbPolyline
 90
    9
 70
    1
 43
0
 10
25.32323581174111
 20
56.72266031563434
 10
25.01614981174112
 20
55.98148831563434
 10
24.27467301174121
 20
55.67440231563442
 10
23.53327241174111
 20
55.98148831563434
 10
23.22598321174131
 20
56.72266031563434
 10
23.53327241174111
 20
57.46434031563444
 10
24.27467301174121
 20
57.77168031563438
 10
25.01614981174112
 20
57.46434031563444
 10
25.32323581174111
 20
56.72266031563434
  0
LWPOLYLINE
  5
E3
100
AcDbEntity
  8
helper-top
  6
ByLayer
 62
    0
370
   -1
100
AcDbPolyline
 90
    9
 70
    1
 43
0
 10
27.25261981174121
 20
66.67488831563433
 10
26.94527981174132
 20
65.93371631563433
 10
26.20385381174131
 20
65.62663031563442
 10
25.46242781174121
 20
65.93371631563433
 10
25.15534181174121
 20
66.67488831563433
 10
25.46242781174121
 20
67.41656831563442
 10
26.20385381174131
 20
67.72390831563438
 10
26.94527981174132
 20
67.41656831563442
 10
27.25261981174121
 20
66.67488831563433
  0
LWPOLYLINE
  5
E4
100
AcDbEntity
  8
helper-top
  6
ByLayer
 62
    0
370
   -1
100
AcDbPolyline
 90
    9
 70
    1
 43
0
 10
86.78412381204112
 20
57.7081803156344
 10
86.47627581204119
 20
56.96827831563437
 10
85.73510381204119
 20
56.66093831563443
 10
84.99367781204114
 20
56.96827831563437
 10
84.6863378120413
 20
57.7081803156344
 10
84.99367781204114
 20
58.45113031563435
 10
85.73510381204119
 20
58.7569463156344
 10
86.47627581204119
 20
58.45113031563435
 10
86.78412381204112
 20
57.7081803156344
  0
LWPOLYLINE
  5
E5
100
AcDbEntity
  8
helper-top
  6
ByLayer
 62
    0
370
   -1
100
AcDbPolyline
 90
    9
 70
    1
 43
0
 10
143.9341238120412
 20
57.7081803156344
 10
143.6262758120313
 20
56.96827831563437
 10
142.8851038120313
 20
56.66093831563443
 10
142.1436778120312
 20
56.96827831563437
 10
141.8363378120312
 20
57.7081803156344
 10
142.1436778120312
 20
58.45113031563435
 10
142.8851038120313
 20
58.7569463156344
 10
143.6262758120313
 20
58.45113031563435
 10
143.9341238120412
 20
57.7081803156344
  0
LWPOLYLINE
  5
E6
100
AcDbEntity
  8
helper-top
  6
ByLayer
 62
    0
370
   -1
100
AcDbPolyline
 90
    9
 70
    1
 43
0
 10
201.0841238120413
 20
57.7081803156344
 10
200.7762758120411
 20
56.96827831563437
 10
200.0351038120411
 20
56.66093831563443
 10
199.2936778120411
 20
56.96827831563437
 10
198.9863378120413
 20
57.7081803156344
 10
199.2936778120411
 20
58.45113031563435
 10
200.0351038120411
 20
58.7569463156344
 10
200.7762758120411
 20
58.45113031563435
 10
201.0841238120413
 20
57.7081803156344
  0
LWPOLYLINE
  5
E7
100
AcDbEntity
  8
helper-top
  6
ByLayer
 62
    0
370
   -1
100
AcDbPolyline
 90
    9
 70
    1
 43
0
 10
262.9976398117412
 20
9.518208115634355
 10
262.6877598117412
 20
8.778204515634325
 10
261.9486198117413
 20
8.470915315634425
 10
261.2069398117412
 20
8.778204515634325
 10
260.8995998117411
 20
9.518208115634355
 10
261.2069398117412
 20
10.26098031563434
 10
261.9486198117413
 20
10.56689791563438
 10
262.6877598117412
 20
10.26098031563434
 10
262.9976398117412
 20
9.518208115634355
  0
LWPOLYLINE
  5
E8
100
AcDbEntity
  8
helper-top
  6
ByLayer
 62
    0
370
   -1
100
AcDbPolyline
 90
    9
 70
    1
 43
0
 10
182.0341238120411
 20
9.518208115634355
 10
181.7262758120412
 20
8.778204515634325
 10
180.9851038120412
 20
8.470915315634425
 10
180.2436778120411
 20
8.778204515634325
 10
179.9363378120413
 20
9.518208115634355
 10
180.2436778120411
 20
10.26098031563434
 10
180.9851038120412
 20
10.56689791563438
 10
181.7262758120412
 20
10.26098031563434
 10
182.0341238120411
 20
9.518208115634355
  0
LWPOLYLINE
  5
E9
100
AcDbEntity
  8
helper-top
  6
ByLayer
 62
    0
370
   -1
100
AcDbPolyline
 90
    9
 70
    1
 43
0
 10
105.8341238120413
 20
9.518208115634355
 10
105.5262758120411
 20
8.778204515634325
 10
104.7851038120411
 20
8.470915315634425
 10
104.0436778120413
 20
8.778204515634325
 10
103.7363378120413
 20
9.518208115634355
 10
104.0436778120413
 20
10.26098031563434
 10
104.7851038120411
 20
10.56689791563438
 10
105.5262758120411
 20
10.26098031563434
 10
105.8341238120413
 20
9.518208115634355
  0
LWPOLYLINE
  5
EA
100
AcDbEntity
  8
helper-top
  6
ByLayer
 62
    0
370
   -1
100
AcDbPolyline
 90
    9
 70
    1
 43
0
 10
49.87462181204114
 20
9.518208115634355
 10
49.5672818120413
 20
8.778204515634325
 10
48.82585581204125
 20
8.470915315634425
 10
48.08417581204117
 20
8.778204515634325
 10
47.77708981204114
 20
9.518208115634355
 10
48.08417581204117
 20
10.26098031563434
 10
48.82585581204125
 20
10.56689791563438
 10
49.5672818120413
 20
10.26098031563434
 10
49.87462181204114
 20
9.518208115634355
  0
LWPOLYLINE
  5
EB
100
AcDbEntity
  8
helper-top
  6
ByLayer
 62
    0
370
   -1
100
AcDbPolyline
 90
    9
 70
    1
 43
0
 10
43.92162381204116
 20
37.52813431563435
 10
43.61377581204124
 20
36.78823231563443
 10
42.87260381204123
 20
36.4811463156344
 10
42.13117781204122
 20
36.78823231563443
 10
41.82383781204111
 20
37.52813431563435
 10
42.13117781204122
 20
38.27108431563441
 10
42.87260381204123
 20
38.57690031563435
 10
43.61377581204124
 20
38.27108431563441
 10
43.92162381204116
 20
37.52813431563435
  0
LWPOLYLINE
  5
EC
100
AcDbEntity
  8
helper-top
  6
ByLayer
 62
    0
370
   -1
100
AcDbPolyline
 90
    9
 70
    1
 43
0
 10
277.2851398117411
 20
40.47453431563439
 10
276.9777998117413
 20
39.73437831563444
 10
276.2361198117412
 20
39.42703831563436
 10
275.4944398117411
 20
39.73437831563444
 10
275.1870998117413
 20
40.47453431563439
 10
275.4944398117411
 20
41.21723031563442
 10
276.2361198117412
 20
41.52330031563439
 10
276.9777998117413
 20
41.21723031563442
 10
277.2851398117411
 20
40.47453431563439
  0
LWPOLYLINE
  5
ED
100
AcDbEntity
  8
helper-top
  6
ByLayer
 62
    0
370
   -1
100
AcDbPolyline
 90
    9
 70
    1
 43
0
 10
265.3776198117412
 20
66.66828431563441
 10
265.0702798117413
 20
65.92812831563434
 10
264.3285998117412
 20
65.62078831563439
 10
263.5869198117411
 20
65.92812831563434
 10
263.2795798117413
 20
66.66828431563441
 10
263.5869198117411
 20
67.41098031563443
 10
264.3285998117412
 20
67.71705031563441
 10
265.0702798117413
 20
67.41098031563443
 10
265.3776198117412
 20
66.66828431563441
  0
LWPOLYLINE
  5
EE
100
AcDbEntity
  8
helper-top
  6
ByLayer
 62
    0
370
   -1
100
AcDbPolyline
 90
    9
 70
    1
 43
0
 10
236.8013498117411
 20
28.56828431563438
 10
236.4940098117413
 20
27.82812831563443
 10
235.7525838117413
 20
27.52078831563436
 10
235.0109038117412
 20
27.82812831563443
 10
234.7038178117411
 20
28.56828431563438
 10
235.0109038117412
 20
29.31098031563442
 10
235.7525838117413
 20
29.61679631563435
 10
236.4940098117413
 20
29.31098031563442
 10
236.8013498117411
 20
28.56828431563438
  0
LWPOLYLINE
  5
EF
100
AcDbEntity
  8
helper-top
  6
ByLayer
 62
    0
370
   -1
100
AcDbPolyline
 90
    9
 70
    1
 43
0
 10
164.4555458120412
 20
73.67131831563437
 10
164.4555458120412
 20
59.67490231563441
 10
178.4605978120412
 20
59.67490231563441
 10
178.4605978120412
 20
70.76936831563442
 10
183.5055458120412
 20
70.76936831563442
 10
183.5055458120412
 20
59.67490231563441
 10
197.5105978120412
 20
59.67490231563441
 10
197.5105978120412
 20
73.67131831563437
 10
164.4555458120412
 20
73.67131831563437
  0
LINE
  5
F0
100
AcDbEntity
  8
plate-support
  6
ByLayer
 62
  256
370
   -1
100
AcDbLine
 10
1.500000691741207
 20
74.70026831563437
 11
284.2510339917412
 21
74.70026831563437
  0
LINE
  5
F1
100
AcDbEntity
  8
plate-support
  6
ByLayer
 62
  256
370
   -1
100
AcDbLine
 10
284.2510339917412
 20
74.70026831563437
 11
284.2510339917412
 21
1.499877377634319
  0
LINE
  5
F2
100
AcDbEntity
  8
plate-support
  6
ByLayer
 62
  256
370
   -1
100
AcDbLine
 10
284.2510339917412
 20
1.499877377634319
 11
1.500000691741207
 21
1.499877377634319
  0
LINE
  5
F3
100
AcDbEntity
  8
plate-support
  6
ByLayer
 62
  256
370
   -1
100
AcDbLine
 10
1.500000691741207
 20
1.499877377634319
 11
1.500000691741207
 21
74.70026831563437
  0
LINE
  5
F4
100
AcDbEntity
  8
plate-support
  6
ByLayer
 62
  256
370
   -1
100
AcDbLine
 10
103.4204686917412
 20
74.70026831563437
 11
103.4204686917412
 21
74.70026831563437
  0
LINE
  5
F5
100
AcDbEntity
  8
plate-support
  6
ByLayer
 62
  256
370
   -1
100
AcDbLine
 10
103.4204686917412
 20
74.70026831563437
 11
106.2191926917412
 21
74.70026831563437
  0
LINE
  5
F6
100
AcDbEntity
  8
plate-support
  6
ByLayer
 62
  256
370
   -1
100
AcDbLine
 10
179.6204686917413
 20
74.70026831563437
 11
182.4191926917413
 21
74.70026831563437
  0
LINE
  5
F7
100
AcDbEntity
  8
plate-support
  6
ByLayer
 62
  256
370
   -1
100
AcDbLine
 10
187.1639126917412
 20
1.499877377634319
 11
184.3651886917412
 21
1.499877377634319
  0
LINE
  5
F8
100
AcDbEntity
  8
plate-support
  6
ByLayer
 62
  256
370
   -1
100
AcDbLine
 10
101.3949706917424
 20
1.499877377634319
 11
98.59624669174127
 21
1.499877377634319
  0
ARC
  5
F9
100
AcDbEntity
  8
plate-support
  6
ByLayer
 62
  256
370
   -1
100
AcDbCircle
 10
285.7510348102231
 20
76.20016363916943
 40
0.7
100
AcDbArc
 50
359.9999062840099
 51
89.99997897452911
  0
LINE
  5
FA
100
AcDbEntity
  8
plate-support
  6
ByLayer
 62
  256
370
   -1
100
AcDbLine
 10
286.4510348102221
 20
76.20016249421262
 11
286.4509101730262
 21
-0.0001239824024712455
  0
ARC
  5
FB
100
AcDbEntity
  8
plate-support
  6
ByLayer
 62
  256
370
   -1
100
AcDbCircle
 10
285.7509101730271
 20
-0.0001228374456543335
 40
0.7
100
AcDbArc
 50
269.9999753699218
 51
359.9999062840095
  0
LINE
  5
FC
100
AcDbEntity
  8
plate-support
  6
ByLayer
 62
  256
370
   -1
100
AcDbLine
 10
285.7509098721139
 20
-0.7001228374455892
 11
-3.009130864484177e-07
 21
-0.6999999999999362
  0
ARC
  5
FD
100
AcDbEntity
  8
plate-support
  6
ByLayer
 62
  256
370
   -1
100
AcDbCircle
 10
0
 20
0
 40
0.7
100
AcDbArc
 50
179.9999207847722
 51
269.9999753699241
  0
LINE
  5
FE
100
AcDbEntity
  8
plate-support
  6
ByLayer
 62
  256
370
   -1
100
AcDbLine
 10
-0.6999999999992781
 20
9.67796579764979e-07
 11
-0.6998946480574944
 21
76.20026946715321
  0
LINE
  5
FF
100
AcDbEntity
  8
plate-support
  6
ByLayer
 62
  256
370
   -1
100
AcDbLine
 10
0.0001056088163124969
 20
76.90026849935659
 11
285.7510350670977
 21
76.90016363916939
  0
ARC
  5
100
100
AcDbEntity
  8
plate-support
  6
ByLayer
 62
  256
370
   -1
100
AcDbCircle
 10
0.0001053519418121596
 20
76.20026849935664
 40
0.7
100
AcDbArc
 50
89.99997897453611
 51
179.9999207847733
  0
ARC
  5
101
100
AcDbEntity
  8
outline
  6
ByLayer
 62
  256
370
   -1
100
AcDbCircle
 10
285.7510348102231
 20
76.20016363916943
 40
0.7
100
AcDbArc
 50
359.9999062840099
 51
89.99997897452911
  0
LINE
  5
102
100
AcDbEntity
  8
outline
  6
ByLayer
 62
  256
370
   -1
100
AcDbLine
 10
286.4510348102221
 20
76.20016249421262
 11
286.4509101730262
 21
-0.0001239824024712455
  0
ARC
  5
103
100
AcDbEntity
  8
outline
  6
ByLayer
 62
  256
370
   -1
100
AcDbCircle
 10
285.7509101730271
 20
-0.0001228374456543335
 40
0.7
100
AcDbArc
 50
269.9999753699218
 51
359.9999062840095
  0
LINE
  5
104
100
AcDbEntity
  8
outline
  6
ByLayer
 62
  256
370
   -1
100
AcDbLine
 10
285.7509098721139
 20
-0.7001228374455892
 11
-3.009130864484177e-07
 21
-0.6999999999999362
  0
ARC
  5
105
100
AcDbEntity
  8
outline
  6
ByLayer
 62
  256
370
   -1
100
AcDbCircle
 10
0
 20
0
 40
0.7
100
AcDbArc
 50
179.9999207847722
 51
269.9999753699241
  0
LINE
  5
106
100
AcDbEntity
  8
outline
  6
ByLayer
 62
  256
370
   -1
100
AcDbLine
 10
-0.6999999999992781
 20
9.67796579764979e-07
 11
-0.6998946480574944
 21
76.20026946715321
  0
LINE
  5
107
100
AcDbEntity
  8
outline
  6
ByLayer
 62
  256
370
   -1
100
AcDbLine
 10
0.0001056088163124969
 20
76.90026849935659
 11
285.7510350670977
 21
76.90016363916939
  0
ARC
  5
108
100
AcDbEntity
  8
outline
  6
ByLayer
 62
  256
370
   -1
100
AcDbCircle
 10
0.0001053519418121596
 20
76.20026849935664
 40
0.7
100
AcDbArc
 50
89.99997897453611
 51
179.9999207847733
  0
DIMENSION
  5
109
100
AcDbEntity
  8
cable
  6
ByLayer
 62
  256
370
   -1
100
AcDbDimension
  2
*D1
 10
-26.00000000000001
 20
3.184081677783119e-15
 30
0
 11
-27.875
 21
38.10013424967833
 31
0
 70
   32
  1
delta_cy
 71
    5
  3
Standard
 53
0
210
0
220
0
230
1
100
AcDbAlignedDimension
 13
0.0001053519418121596
 23
76.20026849935664
 33
0
 14
0
 24
0
 34
0
 50
90
100
AcDbRotatedDimension
  0
DIMENSION
  5
10A
100
AcDbEntity
  8
cable
  6
ByLayer
 62
  256
370
   -1
100
AcDbDimension
  2
*D2
 10
0
 20
-80
 30
0
 11
142.8754550865136
 21
-78.125
 31
0
 70
   32
  1
delta_cx
 71
    5
  3
Standard
 53
0
210
0
220
0
230
1
100
AcDbAlignedDimension
 13
285.7509101730271
 23
-0.0001228374456543335
 33
0
 14
0
 24
0
 34
0
100
AcDbRotatedDimension
  0
ARC
  5
10B
100
AcDbEntity
  8
outline-straight
  6
ByLayer
 62
  256
370
   -1
100
AcDbCircle
 10
0.2013042030270071
 20
76.00026968886257
 40
3.2
100
AcDbArc
 50
89.99973725028222
 51
179.9990107850419
  0
LINE
  5
10C
100
AcDbEntity
  8
outline-straight
  6
CONTINUOUS
 62
    7
370
   -3
100
AcDbLine
 10
-3.000004468230799
 20
0.2014638981083379
 11
-2.99869579649598
 21
76.00032493704826
  0
ARC
  5
10D
100
AcDbEntity
  8
outline-straight
  6
ByLayer
 62
  256
370
   -1
100
AcDbCircle
 10
0.1999955312923021
 20
0.2014086499226377
 40
3.2
100
AcDbArc
 50
179.9990107850417
 51
269.9996922109904
  0
LINE
  5
10E
100
AcDbEntity
  8
outline-straight
  6
CONTINUOUS
 62
    7
370
   -3
100
AcDbLine
 10
285.5494748098005
 20
-3.000124228009167
 11
0.1999783411111196
 21
-2.99859135003119
  0
ARC
  5
10F
100
AcDbEntity
  8
outline-straight
  6
ByLayer
 62
  256
370
   -1
100
AcDbCircle
 10
285.5494919999816
 20
0.199875771944662
 40
3.2
100
AcDbArc
 50
269.9996922109914
 51
359.9988298051074
  0
LINE
  5
110
100
AcDbEntity
  8
outline-straight
  6
CONTINUOUS
 62
    7
370
   -3
100
AcDbLine
 10
288.7510401011691
 20
75.99889576242391
 11
288.7494919993142
 21
0.1998104159326166
  0
LINE
  5
111
100
AcDbEntity
  8
outline-straight
  6
CONTINUOUS
 62
    7
370
   -3
100
AcDbLine
 10
0.2013188777396238
 20
79.20026968882893
 11
285.5510547765491
 21
79.19896111840229
  0
ARC
  5
112
100
AcDbEntity
  8
outline-straight
  6
ByLayer
 62
  256
370
   -1
100
AcDbCircle
 10
285.5510401018365
 20
75.99896111843596
 40
3.2
100
AcDbArc
 50
359.9988298051074
 51
89.99973725028121
  0
DIMENSION
  5
113
100
AcDbEntity
  8
cable
  6
ByLayer
 62
  256
370
   -1
100
AcDbDimension
  2
*D3
 10
-32.15221837861456
 20
3.937511132285701e-15
 30
0
 11
-34.02721837861456
 21
38.45013424967829
 31
0
 70
   32
  1
y0cable
 71
    5
  3
Standard
 53
0
210
0
220
0
230
1
100
AcDbAlignedDimension
 13
0.0001056088163124969
 23
76.90026849935659
 33
0
 14
0
 24
0
 34
0
 50
90
100
AcDbRotatedDimension
  0
LINE
  5
114
100
AcDbEntity
  8
cable
  6
ByLayer
 62
  256
370
   -1
100
AcDbLine
 10
1.300000000000011
 20
0
 11
1.300000000000011
 21
2.299895649414765
  0
LINE
  5
115
100
AcDbEntity
  8
cable
  6
ByLayer
 62
  256
370
   -1
100
AcDbLine
 10
0
 20
-4.699984031679008
 11
0
 21
0
  0
ARC
  5
116
100
AcDbEntity
  8
cable-shape
  6
ByLayer
 62
  256
370
   -1
100
AcDbCircle
 10
-7.149987586430768
 20
-2.700104350585235
 40
4
100
AcDbArc
 50
298.9585840972069
 51
0.1427434120801175
  0
LINE
  5
117
100
AcDbEntity
  8
cable-shape
  6
ByLayer
 62
  256
370
   -1
100
AcDbLine
 10
0
 20
-6.199984031679008
 11
-5.213278465817432
 21
-6.199984031679008
  0
ARC
  5
118
100
AcDbEntity
  8
cable-shape
  6
ByLayer
 62
  256
370
   -1
100
AcDbCircle
 10
-7.149987586430768
 20
-0.7001043505852351
 40
4
100
AcDbArc
 50
0.1427434146390392
 51
90
  0
LINE
  5
119
100
AcDbEntity
  8
cable-shape
  6
ByLayer
 62
  256
370
   -1
100
AcDbLine
 10
-7.149987586430768
 20
3.299895649414765
 11
0
 21
3.299895649414765
  0
LINE
  5
11A
100
AcDbEntity
  8
cable-shape
  6
ByLayer
 62
  256
370
   -1
100
AcDbLine
 10
-3.149999999999977
 20
-2.690138990788739
 11
-3.149999999999977
 21
-0.7100697105670788
  0
LINE
  5
11B
100
AcDbEntity
  8
cable-shape
  6
ByLayer
 62
  256
370
   -1
100
AcDbLine
 10
0
 20
-6.199984031679008
 11
0
 21
3.299895649414765
  0
LINE
  5
11C
100
AcDbEntity
  8
cable-chamfer
  6
ByLayer
 62
  256
370
   -1
100
AcDbLine
 10
3.149999999999977
 20
-2.220446049250313e-16
 11
10.22106781186546
 21
-7.071067811865475
  0
LINE
  5
11D
100
AcDbEntity
  8
cable-chamfer
  6
ByLayer
 62
  256
370
   -1
100
AcDbLine
 10
-10.22106781186546
 20
-7.071067811865475
 11
10.22106781186546
 21
-7.071067811865475
  0
LINE
  5
11E
100
AcDbEntity
  8
cable-chamfer
  6
ByLayer
 62
  256
370
   -1
100
AcDbLine
 10
3.149999999999977
 20
-2.220446049250313e-16
 11
-3.149999999999976
 21
0
  0
LINE
  5
11F
100
AcDbEntity
  8
cable-chamfer
  6
ByLayer
 62
  256
370
   -1
100
AcDbLine
 10
-3.149999999999976
 20
0
 11
-10.22106781186546
 21
-7.071067811865475
  0
LINE
  5
120
100
AcDbEntity
  8
side-view
  6
ByLayer
 62
  256
370
   -1
100
AcDbLine
 10
-56.8680570008382
 20
70.86091011563444
 11
-56.86805700083819
 21
73.57131831563434
  0
LINE
  5
121
100
AcDbEntity
  8
cable
  6
ByLayer
 62
  256
370
   -1
100
AcDbLine
 10
-14.8
 20
0
 11
-6.3
 21
0
  0
LINE
  5
122
100
AcDbEntity
  8
cable
  6
ByLayer
 62
  256
370
   -1
100
AcDbLine
 10
-14.8
 20
0
 11
1.300000000000011
 21
0
  0
LINE
  5
123
100
AcDbEntity
  8
cable
  6
ByLayer
 62
  256
370
   -1
100
AcDbLine
 10
-14.8
 20
0
 11
-14.8
 21
2.299895649414765
  0
LINE
  5
124
100
AcDbEntity
  8
cable
  6
ByLayer
 62
  256
370
   -1
100
AcDbLine
 10
-14.8
 20
2.299895649414765
 11
1.300000000000011
 21
2.299895649414765
  0
LINE
  5
125
100
AcDbEntity
  8
cable
  6
ByLayer
 62
  256
370
   -1
100
AcDbLine
 10
0
 20
-4.699984031679008
 11
-6.3
 21
-4.699984031679008
  0
LINE
  5
126
100
AcDbEntity
  8
cable
  6
ByLayer
 62
  256
370
   -1
100
AcDbLine
 10
-6.3
 20
-4.699984031679008
 11
-6.3
 21
0
  0
LINE
  5
127
100
AcDbEntity
  8
plate-support
  6
ByLayer
 62
  256
370
   -1
100
AcDbLine
 10
21.78844581174121
 20
74.70026831563437
 11
21.78844581174121
 21
72.20026831563437
  0
LINE
  5
128
100
AcDbEntity
  8
plate-support
  6
ByLayer
 62
  256
370
   -1
100
AcDbLine
 10
30.59995781174121
 20
74.70026831563437
 11
30.59995781174121
 21
72.20026831563437
  0
LINE
  5
129
100
AcDbEntity
  8
plate-support
  6
ByLayer
 62
  256
370
   -1
100
AcDbLine
 10
30.59995781174121
 20
72.20026831563437
 11
21.78844581174121
 21
72.20026831563437
  0
DIMENSION
  5
12A
100
AcDbEntity
  8
cable
  6
ByLayer
 62
  256
370
   -1
100
AcDbDimension
  2
*D4
 10
-3.36269198888633e-15
 20
-54.91692774157524
 30
0
 11
13.0971009058706
 21
-53.04192774157524
 31
0
 70
   32
  1
x0cable
 71
    5
  3
Standard
 53
0
210
0
220
0
230
1
100
AcDbAlignedDimension
 13
26.19420181174121
 23
72.20026831563437
 33
0
 14
0
 24
0
 34
0
100
AcDbRotatedDimension
  0
LINE
  5
12B
100
AcDbEntity
  8
hooks
  6
ByLayer
 62
  256
370
   -1
100
AcDbLine
 10
101.3949706917424
 20
5.435081915634314
 11
98.59624669174126
 21
5.435081915634314
  0
LINE
  5
12C
100
AcDbEntity
  8
hooks
  6
ByLayer
 62
  256
370
   -1
100
AcDbLine
 10
187.1639126917412
 20
5.435081915634428
 11
184.3651886917412
 21
5.435081915634428
  0
LINE
  5
12D
100
AcDbEntity
  8
side-view
  6
ByLayer
 62
  256
370
   -1
100
AcDbLine
 10
-56.46805700083818
 20
76.90025234731338
 11
-56.46805700083818
 21
79.20014799672815
  0
LINE
  5
12E
100
AcDbEntity
  8
side-view
  6
ByLayer
 62
  256
370
   -1
100
AcDbLine
 10
-58.36805700083819
 20
76.90025234731338
 11
-56.46805700083818
 21
76.90025234731338
  0
LINE
  5
12F
100
AcDbEntity
  8
side-view
  6
ByLayer
 62
  256
370
   -1
100
AcDbLine
 10
-58.36805700083819
 20
73.57131831563434
 11
-56.86805700083819
 21
73.57131831563434
  0
LINE
  5
130
100
AcDbEntity
  8
side-view
  6
ByLayer
 62
  256
370
   -1
100
AcDbLine
 10
-58.36805700083819
 20
73.57131831563434
 11
-58.36805700083819
 21
76.90025234731338
  0
DIMENSION
  5
131
100
AcDbEntity
  8
side-view
  6
ByLayer
 62
  256
370
   -1
100
AcDbDimension
  2
*D5
 10
-56.56805700083818
 20
64.00064244081032
 30
0
 11
-56.66805700083819
 21
65.87564244081032
 31
0
 70
   32
  1
lbl
 71
    5
  3
Standard
 53
0
210
0
220
0
230
1
100
AcDbAlignedDimension
 13
-56.86805700083819
 23
70.86091011563444
 33
0
 14
-56.46805700083818
 24
76.90025234731338
 34
0
100
AcDbRotatedDimension
  0
DIMENSION
  5
132
100
AcDbEntity
  8
side-view
  6
ByLayer
 62
  256
370
   -1
100
AcDbDimension
  2
*D6
 10
-57.86805700083819
 20
57.00064244081032
 30
0
 11
-57.61805700083819
 21
58.87564244081032
 31
0
 70
   32
  1
bpl
 71
    5
  3
Standard
 53
0
210
0
220
0
230
1
100
AcDbAlignedDimension
 13
-56.86805700083819
 23
73.57131831563434
 33
0
 14
-58.36805700083819
 24
73.57131831563434
 34
0
100
AcDbRotatedDimension
  0
LINE
  5
133
100
AcDbEntity
  8
side-view
  6
ByLayer
 62
  256
370
   -1
100
AcDbLine
 10
-64.56805700083819
 20
70.86091011563444
 11
-64.56805700083819
 21
73.57131831563434
  0
LINE
  5
134
100
AcDbEntity
  8
side-view
  6
ByLayer
 62
  256
370
   -1
100
AcDbLine
 10
-71.56805700083819
 20
76.90025234731338
 11
-71.56805700083819
 21
79.20014799672815
  0
LINE
  5
135
100
AcDbEntity
  8
side-view
  6
ByLayer
 62
  256
370
   -1
100
AcDbLine
 10
-64.56805700083819
 20
70.86091011563444
 11
-56.8680570008382
 21
70.86091011563444
  0
LINE
  5
136
100
AcDbEntity
  8
side-view
  6
ByLayer
 62
  256
370
   -1
100
AcDbLine
 10
-71.56805700083819
 20
79.20014799672815
 11
-56.46805700083818
 21
79.20014799672815
  0
LINE
  5
137
100
AcDbEntity
  8
side-view
  6
ByLayer
 62
  256
370
   -1
100
AcDbLine
 10
-71.56805700083819
 20
76.90025234731338
 11
-62.96805700083819
 21
76.90025234731338
  0
LINE
  5
138
100
AcDbEntity
  8
side-view
  6
ByLayer
 62
  256
370
   -1
100
AcDbLine
 10
-64.56805700083819
 20
73.57131831563434
 11
-62.96805700083819
 21
73.57131831563434
  0
LINE
  5
139
100
AcDbEntity
  8
side-view
  6
ByLayer
 62
  256
370
   -1
100
AcDbLine
 10
-62.96805700083819
 20
73.57131831563434
 11
-62.96805700083819
 21
76.90025234731338
  0
LINE
  5
13A
100
AcDbEntity
  8
side-view
  6
ByLayer
 62
  256
370
   -1
100
AcDbLine
 10
-62.96805700083819
 20
74.70026831563437
 11
-58.36805700083819
 21
74.70026831563437
  0
DIMENSION
  5
13B
100
AcDbEntity
  8
side-view
  6
ByLayer
 62
  256
370
   -1
100
AcDbDimension
  2
*D7
 10
-65.66805700083819
 20
41.00064244081032
 30
0
 11
-63.7680570008382
 21
42.87564244081032
 31
0
 70
   32
  1
tpl
 71
    5
  3
Standard
 53
0
210
0
220
0
230
1
100
AcDbAlignedDimension
 13
-62.96805700083819
 23
73.57131831563434
 33
0
 14
-64.56805700083819
 24
73.57131831563434
 34
0
100
AcDbRotatedDimension
  0
DIMENSION
  5
13C
100
AcDbEntity
  8
side-view
  6
ByLayer
 62
  256
370
   -1
100
AcDbDimension
  2
*D8
 10
-64.16805700083819
 20
50.00064244081032
 30
0
 11
-60.6680570008382
 21
51.87564244081032
 31
0
 70
   32
  1
mid
 71
    5
  3
Standard
 53
0
210
0
220
0
230
1
100
AcDbAlignedDimension
 13
-58.36805700083819
 23
73.57131831563434
 33
0
 14
-62.96805700083819
 24
73.57131831563434
 34
0
100
AcDbRotatedDimension
  0
DIMENSION
  5
13D
100
AcDbEntity
  8
side-view
  6
ByLayer
 62
  256
370
   -1
100
AcDbDimension
  2
*D9
 10
-72.66805700083819
 20
53
 30
0
 11
-68.06805700083819
 21
54.875
 31
0
 70
   32
  1
key
 71
    5
  3
Standard
 53
0
210
0
220
0
230
1
100
AcDbAlignedDimension
 13
-64.56805700083819
 23
70.86091011563444
 33
0
 14
-71.56805700083819
 24
76.90025234731338
 34
0
100
AcDbRotatedDimension
  0
LINE
  5
13E
100
AcDbEntity
  8
plate-support
  6
ByLayer
 62
  256
370
   -1
100
AcDbLine
 10
103.4204686917412
 20
74.70026831563437
 11
103.4204686917412
 21
73.67131831563437
  0
LINE
  5
13F
100
AcDbEntity
  8
plate-support
  6
ByLayer
 62
  256
370
   -1
100
AcDbLine
 10
103.4204686917412
 20
73.67131831563437
 11
103.4204686917412
 21
74.70026831563437
  0
LINE
  5
140
100
AcDbEntity
  8
plate-support
  6
ByLayer
 62
  256
370
   -1
100
AcDbLine
 10
106.2191926917412
 20
74.70026831563437
 11
106.2191926917412
 21
73.67131831563437
  0
LINE
  5
141
100
AcDbEntity
  8
plate-support
  6
ByLayer
 62
  256
370
   -1
100
AcDbLine
 10
103.4204686917412
 20
73.67131831563437
 11
103.4204686917412
 21
74.70026831563437
  0
LINE
  5
142
100
AcDbEntity
  8
plate-support
  6
ByLayer
 62
  256
370
   -1
100
AcDbLine
 10
106.2191926917412
 20
73.67131831563437
 11
103.4204686917412
 21
73.67131831563437
  0
LINE
  5
143
100
AcDbEntity
  8
plate-support
  6
ByLayer
 62
  256
370
   -1
100
AcDbLine
 10
98.59624669174127
 20
1.499877377634319
 11
98.59624669174127
 21
2.524673715634251
  0
LINE
  5
144
100
AcDbEntity
  8
plate-support
  6
ByLayer
 62
  256
370
   -1
100
AcDbLine
 10
98.59624669174127
 20
2.524673715634251
 11
101.3949706917424
 21
2.524673715634251
  0
LINE
  5
145
100
AcDbEntity
  8
plate-support
  6
ByLayer
 62
  256
370
   -1
100
AcDbLine
 10
101.3949706917424
 20
2.524673715634251
 11
101.3949706917424
 21
1.499877377634319
  0
LINE
  5
146
100
AcDbEntity
  8
plate-support
  6
ByLayer
 62
  256
370
   -1
100
AcDbLine
 10
187.1639126917412
 20
2.524673715634363
 11
187.1639126917412
 21
1.499877377634319
  0
LINE
  5
147
100
AcDbEntity
  8
plate-support
  6
ByLayer
 62
  256
370
   -1
100
AcDbLine
 10
184.3651886917412
 20
2.524673715634363
 11
187.1639126917412
 21
2.524673715634363
  0
LINE
  5
148
100
AcDbEntity
  8
plate-support
  6
ByLayer
 62
  256
370
   -1
100
AcDbLine
 10
184.3651886917412
 20
1.499877377634319
 11
184.3651886917412
 21
2.524673715634363
  0
LINE
  5
149
100
AcDbEntity
  8
outline-profile
  6
ByLayer
 62
  256
370
   -1
100
AcDbLine
 10
-5.90216631608584e-14
 20
13.20000000000004
 11
-1.699995327969179
 21
13.20000000000007
  0
LINE
  5
14A
100
AcDbEntity
  8
outline-profile
  6
ByLayer
 62
  256
370
   -1
100
AcDbLine
 10
-5.675305860434039e-14
 20
-1.899999999999943
 11
-1.699995735038883
 21
-1.899999999999943
  0
LINE
  5
14B
100
AcDbEntity
  8
outline-profile
  6
ByLayer
 62
  256
370
   -1
100
AcDbLine
 10
-5.90216631608584e-14
 20
13.20000000000004
 11
-5.675305860434039e-14
 21
-1.899999999999943
  0
ARC
  5
14C
100
AcDbEntity
  8
outline-profile
  6
ByLayer
 62
  256
370
   -1
100
AcDbCircle
 10
-1.700000000000059
 20
11.70000000000735
 40
1.5
100
AcDbArc
 50
89.99982154156589
 51
169.3797323457874
  0
ARC
  5
14D
100
AcDbEntity
  8
outline-profile
  6
ByLayer
 62
  256
370
   -1
100
AcDbCircle
 10
-1.70000000000006
 20
-0.3999999999999431
 40
1.500000000006063
100
AcDbArc
 50
190.6202676541989
 51
270.0001629095168
  0
ARC
  5
14E
100
AcDbEntity
  8
outline-profile
  6
ByLayer
 62
  256
370
   -1
100
AcDbCircle
 10
30.56476282440452
 20
5.650000000000044
 40
34.32708363706967
100
AcDbArc
 50
169.3797323457877
 51
190.6208504864487
  0
LINE
  5
14F
100
AcDbEntity
  8
hooks
  6
ByLayer
 62
  256
370
   -1
100
AcDbLine
 10
187.1639126917412
 20
2.524673715634251
 11
187.1639126917412
 21
5.435081915634428
  0
LINE
  5
150
100
AcDbEntity
  8
hooks
  6
ByLayer
 62
  256
370
   -1
100
AcDbLine
 10
184.3651886917412
 20
5.435081915634428
 11
184.3651886917412
 21
2.524673715634363
  0
LINE
  5
151
100
AcDbEntity
  8
hooks
  6
ByLayer
 62
  256
370
   -1
100
AcDbLine
 10
184.3651886917412
 20
2.524673715634363
 11
187.1639126917412
 21
2.524673715634251
  0
LINE
  5
152
100
AcDbEntity
  8
hooks
  6
ByLayer
 62
  256
370
   -1
100
AcDbLine
 10
179.6204686917413
 20
70.76936831563437
 11
182.4191926917413
 21
70.76936831563424
  0
LINE
  5
153
100
AcDbEntity
  8
hooks
  6
ByLayer
 62
  256
370
   -1
100
AcDbLine
 10
106.2191926917412
 20
70.76936831563425
 11
106.2191926917412
 21
73.67131831563442
  0
LINE
  5
154
100
AcDbEntity
  8
hooks
  6
ByLayer
 62
  256
370
   -1
100
AcDbLine
 10
103.4204686917412
 20
70.76936831563437
 11
106.2191926917412
 21
70.76936831563425
  0
LINE
  5
155
100
AcDbEntity
  8
hooks
  6
ByLayer
 62
  256
370
   -1
100
AcDbLine
 10
98.59624669174126
 20
5.435081915634314
 11
98.59624669174127
 21
2.52467371563425
  0
LINE
  5
156
100
AcDbEntity
  8
hooks
  6
ByLayer
 62
  256
370
   -1
100
AcDbLine
 10
101.3949706917424
 20
2.524673715634137
 11
101.3949706917424
 21
5.435081915634314
  0
LINE
  5
157
100
AcDbEntity
  8
hooks
  6
ByLayer
 62
  256
370
   -1
100
AcDbLine
 10
98.59624669174127
 20
2.52467371563425
 11
101.3949706917424
 21
2.524673715634137
  0
LINE
  5
158
100
AcDbEntity
  8
hooks
  6
ByLayer
 62
  256
370
   -1
100
AcDbLine
 10
179.6204686917413
 20
73.67131831563437
 11
179.6204686917413
 21
70.76936831563437
  0
LINE
  5
159
100
AcDbEntity
  8
hooks
  6
ByLayer
 62
  256
370
   -1
100
AcDbLine
 10
182.4191926917413
 20
70.76936831563424
 11
182.4191926917413
 21
73.67131831563437
  0
LINE
  5
15A
100
AcDbEntity
  8
hooks
  6
ByLayer
 62
  256
370
   -1
100
AcDbLine
 10
182.4191926917413
 20
73.67131831563437
 11
179.6204686917413
 21
73.67131831563437
  0
LINE
  5
15B
100
AcDbEntity
  8
hooks
  6
ByLayer
 62
  256
370
   -1
100
AcDbLine
 10
106.2191926917413
 20
73.67131831563437
 11
103.4204686917412
 21
73.67131831563437
  0
LINE
  5
15C
100
AcDbEntity
  8
hooks
  6
ByLayer
 62
  256
370
   -1
100
AcDbLine
 10
103.4204686917412
 20
73.67131831563437
 11
103.4204686917412
 21
70.76936831563437
  0
LINE
  5
15D
100
AcDbEntity
  8
plate-support
  6
ByLayer
 62
  256
370
   -1
100
AcDbLine
 10
179.6204686917413
 20
73.67131831563437
 11
179.6204686917413
 21
74.70026831563437
  0
LINE
  5
15E
100
AcDbEntity
  8
plate-support
  6
ByLayer
 62
  256
370
   -1
100
AcDbLine
 10
182.4191926917413
 20
74.70026831563437
 11
182.4191926917413
 21
73.67131831563437
  0
LINE
  5
15F
100
AcDbEntity
  8
plate-support
  6
ByLayer
 62
  256
370
   -1
100
AcDbLine
 10
182.4191926917413
 20
73.67131831563437
 11
179.6204686917413
 21
73.67131831563437
  0
ENDSEC
  0
SECTION
  2
OBJECTS
  0
DICTIONARY
  5
C
330
0
100
AcDbDictionary
281
    1
  3
ACAD_GROUP
350
D
  0
DICTIONARY
  5
D
330
C
100
AcDbDictionary
281
    1
  0
ENDSEC
  0
EOF
